<?xml version="1.0" encoding="UTF-8"?>
<svg width="94px" height="161px" viewBox="0 0 94 161" version="1.1" xmlns="http://www.w3.org/2000/svg" xmlns:xlink="http://www.w3.org/1999/xlink">
    <!-- Generator: Sketch 43.2 (39069) - http://www.bohemiancoding.com/sketch -->
    <title>tchad</title>
    <desc>Created with Sketch.</desc>
    <defs>
        <path d="M546,249.110568 C546.308165,248.329858 547.079155,248.505923 547.477346,247.873478 C547.829369,247.314008 547.932091,246.527506 548.493021,246.109351 C549.197068,245.583472 549.319411,243.588838 549.620651,242.796545 C551.245731,238.513064 554.894082,234.59793 557.800297,231.150758 C560.461828,227.993168 563.488078,225.322073 563.691213,221.054808 C563.945131,215.707986 564.050161,210.34958 564.426423,205.00855 C564.716121,200.8826 564.508369,195.453537 566.550107,191.796709 C567.725058,189.690876 566.95176,188.70746 565.529815,187.06264 C565.125854,186.595835 564.616862,186.228647 564.207129,185.766476 C563.496157,184.967232 564.426423,184.25023 564.106716,183.426662 C563.368043,181.522377 561.820062,180.047831 560.942888,178.236213 C560.200753,176.703751 560.677658,174.841166 560.511457,173.197505 C560.236763,170.480077 559.42884,167.857632 559.002949,165.163371 C558.953319,164.850624 558.436133,163.741749 558.866641,163.526301 L568.367473,159 L637.121979,198.061364 L637.827411,236.268232 C635.554838,235.560497 635.348933,235.844228 632.969022,236.220382 C631.394149,236.469294 629.355758,236.219641 628.851152,237.699515 C628.483085,238.778586 629.52069,240.831414 628.734003,241.875608 C627.993715,242.85804 626.869778,246.224141 625.31037,246.768437 C623.538941,247.38675 624.259262,250.477552 625.525047,251.698263 C622.649994,254.010277 620.776882,255.459989 623.009405,258.683395 C624.519183,260.863419 620.999638,261.785166 620.031284,263.618793 C619.366479,264.877891 619.106327,265.313779 620.116231,266.327313 C620.976093,267.190264 622.450553,266.265006 623.376317,266.2733 C624.539381,266.283725 625.512005,266.824095 624.764791,267.736263 C623.678019,269.062764 625.884111,270.640517 625.029906,272.967404 C625.328837,272.815663 625.631231,272.676664 625.941705,272.550407 C626.608819,273.62649 625.851679,274.843888 625.860913,275.969779 C625.870146,277.256676 626.024575,277.273831 626.834345,278.166389 C627.568862,278.975907 629.334175,278.535026 629.453863,280.736281 C629.507186,281.716501 628.560992,283.495941 628.844689,284.612692 C628.345277,283.764406 625.950592,282.951309 624.896021,283.5012 C624.269881,283.827673 623.400209,284.103528 622.988168,284.71744 C622.48033,285.472667 622.3738,284.993051 621.803637,285.626654 C620.890684,286.642504 618.696941,286.391217 618.383005,287.980438 C618.254891,288.634891 618.771732,289.187735 618.561902,289.863872 C617.860048,292.125534 615.827428,293.059224 614.191499,294.551608 C612.887626,295.741137 612.223167,297.41912 611.052832,298.722732 C608.979008,301.03265 607.539635,301.552749 604.610913,302.645975 C602.945437,303.267612 598.794327,303.537884 597.041133,303.369927 C596.44327,303.313169 592.768373,304.179595 594.079517,305.17112 C594.64968,305.603175 596.167422,305.892756 595.825786,306.916714 C595.433366,308.094729 594.064513,309.756924 593.155022,310.601342 C592.440587,311.262745 591.813869,312.916831 590.911304,313.140388 C589.204277,313.565492 587.133685,313.237687 585.370104,313.395219 C583.045593,313.602559 581.315483,314.180562 579.324529,315.416494 C578.23037,316.095272 576.178245,316.69065 575.66579,318.001872 C574.878642,316.866715 573.786792,316.066313 573.426689,314.6659 C572.698403,314.92884 572.354459,315.88909 572.007052,316.500685 C571.760058,316.933898 570.339267,317.050889 569.857976,317.262862 C567.47114,318.315778 566.652829,318.129288 564.112487,318.167513 C565.447869,316.480993 563.950902,315.863607 563.469611,314.282495 C562.814039,312.133804 562.248492,309.724491 560.835781,307.925614 C559.631975,306.391994 557.97227,305.321702 556.477611,304.105462 C554.993341,302.895014 554.168105,301.421626 552.968916,299.985305 C552.152913,299.00768 550.081167,297.158995 551.064525,295.73889 C552.060579,294.300252 552.541871,293.27861 554.403557,293.365485 C556.483382,293.462784 558.522812,294.310677 560.586479,293.606416 C561.493661,293.297144 562.296968,293.753523 563.108354,294.08017 C563.860876,294.381335 564.913485,293.68634 565.612916,293.481317 C561.484428,291.179728 559.556953,285.62904 559.775093,281.097678 C559.824722,280.062137 560.345256,279.233935 560.450286,278.24936 C560.558778,277.227718 560.297935,276.199127 560.271388,275.179802 C560.251767,274.409517 560.408735,273.145785 559.958607,272.464691 C559.604275,271.929546 558.626687,272.326851 558.687859,271.423358 C558.768651,270.231443 558.290822,268.629481 558.048445,267.460733 C557.87301,266.617473 556.680169,266.487914 556.079421,266.11476 C554.162334,264.924004 556.599608,263.123829 552.810794,262.552915 C551.90465,262.416372 552.170572,263.129019 551.194716,262.377927 C549.840521,260.775513 548.04093,257.648653 547.572796,256.788007 C546.314282,254.473572 546.498604,251.619497 546,249.110568" id="path-1"></path>
    </defs>
    <g id="v4" stroke="none" stroke-width="1" fill="none" fill-rule="evenodd" stroke-dasharray="3">
        <g id="scheme5" transform="translate(-1806.000000, -145.000000)" fill-rule="nonzero">
            <g id="africa-1" transform="translate(1261.000000, -13.000000)">
                <g id="tchad">
                    <use fill-opacity="0.35" fill="#005DC7" fill-rule="evenodd" style="mix-blend-mode: multiply;" xlink:href="#path-1"></use>
                    <use stroke="#4B627C" stroke-width="1" xlink:href="#path-1"></use>
                </g>
            </g>
        </g>
    </g>
</svg>