<?xml version="1.0" encoding="UTF-8"?>
<svg width="71px" height="95px" viewBox="0 0 71 95" version="1.1" xmlns="http://www.w3.org/2000/svg" xmlns:xlink="http://www.w3.org/1999/xlink">
    <!-- Generator: Sketch 43.2 (39069) - http://www.bohemiancoding.com/sketch -->
    <title>kenya</title>
    <desc>Created with Sketch.</desc>
    <defs>
        <path d="M745.197476,401.850834 C745.210448,401.516225 745.542319,400.823654 745.174632,400.189097 C745.174632,400.189097 745.356811,398.926256 744.222755,399.932707 C743.253659,400.79284 740.881659,396.986071 741.004604,394.666203 C741.923879,392.983095 741.314779,392.217784 743.027284,390.639968 C744.298175,389.468964 745.307908,385.60692 747.371112,384.663637 C748.35008,384.216088 748.205668,384.063206 748.151715,383.184128 C748.069063,381.827037 749.625677,381.174141 749.966617,379.966283 C750.371842,378.531077 750.488129,377.125019 750.628178,375.68515 C750.753304,374.389851 749.470704,373.473138 749.203233,372.020771 C748.603087,368.762318 746.628391,368.054427 746.333368,366.619222 C746.101483,365.480151 745.477001,364.513632 745.100475,363.429358 C744.849074,362.952511 744.707877,362.445351 744.675735,361.905546 C744.675735,361.179199 745.477001,360.766475 745.261187,359.986497 C745.06948,359.298625 744.327907,359.117913 743.75623,358.901058 C742.459051,358.41022 743.408402,357.40989 742.035459,357.552128 C742.59669,356.24517 740.99542,354.988345 741.14913,354.075456 C741.303299,353.159933 742.401654,352.443216 743.014657,351.79032 C745.15328,349.511013 747.77404,350.165075 750.57962,350.165075 C752.18904,350.165075 753.801904,350.029832 755.411324,350.012344 C756.199963,350.004183 757.020744,349.964543 757.803643,350.090459 C758.480931,350.198886 758.68871,351.404412 759.501455,351.723865 C762.005125,352.71137 764.799225,351.505844 767.354553,352.710204 C770.025823,353.970527 772.884208,356.290639 774.967729,358.363584 C776.029579,359.419877 776.87332,360.16138 778.404679,360.3316 C779.399948,360.442359 781.667141,359.815112 782.448893,360.322273 C784.634581,361.742322 787.987731,360.480833 789.891025,362.338089 C790.153905,361.017141 791.943553,359.094595 792.749411,357.95669 C794.182047,355.932712 797.245914,355.122422 799.362726,354.11976 C801.621884,353.050643 802.017925,355.56779 803.705406,356.569286 C804.863683,357.257159 806.118388,356.808293 807.322583,356.586774 C808.298337,356.406062 809.463502,357.060124 810.380711,356.545968 C808.974477,358.995495 807.679594,361.672368 805.966859,363.916699 C804.157696,366.285779 802.535649,367.604395 802.541389,370.787264 C802.554016,378.306061 802.619449,385.823693 802.612561,393.343657 C802.605673,398.978383 801.50135,404.321638 805.226434,408.925721 C806.489174,410.486842 810,413 807,414.5 C805.877522,415.061239 805.226434,417.5 803,419.5 C801.958611,421.497462 796.332849,422.021184 797,425 C797.304361,426.358963 796.413182,429.297771 796,429.5 C795.586818,429.702229 794.466311,429.772475 794,430.543576 C793.635349,431.146569 793.823336,433.370939 793.5,434 C793.391181,434.21171 792.983464,436.490648 792,438.5 C791.016536,440.509352 788.277128,443.566439 788,443.5 C786.987512,443.257496 784.361255,441.811035 783.579619,441.206768 C780.125335,438.536341 775.79184,435.631047 773.6655,432.747543 C773.10358,431.985555 772.071462,431.863359 773.248107,430.543576 C774.91148,428.678159 772.000749,426.430238 770.502909,425.478816 L741.720119,407.197225 C743.515047,405.959824 739.151016,400.590174 745.197476,401.850834 Z" id="path-1"></path>
    </defs>
    <g id="v4" stroke="none" stroke-width="1" fill="none" fill-rule="evenodd" stroke-dasharray="3">
        <g id="scheme5" transform="translate(-2001.000000, -336.000000)" fill-rule="nonzero">
            <g id="africa-1" transform="translate(1261.000000, -13.000000)">
                <g id="kenya">
                    <use fill-opacity="0.35" fill="#005DC7" fill-rule="evenodd" style="mix-blend-mode: multiply;" xlink:href="#path-1"></use>
                    <use stroke="#4B627C" stroke-width="1" xlink:href="#path-1"></use>
                </g>
            </g>
        </g>
    </g>
</svg>