<?xml version="1.0" encoding="UTF-8"?>
<svg width="71px" height="95px" viewBox="0 0 71 95" version="1.1" xmlns="http://www.w3.org/2000/svg" xmlns:xlink="http://www.w3.org/1999/xlink">
    <!-- Generator: Sketch 44.1 (41455) - http://www.bohemiancoding.com/sketch -->
    <title>africa-kenya</title>
    <desc>Created with Sketch.</desc>
    <defs></defs>
    <g id="scheme12" stroke="none" stroke-width="1" fill="none" fill-rule="evenodd" stroke-opacity="0.3" fill-opacity="0.6">
        <g id="scheme-full" transform="translate(-1763.000000, -336.000000)" stroke="#0E141A" fill-rule="nonzero" fill="#14212C">
            <g id="1-africa" transform="translate(1162.000000, 13.000000)">
                <path d="M606.197476,375.850834 C606.210448,375.516225 606.542319,374.823654 606.174632,374.189097 C606.174632,374.189097 606.356811,372.926256 605.222755,373.932707 C604.253659,374.79284 601.881659,370.986071 602.004604,368.666203 C602.923879,366.983095 602.314779,366.217784 604.027284,364.639968 C605.298175,363.468964 606.307908,359.60692 608.371112,358.663637 C609.35008,358.216088 609.205668,358.063206 609.151715,357.184128 C609.069063,355.827037 610.625677,355.174141 610.966617,353.966283 C611.371842,352.531077 611.488129,351.125019 611.628178,349.68515 C611.753304,348.389851 610.470704,347.473138 610.203233,346.020771 C609.603087,342.762318 607.628391,342.054427 607.333368,340.619222 C607.101483,339.480151 606.477001,338.513632 606.100475,337.429358 C605.849074,336.952511 605.707877,336.445351 605.675735,335.905546 C605.675735,335.179199 606.477001,334.766475 606.261187,333.986497 C606.06948,333.298625 605.327907,333.117913 604.75623,332.901058 C603.459051,332.41022 604.408402,331.40989 603.035459,331.552128 C603.59669,330.24517 601.99542,328.988345 602.14913,328.075456 C602.303299,327.159933 603.401654,326.443216 604.014657,325.79032 C606.15328,323.511013 608.77404,324.165075 611.57962,324.165075 C613.18904,324.165075 614.801904,324.029832 616.411324,324.012344 C617.199963,324.004183 618.020744,323.964543 618.803643,324.090459 C619.480931,324.198886 619.68871,325.404412 620.501455,325.723865 C623.005125,326.71137 625.799225,325.505844 628.354553,326.710204 C631.025823,327.970527 633.884208,330.290639 635.967729,332.363584 C637.029579,333.419877 637.87332,334.16138 639.404679,334.3316 C640.399948,334.442359 642.667141,333.815112 643.448893,334.322273 C645.634581,335.742322 648.987731,334.480833 650.891025,336.338089 C651.153905,335.017141 652.943553,333.094595 653.749411,331.95669 C655.182047,329.932712 658.245914,329.122422 660.362726,328.11976 C662.621884,327.050643 663.017925,329.56779 664.705406,330.569286 C665.863683,331.257159 667.118388,330.808293 668.322583,330.586774 C669.298337,330.406062 670.463502,331.060124 671.380711,330.545968 C669.974477,332.995495 668.679594,335.672368 666.966859,337.916699 C665.157696,340.285779 663.535649,341.604395 663.541389,344.787264 C663.554016,352.306061 663.619449,359.823693 663.612561,367.343657 C663.605673,372.978383 662.50135,378.321638 666.226434,382.925721 C667.489174,384.486842 671,387 668,388.5 C666.877522,389.061239 666.226434,391.5 664,393.5 C662.958611,395.497462 657.332849,396.021184 658,399 C658.304361,400.358963 657.413182,403.297771 657,403.5 C656.586818,403.702229 655.466311,403.772475 655,404.543576 C654.635349,405.146569 654.823336,407.370939 654.5,408 C654.391181,408.21171 653.983464,410.490648 653,412.5 C652.016536,414.509352 649.277128,417.566439 649,417.5 C647.987512,417.257496 645.361255,415.811035 644.579619,415.206768 C641.125335,412.536341 636.79184,409.631047 634.6655,406.747543 C634.10358,405.985555 633.071462,405.863359 634.248107,404.543576 C635.91148,402.678159 633.000749,400.430238 631.502909,399.478816 L602.720119,381.197225 C604.515047,379.959824 600.151016,374.590174 606.197476,375.850834 Z" id="africa-kenya"></path>
            </g>
        </g>
    </g>
</svg>