<?xml version="1.0" encoding="UTF-8"?>
<svg width="94px" height="161px" viewBox="0 0 94 161" version="1.1" xmlns="http://www.w3.org/2000/svg" xmlns:xlink="http://www.w3.org/1999/xlink">
    <!-- Generator: Sketch 44.1 (41455) - http://www.bohemiancoding.com/sketch -->
    <title>africa-tchad</title>
    <desc>Created with Sketch.</desc>
    <defs>
        <path d="M407,223.110568 C407.308165,222.329858 408.079155,222.505923 408.477346,221.873478 C408.829369,221.314008 408.932091,220.527506 409.493021,220.109351 C410.197068,219.583472 410.319411,217.588838 410.620651,216.796545 C412.245731,212.513064 415.894082,208.59793 418.800297,205.150758 C421.461828,201.993168 424.488078,199.322073 424.691213,195.054808 C424.945131,189.707986 425.050161,184.34958 425.426423,179.00855 C425.716121,174.8826 425.508369,169.453537 427.550107,165.796709 C428.725058,163.690876 427.95176,162.70746 426.529815,161.06264 C426.125854,160.595835 425.616862,160.228647 425.207129,159.766476 C424.496157,158.967232 425.426423,158.25023 425.106716,157.426662 C424.368043,155.522377 422.820062,154.047831 421.942888,152.236213 C421.200753,150.703751 421.677658,148.841166 421.511457,147.197505 C421.236763,144.480077 420.42884,141.857632 420.002949,139.163371 C419.953319,138.850624 419.436133,137.741749 419.866641,137.526301 L429.367473,133 L498.121979,172.061364 L498.827411,210.268232 C496.554838,209.560497 496.348933,209.844228 493.969022,210.220382 C492.394149,210.469294 490.355758,210.219641 489.851152,211.699515 C489.483085,212.778586 490.52069,214.831414 489.734003,215.875608 C488.993715,216.85804 487.869778,220.224141 486.31037,220.768437 C484.538941,221.38675 485.259262,224.477552 486.525047,225.698263 C483.649994,228.010277 481.776882,229.459989 484.009405,232.683395 C485.519183,234.863419 481.999638,235.785166 481.031284,237.618793 C480.366479,238.877891 480.106327,239.313779 481.116231,240.327313 C481.976093,241.190264 483.450553,240.265006 484.376317,240.2733 C485.539381,240.283725 486.512005,240.824095 485.764791,241.736263 C484.678019,243.062764 486.884111,244.640517 486.029906,246.967404 C486.328837,246.815663 486.631231,246.676664 486.941705,246.550407 C487.608819,247.62649 486.851679,248.843888 486.860913,249.969779 C486.870146,251.256676 487.024575,251.273831 487.834345,252.166389 C488.568862,252.975907 490.334175,252.535026 490.453863,254.736281 C490.507186,255.716501 489.560992,257.495941 489.844689,258.612692 C489.345277,257.764406 486.950592,256.951309 485.896021,257.5012 C485.269881,257.827673 484.400209,258.103528 483.988168,258.71744 C483.48033,259.472667 483.3738,258.993051 482.803637,259.626654 C481.890684,260.642504 479.696941,260.391217 479.383005,261.980438 C479.254891,262.634891 479.771732,263.187735 479.561902,263.863872 C478.860048,266.125534 476.827428,267.059224 475.191499,268.551608 C473.887626,269.741137 473.223167,271.41912 472.052832,272.722732 C469.979008,275.03265 468.539635,275.552749 465.610913,276.645975 C463.945437,277.267612 459.794327,277.537884 458.041133,277.369927 C457.44327,277.313169 453.768373,278.179595 455.079517,279.17112 C455.64968,279.603175 457.167422,279.892756 456.825786,280.916714 C456.433366,282.094729 455.064513,283.756924 454.155022,284.601342 C453.440587,285.262745 452.813869,286.916831 451.911304,287.140388 C450.204277,287.565492 448.133685,287.237687 446.370104,287.395219 C444.045593,287.602559 442.315483,288.180562 440.324529,289.416494 C439.23037,290.095272 437.178245,290.69065 436.66579,292.001872 C435.878642,290.866715 434.786792,290.066313 434.426689,288.6659 C433.698403,288.92884 433.354459,289.88909 433.007052,290.500685 C432.760058,290.933898 431.339267,291.050889 430.857976,291.262862 C428.47114,292.315778 427.652829,292.129288 425.112487,292.167513 C426.447869,290.480993 424.950902,289.863607 424.469611,288.282495 C423.814039,286.133804 423.248492,283.724491 421.835781,281.925614 C420.631975,280.391994 418.97227,279.321702 417.477611,278.105462 C415.993341,276.895014 415.168105,275.421626 413.968916,273.985305 C413.152913,273.00768 411.081167,271.158995 412.064525,269.73889 C413.060579,268.300252 413.541871,267.27861 415.403557,267.365485 C417.483382,267.462784 419.522812,268.310677 421.586479,267.606416 C422.493661,267.297144 423.296968,267.753523 424.108354,268.08017 C424.860876,268.381335 425.913485,267.68634 426.612916,267.481317 C422.484428,265.179728 420.556953,259.62904 420.775093,255.097678 C420.824722,254.062137 421.345256,253.233935 421.450286,252.24936 C421.558778,251.227718 421.297935,250.199127 421.271388,249.179802 C421.251767,248.409517 421.408735,247.145785 420.958607,246.464691 C420.604275,245.929546 419.626687,246.326851 419.687859,245.423358 C419.768651,244.231443 419.290822,242.629481 419.048445,241.460733 C418.87301,240.617473 417.680169,240.487914 417.079421,240.11476 C415.162334,238.924004 417.599608,237.123829 413.810794,236.552915 C412.90465,236.416372 413.170572,237.129019 412.194716,236.377927 C410.840521,234.775513 409.04093,231.648653 408.572796,230.788007 C407.314282,228.473572 407.498604,225.619497 407,223.110568" id="path-1"></path>
    </defs>
    <g id="scheme12" stroke="none" stroke-width="1" fill="none" fill-rule="evenodd">
        <g id="scheme-full" transform="translate(-1568.000000, -145.000000)" fill-rule="nonzero">
            <g id="1-africa" transform="translate(1162.000000, 13.000000)">
                <g id="africa-tchad">
                    <use fill-opacity="0.35" fill="#005DC7" fill-rule="evenodd" style="mix-blend-mode: multiply;" xlink:href="#path-1"></use>
                    <use stroke-opacity="0.2" stroke="#0E141A" stroke-width="1" xlink:href="#path-1"></use>
                </g>
            </g>
        </g>
    </g>
</svg>