<svg xmlns="http://www.w3.org/2000/svg" width="213.7" height="551.13" viewBox="0 0 213.7 551.13"><title>ardi-body</title><path d="M180.2,283.7c1.7,15.4,3,30.5.4,45.8-.6,3.5-5.9,23.1-2.1,25.6,3.6,2.4,4.3-3.5,5.2-5.4,2.3-4.5-1.3-5.4,2.7-4.2,5,1.5,6.2,14.2,5.6,18.3-1.1,8.4-9.6,11-12.6,15.3-1.4,2-2.5,2.7-3.6,5.2,1.1-2.5,1.1,8-.4,4.3,2.1,5.4.1,2.5,4.6,4.3-.6-.2,7.1.9,7,.9,12-3.9,19.7-36.5,18.5-46.2-1.2-9.5-5.1-18.1-5-27.9.1-10.8,2.7-22.1,4.2-32.8,2.6-18.7,5.6-37.3,6.6-56.2.4-7.9,1.3-16.2.8-24.2-.6-10.6-5.7-19.5-7.3-29.7-1.8-11.3.6-22.3-.9-33.7-1.3-10.3.5-18.4.2-28.6s-1.5-23.8-6.9-32.7c-5-8.3-13.1-9-21.9-10.4-5.4-.9-20.2-1.8-23.8-6.5s3.7-20.5,3.7-27.3c0-19.5-9.3-35.7-30.5-37.2C98.1-1.3,85.3,20.2,88.4,44.1c.6,4.4,6.4,16.2,4.3,19.9-5.2,9.1-29.2,4.4-37.6,9.7-14.6,9.2-13.7,33.8-13.8,49-.2,17.5-.5,35.8-3.4,53.2s-11.4,32.2-14,49.9c-2.4,16.8-2.9,33.8-5.3,50.5-2.4,16.5-4.2,34.6-11.7,49.4C4.6,330.3-1.8,341.8-.2,347c2.6,8.1,9.3-4.8,10-8.7,0,8.1-.1,15.9-.9,24-.5,5.2-4.4,22.2-.5,26.5,6.1,6.8,6.3-8.7,7-13.2.6-3.5,5.5-17.6,5.1-19,3.7,11.2-1.2,25.4,1.1,36.9,1.8,9.5,6.8,6.3,7.7-1.6.7-6.2.6-13,1-19.3.2-3.1-2.3-13.4-.1-15.6,3.7-3.8,5.6,15.7,6,18.3.5,3.5-.2,16.2,3.3,18.2,6.4,3.7,4.6-12.2,4.5-15.6a86.82,86.82,0,0,0-.3-11.4c-.5-3.5-3.5-9-2.5-12.4,1.3-4.6,6.8,10.2,8.2,13.1,3,6.3,9.7,14.4,7.4,1.8-1.2-6.8-5.7-13.1-7.5-19.7C45,333.2,37,317.2,41.8,300.5c4.2-14.8,10.4-29.3,15.8-43.7A189.39,189.39,0,0,0,68.5,200c.2-5.1-4-41.9.8-44.3" transform="translate(0.95 0.19)" fill="#121212" stroke="#666" stroke-miterlimit="10"/><path d="M109.6,2.2" transform="translate(0.95 0.19)" fill="none" stroke="#666" stroke-miterlimit="10"/><path d="M70.8,119.4c10.4,12.1-6.1,31.4,6.1,44.1,7.2,7.4,17.3,5,24.8.1,4.2-2.7,10.1-11.4,14.9-12.1" transform="translate(0.95 0.19)" fill="none" stroke="#666" stroke-miterlimit="10"/><path d="M176,119.4c-10.6,12.3,6.4,33.5-5.2,46.3-7.2,7.9-21,4-28.3-1.3-4.1-3-8.7-11.1-13.7-11.8" transform="translate(0.95 0.19)" fill="none" stroke="#666" stroke-miterlimit="10"/><path d="M79.7,160.7c.4,2.2,5,3.9,5.5,0" transform="translate(0.95 0.19)" fill="none" stroke="#666" stroke-miterlimit="10"/><path d="M174.3,141.9c6.9,23.8,4,48.5,6.4,72.9,1.2,12.7,3.2,25.6,3.8,38.3.7,15.4-5.2,29.8-5.5,45.1a638.65,638.65,0,0,1-6,78.2c-3,20.3.2,38.1,2.1,58.2,1.4,14.2-.3,25.8-1.6,39.8-.9,9.7-3.2,20.8-2.4,30.5.6,7.7,4.9,10.1,9.6,15.5,4.1,4.7,9.1,9.3,13.1,14.3,1.9,2.4,8.4,6.7,1.7,8.4,1.5,3.1-4.9,5.5-5.9,2.5-.8,1.2,1,2.7-4.4,4.2-2.2.6-2.3-2.2-4.2-4.9-3,11.7-8.7-2.2-13.2-5a39.58,39.58,0,0,0-6.5-2.5c-1.7-.5-.9-2.5-4.4-1.7-4.6,1.1-1.4,1.8-3.4,4.8-5.8,8.9-9.5,2.8-10.4-11.7-.3-5,1.6-9.6,1.5-14.5,0-5.1-1.6-9.6-2-14.8-1.8-24.8-9.2-49.3-7.6-74.3.6-9.7,3.4-19.3.9-28.6-3-11.2-2.6-21-2.6-32.6,0-18.1-5-35.3-6.2-53.1-.4-6.7-2.9-17.9-5.9-7.4s-1.8,23.8-2.8,34.6c-1.2,14.2-.3,28.5-1.7,42.6-.7,7.4-3.6,14.2-4.6,21.4-1,7.8,1.5,15.6,2,23.3,1.4,21.2-4.6,42-6.8,62.9-.6,5.2-.1,10.6-.8,15.8-1.3,9.5-4.1,10.2,3,17.4,4.2,4.2,10.7,9.2,13.1,14.7,3.2,7.2,0,10.3-7.4,6.1-4.5-2.6-5.4-5.5-11.2-6.5-7.8-1.4-10.2.7-16.2,3.8-1.6.8-3.2-.7-4.8.3-1.8,1.1-4.9,4.6-6.5,6.1-3.4,3,1.3,3.2-5.2,4.4-2.2.4-1.8-2.7-1.8-3.8,0,.9-5.4,3.5-6.1,3.6-4.1.5-1.4-2.2-2-3.5-.2-.4-5.1,1.8-5.9,1.5-1.7-.6-.7-2.7-1.8-3.6-2.7-2.3-5.7-2.4-1.2-7.7,3.6-4.3,8.9-7,12.7-12,3.2-4.2,6.8-8.2,9.7-12.7,5.2-7.9,2.6-18.1,1.6-28.1-1.2-12.3-2.7-24.2-2.7-36.7,0-24.1,5.9-45.6,2.2-69.7-3.3-21.6-7.9-43.1-7.6-65.1.3-32.7-3.3-65.1-1.3-97.8" transform="translate(0.95 0.19)" fill="#121212" stroke="#666" stroke-miterlimit="10"/><path d="M160,162.4c0,2.6,5.8,4.7,6.4,0" transform="translate(0.95 0.19)" fill="none" stroke="#666" stroke-miterlimit="10"/><path d="M178.6,351.8s3.2,0,3.9,2.2" transform="translate(0.95 0.19)" fill="none" stroke="#666" stroke-miterlimit="10"/><path d="M191.2,369.6c4,9.3-8.5,14.4-8.1,22.2" transform="translate(0.95 0.19)" fill="none" stroke="#666" stroke-miterlimit="10"/><path d="M177.9,386.1c5.1.2,8.1-5,10.6-8.7" transform="translate(0.95 0.19)" fill="none" stroke="#666" stroke-miterlimit="10"/><path d="M176.3,385.4c.9-.8,5.6-3,6.5-1.1" transform="translate(0.95 0.19)" fill="none" stroke="#666" stroke-miterlimit="10"/><path d="M176.3,392.2c.3-.2,6.3-2.5,6.5-1.1" transform="translate(0.95 0.19)" fill="none" stroke="#666" stroke-miterlimit="10"/><path d="M184.6,393.6c.2-.3,5.6-5.3,5.8-3.2" transform="translate(0.95 0.19)" fill="none" stroke="#666" stroke-miterlimit="10"/><path d="M192.1,359.7a5,5,0,0,0,5.7-1" transform="translate(0.95 0.19)" fill="none" stroke="#666" stroke-miterlimit="10"/><path d="M197.7,341.5c4.8,9.7,5.9,18.7,2.8,29.6" transform="translate(0.95 0.19)" fill="none" stroke="#666" stroke-miterlimit="10"/><path d="M66.9,175.3c-1.5,5.4-6.6,15.2-13.8,11" transform="translate(0.95 0.19)" fill="none" stroke="#666" stroke-miterlimit="10"/><path d="M23.9,324.7c-2.1,6.2-11.8,9.4-13.2,14.6" transform="translate(0.95 0.19)" fill="none" stroke="#666" stroke-miterlimit="10"/><path d="M28.2,319.2c-4,7.9,8.2,20.1,14.1,24.6" transform="translate(0.95 0.19)" fill="none" stroke="#666" stroke-miterlimit="10"/><path d="M43.8,294.7s-7.5,14-9.1,17.4" transform="translate(0.95 0.19)" fill="none" stroke="#666" stroke-miterlimit="10"/><path d="M11.2,336.4c.8,3.9,2,7.4,7.3,6.2" transform="translate(0.95 0.19)" fill="none" stroke="#666" stroke-miterlimit="10"/><path d="M12.9,351.8c1.9,2.5,4.5,2.9,6.7.6" transform="translate(0.95 0.19)" fill="none" stroke="#666" stroke-miterlimit="10"/><path d="M22.5,354c3.1,2.3,7.1,1.4,8.4-2.2" transform="translate(0.95 0.19)" fill="none" stroke="#666" stroke-miterlimit="10"/><path d="M34.8,352.9c2.6.1,5.5-.9,6.7-3.3" transform="translate(0.95 0.19)" fill="none" stroke="#666" stroke-miterlimit="10"/><path d="M43.9,348.6s3-.3,4.1-2.5" transform="translate(0.95 0.19)" fill="none" stroke="#666" stroke-miterlimit="10"/><path d="M8.6,364.6a4.9,4.9,0,0,0,8.1,2.9" transform="translate(0.95 0.19)" fill="none" stroke="#666" stroke-miterlimit="10"/><path d="M21.4,371.1c2.3,5.1,7.8,2.7,8.8-1.9" transform="translate(0.95 0.19)" fill="none" stroke="#666" stroke-miterlimit="10"/><path d="M34.9,367.1c2.6,5.2,8.8,3,8.5-2.5" transform="translate(0.95 0.19)" fill="none" stroke="#666" stroke-miterlimit="10"/><path d="M45.4,360.2c2.9,1.5,8-.2,6.8-4.5" transform="translate(0.95 0.19)" fill="none" stroke="#666" stroke-miterlimit="10"/><path d="M14.2,382.6a2.94,2.94,0,0,0-3.9-.5" transform="translate(0.95 0.19)" fill="none" stroke="#666" stroke-miterlimit="10"/><path d="M29.2,390.3a5,5,0,0,0-5-.4" transform="translate(0.95 0.19)" fill="none" stroke="#666" stroke-miterlimit="10"/><path d="M44.1,384a3.06,3.06,0,0,0-3.7-.7" transform="translate(0.95 0.19)" fill="none" stroke="#666" stroke-miterlimit="10"/><path d="M51.1,369.8s2-2,3.8-1.6" transform="translate(0.95 0.19)" fill="none" stroke="#666" stroke-miterlimit="10"/><path d="M26.7,302.4s-1.3,8.2-2.5,10.9" transform="translate(0.95 0.19)" fill="none" stroke="#666" stroke-miterlimit="10"/><path d="M30.9,302.4s-3.5,10.1-4.2,14.1" transform="translate(0.95 0.19)" fill="none" stroke="#666" stroke-miterlimit="10"/><path d="M56.1,123.7s-6.9,12.8-15,17.4" transform="translate(0.95 0.19)" fill="none" stroke="#666" stroke-miterlimit="10"/><path d="M186.8,114.3s6.9,12.8,15,17.4" transform="translate(0.95 0.19)" fill="none" stroke="#666" stroke-miterlimit="10"/><path d="M172.4,74.4c-8.5,0-16.5,7-24.4,9.4-8.8,2.6-19,.7-21.5,11.6" transform="translate(0.95 0.19)" fill="none" stroke="#666" stroke-miterlimit="10"/><path d="M71.1,73.6c8.5,0,16.5,7,24.4,9.4,8.8,2.6,19,.7,21.5,11.6" transform="translate(0.95 0.19)" fill="none" stroke="#666" stroke-miterlimit="10"/><path d="M125.5,137.5" transform="translate(0.95 0.19)" fill="none" stroke="#666" stroke-miterlimit="10"/><path d="M125.5,106.2" transform="translate(0.95 0.19)" fill="none" stroke="#666" stroke-miterlimit="10"/><path d="M117.1,137.5" transform="translate(0.95 0.19)" fill="none" stroke="#666" stroke-miterlimit="10"/><path d="M118.2,108.6" transform="translate(0.95 0.19)" fill="none" stroke="#666" stroke-miterlimit="10"/><path d="M109.6,56.5c-.6,9-1.6,16.9,9,19.2,13.9,3,19.4-4.1,17.8-17.3" transform="translate(0.95 0.19)" fill="none" stroke="#666" stroke-miterlimit="10"/><path d="M95.9,61.5s3.9,6.6,14.6,9.7" transform="translate(0.95 0.19)" fill="none" stroke="#666" stroke-miterlimit="10"/><path d="M135.5,71.2s8.3-1.7,11.8-6.6" transform="translate(0.95 0.19)" fill="none" stroke="#666" stroke-miterlimit="10"/><path d="M52.9,154.7c-.6,19.4.6,39.4-5,58.1C42.3,232,34.7,252,32.8,272" transform="translate(0.95 0.19)" fill="none" stroke="#666" stroke-miterlimit="10"/><path d="M82.6,395.1s2.8,4.5,7.2,2.8" transform="translate(0.95 0.19)" fill="none" stroke="#666" stroke-miterlimit="10"/><path d="M153.7,397.6s6.6,2.1,10.4,0" transform="translate(0.95 0.19)" fill="none" stroke="#666" stroke-miterlimit="10"/><path d="M84.3,399.8s2.8,8,1.9,9.3" transform="translate(0.95 0.19)" fill="none" stroke="#666" stroke-miterlimit="10"/><path d="M91.9,398.5a93.71,93.71,0,0,0,0,10.6" transform="translate(0.95 0.19)" fill="none" stroke="#666" stroke-miterlimit="10"/><path d="M155.1,399.8s1.4,6,0,10.5" transform="translate(0.95 0.19)" fill="none" stroke="#666" stroke-miterlimit="10"/><line x1="165.05" y1="399.99" x2="162.65" y2="410.49" fill="none" stroke="#666" stroke-miterlimit="10"/><path d="M114.8,391.4s-2.9,12-7.8,17.6" transform="translate(0.95 0.19)" fill="none" stroke="#666" stroke-miterlimit="10"/><path d="M141.3,407.3" transform="translate(0.95 0.19)" fill="none" stroke="#666" stroke-miterlimit="10"/><path d="M136.8,398.7" transform="translate(0.95 0.19)" fill="none" stroke="#666" stroke-miterlimit="10"/><path d="M164.1,228c-3.4,15.5-9.8,38.8-28.3,42.1" transform="translate(0.95 0.19)" fill="none" stroke="#666" stroke-miterlimit="10"/><path d="M88,246.4s7.7,14.5,16.1,18.2" transform="translate(0.95 0.19)" fill="none" stroke="#666" stroke-miterlimit="10"/><path d="M89.9,265.7l14.2,13.2" transform="translate(0.95 0.19)" fill="none" stroke="#666" stroke-miterlimit="10"/><path d="M108.8,286c4.5,3.9,10,13,15,13.2,6.9.3,22.9-20.9,26.9-25.4" transform="translate(0.95 0.19)" fill="none" stroke="#666" stroke-miterlimit="10"/><path d="M125,221.7a1.46,1.46,0,1,1-1.5,2.5c-.1,0-.1-.1-.2-.1" transform="translate(0.95 0.19)" fill="none" stroke="#666" stroke-miterlimit="10"/><path d="M125.3,221c-.7-2.2-4.8,0-4.2,2.3" transform="translate(0.95 0.19)" fill="none" stroke="#666" stroke-miterlimit="10"/><path d="M162.4,181.3c1.8,9.5,6.1,22.3,3.7,32.1" transform="translate(0.95 0.19)" fill="none" stroke="#666" stroke-miterlimit="10"/><path d="M85.9,181.3c-1.8,9.5-6.1,22.3-3.7,32.1" transform="translate(0.95 0.19)" fill="none" stroke="#666" stroke-miterlimit="10"/><path d="M183.2,319.2" transform="translate(0.95 0.19)" fill="none" stroke="#666" stroke-miterlimit="10"/><path d="M185.9,279" transform="translate(0.95 0.19)" fill="none" stroke="#666" stroke-miterlimit="10"/><path d="M179.2,183.1c2.1,5.8,8.5,7.4,12.9,2.8" transform="translate(0.95 0.19)" fill="none" stroke="#666" stroke-miterlimit="10"/><path d="M188.4,152.9c.3,11.5,5.3,24.4,3.1,35.8-3,15.3-11.1,27.9-9.1,44.4" transform="translate(0.95 0.19)" fill="none" stroke="#666" stroke-miterlimit="10"/><path d="M66.4,526.9c3.6.4,31.9,1.2,23.4,11.7" transform="translate(0.95 0.19)" fill="none" stroke="#666" stroke-miterlimit="10"/><path d="M113.5,540" transform="translate(0.95 0.19)" fill="none" stroke="#666" stroke-miterlimit="10"/><path d="M112.7,540.8c4.3-6.1,2.7-8.5-4.6-12.1-6.5-3.3-16.4-5.7-21.6,1.1" transform="translate(0.95 0.19)" fill="none" stroke="#666" stroke-miterlimit="10"/><path d="M118.7,537.7a5.75,5.75,0,0,0,4.6,1.8" transform="translate(0.95 0.19)" fill="none" stroke="#666" stroke-miterlimit="10"/><path d="M67.1,531c-1.5,1.1-16.8,11.3-12.7,14.4" transform="translate(0.95 0.19)" fill="none" stroke="#666" stroke-miterlimit="10"/><path d="M73.5,532.3c-4.5,2.8-14.1,8.4-13.2,14.6" transform="translate(0.95 0.19)" fill="none" stroke="#666" stroke-miterlimit="10"/><path d="M78,534.8c-3.4,3.5-8.2,6.6-8.7,11.8" transform="translate(0.95 0.19)" fill="none" stroke="#666" stroke-miterlimit="10"/><path d="M167.6,535c4.1-4.1,12.1,6.3,13.2,10.3" transform="translate(0.95 0.19)" fill="none" stroke="#666" stroke-miterlimit="10"/><path d="M175.3,532.3c5.2-.1,12.7,9,14.3,13.6" transform="translate(0.95 0.19)" fill="none" stroke="#666" stroke-miterlimit="10"/><path d="M182.2,529.9c3.5,2,12.1,9.2,13.3,13.3" transform="translate(0.95 0.19)" fill="none" stroke="#666" stroke-miterlimit="10"/><path d="M145.3,538.2c-.4-.4,2.8-4.2,7.5-1.8" transform="translate(0.95 0.19)" fill="none" stroke="#666" stroke-miterlimit="10"/><path d="M145.2,526.1c6.4-7.7,10.9,0,17.3.8" transform="translate(0.95 0.19)" fill="none" stroke="#666" stroke-miterlimit="10"/><path d="M165.3,526.9c4.5-.5,11.9,2.2,8.9,8.3" transform="translate(0.95 0.19)" fill="none" stroke="#666" stroke-miterlimit="10"/><line x1="154.85" y1="531.29" x2="154.85" y2="536.89" fill="none" stroke="#666" stroke-miterlimit="10"/><path d="M174.2,526.9a4.51,4.51,0,0,1,3.6,0" transform="translate(0.95 0.19)" fill="none" stroke="#666" stroke-miterlimit="10"/><path d="M179.6,525.8s3.7-.6,5.5.9" transform="translate(0.95 0.19)" fill="none" stroke="#666" stroke-miterlimit="10"/><path d="M177.1,540.8a1.91,1.91,0,0,0-2.7-.2l-.2.2" transform="translate(0.95 0.19)" fill="none" stroke="#666" stroke-miterlimit="10"/><path d="M183.8,539.1a2.09,2.09,0,0,0-2.3,1" transform="translate(0.95 0.19)" fill="none" stroke="#666" stroke-miterlimit="10"/><path d="M189.6,537s-2.6-.6-3.6.4" transform="translate(0.95 0.19)" fill="none" stroke="#666" stroke-miterlimit="10"/><path d="M60.7,544.1s1.4,1.9,3.2,1.6" transform="translate(0.95 0.19)" fill="none" stroke="#666" stroke-miterlimit="10"/><path d="M54,545.5c2.5-1.7,4-.4,2.5,2.6" transform="translate(0.95 0.19)" fill="none" stroke="#666" stroke-miterlimit="10"/><path d="M180.2,546.7c-.4-.8-.8-1.5-2-1.1a4.11,4.11,0,0,0-1,4" transform="translate(0.95 0.19)" fill="none" stroke="#666" stroke-miterlimit="10"/><path d="M120.2,20.4s1.9,4.9,0,4.7" transform="translate(0.95 0.19)" fill="none" stroke="#666" stroke-miterlimit="10"/><path d="M126.5,20.4s-1.7,4.9,0,4.7" transform="translate(0.95 0.19)" fill="none" stroke="#666" stroke-miterlimit="10"/><path d="M117,28.5" transform="translate(0.95 0.19)" fill="none" stroke="#666" stroke-miterlimit="10"/><path d="M113.2,23.5" transform="translate(0.95 0.19)" fill="none" stroke="#666" stroke-miterlimit="10"/><path d="M128.7,28.8" transform="translate(0.95 0.19)" fill="none" stroke="#666" stroke-miterlimit="10"/><path d="M132.1,24.3" transform="translate(0.95 0.19)" fill="none" stroke="#666" stroke-miterlimit="10"/><path d="M121,33.7c-7.9,2.8-8.7,10-10.1,17.4" transform="translate(0.95 0.19)" fill="none" stroke="#666" stroke-miterlimit="10"/><path d="M123.9,33.7c7.9,2.8,8.7,10,10.1,17.4" transform="translate(0.95 0.19)" fill="none" stroke="#666" stroke-miterlimit="10"/><path d="M119.4,40a2.89,2.89,0,0,1,2.1,3.5c0,.1-.1.3-.1.4" transform="translate(0.95 0.19)" fill="none" stroke="#666" stroke-miterlimit="10"/><path d="M125.5,40a2.89,2.89,0,0,0-2.1,3.5c0,.1.1.3.1.4" transform="translate(0.95 0.19)" fill="none" stroke="#666" stroke-miterlimit="10"/><path d="M110.9,76.2c3.2,3.3,9.7,9.2,9.3,14.3" transform="translate(0.95 0.19)" fill="none" stroke="#666" stroke-miterlimit="10"/><path d="M129.7,78.4c-2.9,4.9-5.5,10.4-5.3,16.2" transform="translate(0.95 0.19)" fill="none" stroke="#666" stroke-miterlimit="10"/><path d="M111.9,57.1c9,1.4,12.9,1.2,21.9,0" transform="translate(0.95 0.19)" fill="none" stroke="#666" stroke-miterlimit="10"/><path d="M113.7,54c7.6,1.2,11,1,18.5,0" transform="translate(0.95 0.19)" fill="none" stroke="#666" stroke-miterlimit="10"/><path d="M129,39.1c2.9,3.3,1.9,8-.7,11.1" transform="translate(0.95 0.19)" fill="none" stroke="#666" stroke-miterlimit="10"/><path d="M116.3,39.2c-2.9,3.3-1.9,8,.7,11.1" transform="translate(0.95 0.19)" fill="none" stroke="#666" stroke-miterlimit="10"/><path d="M111.4,17c3.5-2.4,7.9-1.6,11.8-.8" transform="translate(0.95 0.19)" fill="none" stroke="#666" stroke-miterlimit="10"/><path d="M134.9,17c-3.5-2.4-7.9-1.6-11.8-.8" transform="translate(0.95 0.19)" fill="none" stroke="#666" stroke-miterlimit="10"/><path d="M147.7,30.4c1.2,9.2-6.2,11.3-12.1,15.8" transform="translate(0.95 0.19)" fill="none" stroke="#666" stroke-miterlimit="10"/><path d="M97.3,29.6c-1.2,9.2,6.2,11.3,12.1,15.8" transform="translate(0.95 0.19)" fill="none" stroke="#666" stroke-miterlimit="10"/><path d="M119.4,27.8" transform="translate(0.95 0.19)" fill="none" stroke="#666" stroke-miterlimit="10"/><path d="M116.6,25.1" transform="translate(0.95 0.19)" fill="none" stroke="#666" stroke-miterlimit="10"/><path d="M126.1,27.9" transform="translate(0.95 0.19)" fill="none" stroke="#666" stroke-miterlimit="10"/><path d="M129,25.2" transform="translate(0.95 0.19)" fill="none" stroke="#666" stroke-miterlimit="10"/><path d="M104.2,26.6a6.37,6.37,0,0,0,4,7.2" transform="translate(0.95 0.19)" fill="none" stroke="#666" stroke-miterlimit="10"/><path d="M141.3,26.6a6.37,6.37,0,0,1-4,7.2" transform="translate(0.95 0.19)" fill="none" stroke="#666" stroke-miterlimit="10"/><path d="M105.7,26.9c2.6-1.2,5.7-1.4,8,.3" transform="translate(0.95 0.19)" fill="none" stroke="#666" stroke-miterlimit="10"/><path d="M140.1,26.9c-2.6-1.2-5.7-1.4-8,.3" transform="translate(0.95 0.19)" fill="none" stroke="#666" stroke-miterlimit="10"/><path d="M120.5,40.6s-.3,1.6,1.1,1.8" transform="translate(0.95 0.19)" fill="none" stroke="#666" stroke-miterlimit="10"/><path d="M124.6,40.6s.3,1.6-1.1,1.8" transform="translate(0.95 0.19)" fill="none" stroke="#666" stroke-miterlimit="10"/><path d="M112.8,28.1c0,2.7-4.2,2.7-4.1,0C108.6,25.4,112.8,25.4,112.8,28.1Z" transform="translate(0.95 0.19)" fill="#666"/><path d="M139.1,28.1c0,2.7-4.2,2.7-4.1,0A2.05,2.05,0,0,1,139.1,28.1Z" transform="translate(0.95 0.19)" fill="#666"/><path d="M113,58.9c1.2,1.6,3.8,4.2,6.1,4.2" transform="translate(0.95 0.19)" fill="none" stroke="#666" stroke-miterlimit="10"/><path d="M133.8,58.9c-1.2,1.6-3.8,4.2-6.1,4.2" transform="translate(0.95 0.19)" fill="none" stroke="#666" stroke-miterlimit="10"/><path d="M120.6,30.2s2.7-1,4.3-.1" transform="translate(0.95 0.19)" fill="none" stroke="#666" stroke-miterlimit="10"/><path d="M89.7,22.1c-4.4.6-2.3,2.6-1.2,6.2" transform="translate(0.95 0.19)" fill="none" stroke="#666" stroke-miterlimit="10"/><path d="M153.6,22.2c4.4.7,2.2,2.7,1.1,6.4" transform="translate(0.95 0.19)" fill="none" stroke="#666" stroke-miterlimit="10"/><path d="M135.8,396.7s4,9.4,7,12.8" transform="translate(0.95 0.19)" fill="none" stroke="#666" stroke-miterlimit="10"/></svg>