<svg xmlns="http://www.w3.org/2000/svg" width="213.75" height="550.972" viewBox="0 0 213.75 550.972"><title>ardi-body</title><path d="M111.737,2.75" transform="translate(-1.125 -0.514)" fill="none" stroke="#7f7f7f" stroke-miterlimit="10"/><path d="M72.9,119.913c10.425,12.089-6.145,31.418,6.127,44.072,7.206,7.431,17.313,4.955,24.84.051,4.2-2.739,10.114-11.372,14.884-12.106" transform="translate(-1.125 -0.514)" fill="none" stroke="#7f7f7f" stroke-miterlimit="10"/><path d="M178.166,119.913c-10.571,12.343,6.418,33.5-5.213,46.3-7.194,7.919-21.042,3.956-28.292-1.271-4.1-2.952-8.747-11.071-13.731-11.843" transform="translate(-1.125 -0.514)" fill="none" stroke="#7f7f7f" stroke-miterlimit="10"/><path d="M81.833,161.208c.375,2.25,4.979,3.937,5.542,0" transform="translate(-1.125 -0.514)" fill="none" stroke="#7f7f7f" stroke-miterlimit="10"/><path d="M162.167,162.874c0,2.626,5.819,4.674,6.375-.041" transform="translate(-1.125 -0.514)" fill="none" stroke="#7f7f7f" stroke-miterlimit="10"/><path d="M180.713,352.311s3.164.011,3.9,2.219" transform="translate(-1.125 -0.514)" fill="none" stroke="#7f7f7f" stroke-miterlimit="10"/><path d="M193.362,370.126c3.973,9.258-8.5,14.412-8.051,22.176" transform="translate(-1.125 -0.514)" fill="none" stroke="#7f7f7f" stroke-miterlimit="10"/><path d="M179.989,386.586c5.119.195,8.123-5.008,10.64-8.717" transform="translate(-1.125 -0.514)" fill="none" stroke="#7f7f7f" stroke-miterlimit="10"/><path d="M178.46,385.879c.923-.8,5.589-2.966,6.455-1.127" transform="translate(-1.125 -0.514)" fill="none" stroke="#7f7f7f" stroke-miterlimit="10"/><path d="M178.46,392.688c.319-.188,6.28-2.509,6.455-1.087" transform="translate(-1.125 -0.514)" fill="none" stroke="#7f7f7f" stroke-miterlimit="10"/><path d="M186.735,394.088c.176-.3,5.6-5.319,5.75-3.249" transform="translate(-1.125 -0.514)" fill="none" stroke="#7f7f7f" stroke-miterlimit="10"/><path d="M194.18,360.231a5.072,5.072,0,0,0,5.684-.992" transform="translate(-1.125 -0.514)" fill="none" stroke="#7f7f7f" stroke-miterlimit="10"/><path d="M199.865,341.983c4.753,9.706,5.876,18.72,2.789,29.582" transform="translate(-1.125 -0.514)" fill="none" stroke="#7f7f7f" stroke-miterlimit="10"/><path d="M69.068,175.863c-1.52,5.4-6.637,15.2-13.793,11.024" transform="translate(-1.125 -0.514)" fill="none" stroke="#7f7f7f" stroke-miterlimit="10"/><path d="M26,325.25c-2.067,6.164-11.812,9.375-13.153,14.594" transform="translate(-1.125 -0.514)" fill="none" stroke="#7f7f7f" stroke-miterlimit="10"/><path d="M30.278,319.69c-3.962,7.923,8.215,20.113,14.138,24.555" transform="translate(-1.125 -0.514)" fill="none" stroke="#7f7f7f" stroke-miterlimit="10"/><path d="M45.962,295.255s-7.55,14.032-9.075,17.372" transform="translate(-1.125 -0.514)" fill="none" stroke="#7f7f7f" stroke-miterlimit="10"/><path d="M13.3,336.89c.819,3.909,2,7.389,7.332,6.243" transform="translate(-1.125 -0.514)" fill="none" stroke="#7f7f7f" stroke-miterlimit="10"/><path d="M14.976,352.311c1.923,2.451,4.478,2.865,6.732.612" transform="translate(-1.125 -0.514)" fill="none" stroke="#7f7f7f" stroke-miterlimit="10"/><path d="M24.585,354.53c3.063,2.266,7.1,1.367,8.439-2.219" transform="translate(-1.125 -0.514)" fill="none" stroke="#7f7f7f" stroke-miterlimit="10"/><path d="M36.887,353.421c2.552.126,5.47-.921,6.674-3.327" transform="translate(-1.125 -0.514)" fill="none" stroke="#7f7f7f" stroke-miterlimit="10"/><path d="M46,349.118s3.037-.312,4.1-2.536" transform="translate(-1.125 -0.514)" fill="none" stroke="#7f7f7f" stroke-miterlimit="10"/><path d="M10.729,365.134c.54,3.847,4.964,5.422,8.111,2.925" transform="translate(-1.125 -0.514)" fill="none" stroke="#7f7f7f" stroke-miterlimit="10"/><path d="M23.494,371.649c2.328,5.124,7.766,2.723,8.836-1.855" transform="translate(-1.125 -0.514)" fill="none" stroke="#7f7f7f" stroke-miterlimit="10"/><path d="M37.056,367.66c2.593,5.2,8.75,3.024,8.489-2.526" transform="translate(-1.125 -0.514)" fill="none" stroke="#7f7f7f" stroke-miterlimit="10"/><path d="M47.494,360.732c2.852,1.529,8.043-.158,6.841-4.455" transform="translate(-1.125 -0.514)" fill="none" stroke="#7f7f7f" stroke-miterlimit="10"/><path d="M16.327,383.15a2.942,2.942,0,0,0-3.9-.516" transform="translate(-1.125 -0.514)" fill="none" stroke="#7f7f7f" stroke-miterlimit="10"/><path d="M31.339,390.8a5,5,0,0,0-4.989-.447" transform="translate(-1.125 -0.514)" fill="none" stroke="#7f7f7f" stroke-miterlimit="10"/><path d="M46.233,384.468a3.052,3.052,0,0,0-3.705-.7" transform="translate(-1.125 -0.514)" fill="none" stroke="#7f7f7f" stroke-miterlimit="10"/><path d="M53.187,370.339s1.99-2.012,3.759-1.583" transform="translate(-1.125 -0.514)" fill="none" stroke="#7f7f7f" stroke-miterlimit="10"/><path d="M28.844,302.889s-1.252,8.154-2.495,10.872" transform="translate(-1.125 -0.514)" fill="none" stroke="#7f7f7f" stroke-miterlimit="10"/><path d="M33.025,302.889s-3.486,10.131-4.22,14.084" transform="translate(-1.125 -0.514)" fill="none" stroke="#7f7f7f" stroke-miterlimit="10"/><path d="M58.206,124.232s-6.884,12.789-14.964,17.39" transform="translate(-1.125 -0.514)" fill="none" stroke="#7f7f7f" stroke-miterlimit="10"/><path d="M188.914,114.863s6.884,12.789,14.964,17.39" transform="translate(-1.125 -0.514)" fill="none" stroke="#7f7f7f" stroke-miterlimit="10"/><path d="M174.514,74.871c-8.459,0-16.484,6.987-24.437,9.369-8.809,2.639-19.022.663-21.459,11.629" transform="translate(-1.125 -0.514)" fill="none" stroke="#7f7f7f" stroke-miterlimit="10"/><path d="M73.234,74.073c8.459,0,16.484,6.987,24.437,9.369,8.809,2.639,19.022.663,21.459,11.629" transform="translate(-1.125 -0.514)" fill="none" stroke="#7f7f7f" stroke-miterlimit="10"/><path d="M127.64,137.976" transform="translate(-1.125 -0.514)" fill="none" stroke="#7f7f7f" stroke-miterlimit="10"/><path d="M127.64,106.715" transform="translate(-1.125 -0.514)" fill="none" stroke="#7f7f7f" stroke-miterlimit="10"/><path d="M119.241,137.976" transform="translate(-1.125 -0.514)" fill="none" stroke="#7f7f7f" stroke-miterlimit="10"/><path d="M120.319,109.141" transform="translate(-1.125 -0.514)" fill="none" stroke="#7f7f7f" stroke-miterlimit="10"/><path d="M111.737,57.023c-.592,9.039-1.567,16.908,9.037,19.191,13.926,3,19.355-4.122,17.835-17.292" transform="translate(-1.125 -0.514)" fill="none" stroke="#7f7f7f" stroke-miterlimit="10"/><path d="M98.015,62.03s3.878,6.558,14.552,9.655" transform="translate(-1.125 -0.514)" fill="none" stroke="#7f7f7f" stroke-miterlimit="10"/><path d="M137.647,71.685s8.265-1.717,11.789-6.605" transform="translate(-1.125 -0.514)" fill="none" stroke="#7f7f7f" stroke-miterlimit="10"/><path d="M55.067,155.228c-.633,19.373.616,39.357-4.969,58.114-5.7,19.157-13.281,39.195-15.21,59.2" transform="translate(-1.125 -0.514)" fill="none" stroke="#7f7f7f" stroke-miterlimit="10"/><path d="M84.748,395.66s2.762,4.488,7.25,2.762" transform="translate(-1.125 -0.514)" fill="none" stroke="#7f7f7f" stroke-miterlimit="10"/><path d="M155.868,398.088s6.56,2.082,10.357,0" transform="translate(-1.125 -0.514)" fill="none" stroke="#7f7f7f" stroke-miterlimit="10"/><path d="M86.475,400.318s2.762,8,1.9,9.265" transform="translate(-1.125 -0.514)" fill="none" stroke="#7f7f7f" stroke-miterlimit="10"/><path d="M94.07,399.013a101.894,101.894,0,0,0,0,10.57" transform="translate(-1.125 -0.514)" fill="none" stroke="#7f7f7f" stroke-miterlimit="10"/><path d="M157.249,400.318s1.381,6.044,0,10.533" transform="translate(-1.125 -0.514)" fill="none" stroke="#7f7f7f" stroke-miterlimit="10"/><line x1="165.1" y1="399.805" x2="162.683" y2="410.337" fill="none" stroke="#7f7f7f" stroke-miterlimit="10"/><path d="M116.963,391.939s-2.908,11.959-7.785,17.645" transform="translate(-1.125 -0.514)" fill="none" stroke="#7f7f7f" stroke-miterlimit="10"/><path d="M143.468,407.835" transform="translate(-1.125 -0.514)" fill="none" stroke="#7f7f7f" stroke-miterlimit="10"/><path d="M138.963,399.2" transform="translate(-1.125 -0.514)" fill="none" stroke="#7f7f7f" stroke-miterlimit="10"/><path d="M166.225,228.53c-3.386,15.488-9.817,38.83-28.277,42.087" transform="translate(-1.125 -0.514)" fill="none" stroke="#7f7f7f" stroke-miterlimit="10"/><path d="M90.144,246.922s7.7,14.469,16.1,18.2" transform="translate(-1.125 -0.514)" fill="none" stroke="#7f7f7f" stroke-miterlimit="10"/><path d="M92,266.247s12.73,11.78,14.248,13.223" transform="translate(-1.125 -0.514)" fill="none" stroke="#7f7f7f" stroke-miterlimit="10"/><path d="M110.89,286.562c4.451,3.923,9.993,13.011,14.985,13.22,6.875.288,22.859-20.924,26.886-25.361" transform="translate(-1.125 -0.514)" fill="none" stroke="#7f7f7f" stroke-miterlimit="10"/><path d="M127.083,222.167a1.459,1.459,0,1,1-1.727,2.339" transform="translate(-1.125 -0.514)" fill="none" stroke="#7f7f7f" stroke-miterlimit="10"/><path d="M127.458,221.542c-.667-2.25-4.792,0-4.167,2.333" transform="translate(-1.125 -0.514)" fill="none" stroke="#7f7f7f" stroke-miterlimit="10"/><path d="M164.481,181.819c1.818,9.548,6.1,22.263,3.727,32.068" transform="translate(-1.125 -0.514)" fill="none" stroke="#7f7f7f" stroke-miterlimit="10"/><path d="M88.056,181.819c-1.818,9.548-6.1,22.263-3.727,32.068" transform="translate(-1.125 -0.514)" fill="none" stroke="#7f7f7f" stroke-miterlimit="10"/><path d="M176.435,142.449c6.867,23.843,3.963,48.514,6.367,72.924,1.25,12.695,3.2,25.574,3.79,38.3.713,15.393-5.22,29.8-5.535,45.117a623.9,623.9,0,0,1-6.031,78.187c-2.96,20.313.177,38.1,2.12,58.245,1.366,14.161-.328,25.813-1.615,39.819-.891,9.7-3.177,20.784-2.363,30.519.644,7.7,4.915,10.071,9.642,15.5,4.111,4.717,9.086,9.287,13.086,14.276,1.9,2.37,8.438,6.74,1.657,8.4,1.461,3.132-4.9,5.5-5.9,2.467-.763,1.243.956,2.743-4.438,4.151-2.208.576-2.3-2.173-4.236-4.876-3.016,11.745-8.7-2.183-13.244-4.956a43,43,0,0,0-6.516-2.536c-1.706-.542-.934-2.529-4.409-1.678-4.584,1.123-1.4,1.839-3.364,4.844-5.836,8.946-9.461,2.8-10.37-11.711-.313-4.99,1.566-9.577,1.536-14.5-.031-5.1-1.583-9.633-1.951-14.78-1.773-24.778-9.237-49.337-7.644-74.306.616-9.659,3.386-19.341.895-28.649-2.995-11.192-2.6-20.963-2.611-32.625-.019-18.054-4.981-35.32-6.174-53.133-.448-6.682-2.87-17.869-5.906-7.41-3.009,10.367-1.843,23.788-2.793,34.623-1.242,14.168-.263,28.477-1.693,42.581-.747,7.362-3.635,14.206-4.572,21.422-1.01,7.782,1.507,15.579,2.01,23.31,1.376,21.172-4.6,42.007-6.848,62.9-.564,5.242-.114,10.606-.8,15.824-1.252,9.534-4.055,10.238,3,17.355,4.167,4.2,10.684,9.246,13.081,14.724,3.162,7.225.034,10.342-7.383,6.143-4.523-2.56-5.351-5.469-11.2-6.541-7.767-1.424-10.16.713-16.171,3.81-1.58.814-3.2-.746-4.833.262-1.8,1.108-4.9,4.6-6.526,6.051-3.385,3.029,1.329,3.246-5.234,4.449-2.236.41-1.832-2.722-1.832-3.794,0,.921-5.425,3.549-6.123,3.639-4.073.527-1.423-2.219-1.973-3.475-.189-.433-5.091,1.825-5.9,1.537-1.736-.613-.708-2.717-1.775-3.614-2.676-2.252-5.661-2.359-1.2-7.707,3.577-4.288,8.9-7.049,12.685-11.957,3.246-4.208,6.775-8.234,9.73-12.678,5.236-7.874,2.572-18.091,1.566-28.052-1.247-12.342-2.677-24.215-2.667-36.69.019-24.089,5.88-45.583,2.238-69.658-3.274-21.639-7.855-43.134-7.638-65.139.321-32.692-3.283-65.058-1.256-97.765" transform="translate(-1.125 -0.514)" fill="none" stroke="#7f7f7f" stroke-miterlimit="10"/><path d="M182.323,284.248c1.676,15.442,3,30.514.4,45.828-.6,3.514-5.857,23.1-2.054,25.65,3.555,2.386,4.274-3.477,5.237-5.35,2.317-4.506-1.344-5.367,2.676-4.186,5.037,1.48,6.163,14.23,5.6,18.321-1.148,8.374-9.55,11.028-12.614,15.317-1.449,2.029-2.534,2.735-3.6,5.181,1.093-2.5,1.071,8.015-.367,4.272,2.06,5.362.144,2.522,4.647,4.288-.594-.233,7.1.862,6.983.9,12.016-3.857,19.709-36.531,18.471-46.177-1.213-9.452-5.14-18.14-5.03-27.9.122-10.77,2.724-22.1,4.179-32.769,2.55-18.7,5.605-37.309,6.615-56.171.425-7.943,1.251-16.21.769-24.171-.644-10.621-5.718-19.511-7.337-29.734-1.787-11.282.554-22.338-.885-33.7-1.311-10.347.507-18.388.188-28.647-.318-10.22-1.457-23.757-6.852-32.712-5-8.3-13.051-8.976-21.923-10.387-5.439-.865-20.158-1.767-23.785-6.507-3.653-4.774,3.674-20.489,3.673-27.252,0-19.526-9.251-35.723-30.466-37.217C100.237-.746,87.4,20.76,90.487,44.616c.564,4.359,6.441,16.17,4.285,19.931-5.2,9.078-29.234,4.368-37.639,9.663-14.592,9.192-13.65,33.814-13.78,49.025-.15,17.525-.467,35.775-3.391,53.161C37.05,193.719,28.547,208.61,26,226.281c-2.413,16.758-2.874,33.757-5.345,50.488-2.431,16.467-4.179,34.6-11.657,49.407-2.3,4.552-8.748,16.136-7.114,21.258,2.593,8.127,9.347-4.774,9.972-8.68,0,8.078-.143,15.944-.864,23.988-.47,5.249-4.375,22.219-.507,26.526,6.141,6.839,6.28-8.724,7.022-13.23.573-3.479,5.521-17.608,5.053-19.014,3.727,11.182-1.171,25.4,1.064,36.9,1.842,9.475,6.819,6.272,7.722-1.6.709-6.183.618-13.022.989-19.28.183-3.092-2.27-13.4-.1-15.587,3.73-3.763,5.642,15.705,6.017,18.316.5,3.516-.183,16.173,3.274,18.166,6.422,3.7,4.557-12.179,4.512-15.575-.05-3.758.234-7.619-.276-11.361-.478-3.513-3.462-9.006-2.539-12.363,1.273-4.627,6.82,10.2,8.2,13.122,2.981,6.33,9.664,14.44,7.446,1.778-1.2-6.844-5.691-13.145-7.451-19.693-4.324-16.084-12.279-32.144-7.5-48.778,4.243-14.773,10.446-29.28,15.764-43.695,6.629-17.967,10.081-37.583,10.88-56.818.212-5.1-3.96-41.884.806-44.267" transform="translate(-1.125 -0.514)" fill="none" stroke="#7f7f7f" stroke-miterlimit="10"/><path d="M185.307,319.69" transform="translate(-1.125 -0.514)" fill="none" stroke="#7f7f7f" stroke-miterlimit="10"/><path d="M188.052,279.47" transform="translate(-1.125 -0.514)" fill="none" stroke="#7f7f7f" stroke-miterlimit="10"/><path d="M181.29,183.62c2.112,5.767,8.469,7.387,12.891,2.8" transform="translate(-1.125 -0.514)" fill="none" stroke="#7f7f7f" stroke-miterlimit="10"/><path d="M190.541,153.413c.295,11.546,5.27,24.4,3.069,35.774-2.952,15.259-11.134,27.856-9.056,44.359" transform="translate(-1.125 -0.514)" fill="none" stroke="#7f7f7f" stroke-miterlimit="10"/><path d="M68.573,527.419c3.6.4,31.854,1.171,23.357,11.671" transform="translate(-1.125 -0.514)" fill="none" stroke="#7f7f7f" stroke-miterlimit="10"/><path d="M115.654,540.482" transform="translate(-1.125 -0.514)" fill="none" stroke="#7f7f7f" stroke-miterlimit="10"/><path d="M114.779,541.278c4.315-6.1,2.673-8.474-4.556-12.122-6.549-3.3-16.36-5.747-21.64,1.136" transform="translate(-1.125 -0.514)" fill="none" stroke="#7f7f7f" stroke-miterlimit="10"/><path d="M120.8,538.191a5.639,5.639,0,0,0,4.576,1.769" transform="translate(-1.125 -0.514)" fill="none" stroke="#7f7f7f" stroke-miterlimit="10"/><path d="M69.208,531.558c-1.523,1.137-16.768,11.334-12.687,14.419" transform="translate(-1.125 -0.514)" fill="none" stroke="#7f7f7f" stroke-miterlimit="10"/><path d="M75.651,532.8c-4.5,2.8-14.1,8.373-13.25,14.615" transform="translate(-1.125 -0.514)" fill="none" stroke="#7f7f7f" stroke-miterlimit="10"/><path d="M80.166,535.34c-3.423,3.475-8.234,6.639-8.736,11.815" transform="translate(-1.125 -0.514)" fill="none" stroke="#7f7f7f" stroke-miterlimit="10"/><path d="M169.731,535.51c4.057-4.084,12.139,6.26,13.247,10.264" transform="translate(-1.125 -0.514)" fill="none" stroke="#7f7f7f" stroke-miterlimit="10"/><path d="M177.441,532.8c5.166-.052,12.746,8.982,14.3,13.645" transform="translate(-1.125 -0.514)" fill="none" stroke="#7f7f7f" stroke-miterlimit="10"/><path d="M184.276,530.388c3.481,2.018,12.146,9.235,13.277,13.342" transform="translate(-1.125 -0.514)" fill="none" stroke="#7f7f7f" stroke-miterlimit="10"/><path d="M147.394,538.695c-.4-.413,2.783-4.246,7.5-1.76" transform="translate(-1.125 -0.514)" fill="none" stroke="#7f7f7f" stroke-miterlimit="10"/><path d="M147.36,526.6c6.437-7.685,10.87.038,17.312.843" transform="translate(-1.125 -0.514)" fill="none" stroke="#7f7f7f" stroke-miterlimit="10"/><path d="M167.443,527.44c4.488-.471,11.934,2.238,8.912,8.312" transform="translate(-1.125 -0.514)" fill="none" stroke="#7f7f7f" stroke-miterlimit="10"/><line x1="154.891" y1="531.061" x2="154.875" y2="536.724" fill="none" stroke="#7f7f7f" stroke-miterlimit="10"/><path d="M176.355,527.4a4.414,4.414,0,0,1,3.62,0" transform="translate(-1.125 -0.514)" fill="none" stroke="#7f7f7f" stroke-miterlimit="10"/><path d="M181.711,526.322s3.693-.609,5.475.872" transform="translate(-1.125 -0.514)" fill="none" stroke="#7f7f7f" stroke-miterlimit="10"/><path d="M179.254,541.348a1.94,1.94,0,0,0-2.9,0" transform="translate(-1.125 -0.514)" fill="none" stroke="#7f7f7f" stroke-miterlimit="10"/><path d="M185.97,539.618a1.953,1.953,0,0,0-2.265,1.046" transform="translate(-1.125 -0.514)" fill="none" stroke="#7f7f7f" stroke-miterlimit="10"/><path d="M191.741,537.558s-2.611-.567-3.613.435" transform="translate(-1.125 -0.514)" fill="none" stroke="#7f7f7f" stroke-miterlimit="10"/><path d="M62.811,544.584s1.375,1.911,3.169,1.563" transform="translate(-1.125 -0.514)" fill="none" stroke="#7f7f7f" stroke-miterlimit="10"/><path d="M56.122,546.041c2.545-1.717,4-.416,2.505,2.623" transform="translate(-1.125 -0.514)" fill="none" stroke="#7f7f7f" stroke-miterlimit="10"/><path d="M182.3,547.253c-.352-.768-.781-1.478-2-1.119a4.169,4.169,0,0,0-1.039,3.957" transform="translate(-1.125 -0.514)" fill="none" stroke="#7f7f7f" stroke-miterlimit="10"/><path d="M122.33,20.944s1.881,4.924,0,4.728" transform="translate(-1.125 -0.514)" fill="none" stroke="#7f7f7f" stroke-miterlimit="10"/><path d="M128.617,20.944s-1.654,4.862,0,4.694" transform="translate(-1.125 -0.514)" fill="none" stroke="#7f7f7f" stroke-miterlimit="10"/><path d="M119.13,29.041" transform="translate(-1.125 -0.514)" fill="none" stroke="#7f7f7f" stroke-miterlimit="10"/><path d="M115.3,24.063" transform="translate(-1.125 -0.514)" fill="none" stroke="#7f7f7f" stroke-miterlimit="10"/><path d="M130.865,29.352" transform="translate(-1.125 -0.514)" fill="none" stroke="#7f7f7f" stroke-miterlimit="10"/><path d="M134.179,24.79" transform="translate(-1.125 -0.514)" fill="none" stroke="#7f7f7f" stroke-miterlimit="10"/><path d="M123.166,34.235c-7.906,2.753-8.74,9.969-10.14,17.364" transform="translate(-1.125 -0.514)" fill="none" stroke="#7f7f7f" stroke-miterlimit="10"/><path d="M126.026,34.235c7.906,2.753,8.74,9.969,10.14,17.364" transform="translate(-1.125 -0.514)" fill="none" stroke="#7f7f7f" stroke-miterlimit="10"/><path d="M121.559,40.5a2.864,2.864,0,0,1,1.969,3.855" transform="translate(-1.125 -0.514)" fill="none" stroke="#7f7f7f" stroke-miterlimit="10"/><path d="M127.616,40.5a2.864,2.864,0,0,0-1.969,3.855" transform="translate(-1.125 -0.514)" fill="none" stroke="#7f7f7f" stroke-miterlimit="10"/><path d="M113.026,76.684c3.249,3.258,9.659,9.17,9.3,14.287" transform="translate(-1.125 -0.514)" fill="none" stroke="#7f7f7f" stroke-miterlimit="10"/><path d="M131.853,78.9c-2.883,4.89-5.461,10.36-5.269,16.171" transform="translate(-1.125 -0.514)" fill="none" stroke="#7f7f7f" stroke-miterlimit="10"/><path d="M114.028,57.59c8.958,1.439,12.938,1.178,21.9,0" transform="translate(-1.125 -0.514)" fill="none" stroke="#7f7f7f" stroke-miterlimit="10"/><path d="M115.828,54.494c7.587,1.219,10.958,1,18.545,0" transform="translate(-1.125 -0.514)" fill="none" stroke="#7f7f7f" stroke-miterlimit="10"/><path d="M131.1,39.649c2.87,3.264,1.887,8.032-.747,11.143" transform="translate(-1.125 -0.514)" fill="none" stroke="#7f7f7f" stroke-miterlimit="10"/><path d="M118.383,39.76c-2.87,3.264-1.887,8.032.747,11.143" transform="translate(-1.125 -0.514)" fill="none" stroke="#7f7f7f" stroke-miterlimit="10"/><path d="M113.519,17.52c3.523-2.407,7.855-1.56,11.808-.817" transform="translate(-1.125 -0.514)" fill="none" stroke="#7f7f7f" stroke-miterlimit="10"/><path d="M137,17.52c-3.523-2.407-7.855-1.56-11.808-.817" transform="translate(-1.125 -0.514)" fill="none" stroke="#7f7f7f" stroke-miterlimit="10"/><path d="M149.8,30.949c1.189,9.152-6.174,11.3-12.148,15.782" transform="translate(-1.125 -0.514)" fill="none" stroke="#7f7f7f" stroke-miterlimit="10"/><path d="M99.472,30.079c-1.189,9.152,6.174,11.3,12.148,15.782" transform="translate(-1.125 -0.514)" fill="none" stroke="#7f7f7f" stroke-miterlimit="10"/><path d="M121.559,28.352" transform="translate(-1.125 -0.514)" fill="none" stroke="#7f7f7f" stroke-miterlimit="10"/><path d="M118.726,25.643" transform="translate(-1.125 -0.514)" fill="none" stroke="#7f7f7f" stroke-miterlimit="10"/><path d="M128.25,28.426" transform="translate(-1.125 -0.514)" fill="none" stroke="#7f7f7f" stroke-miterlimit="10"/><path d="M131.083,25.716" transform="translate(-1.125 -0.514)" fill="none" stroke="#7f7f7f" stroke-miterlimit="10"/><path d="M106.307,27.071a6.275,6.275,0,0,0,4.021,7.164" transform="translate(-1.125 -0.514)" fill="none" stroke="#7f7f7f" stroke-miterlimit="10"/><path d="M143.459,27.071a6.275,6.275,0,0,1-4.021,7.164" transform="translate(-1.125 -0.514)" fill="none" stroke="#7f7f7f" stroke-miterlimit="10"/><path d="M107.8,27.375c2.582-1.206,5.676-1.4,8.029.344" transform="translate(-1.125 -0.514)" fill="none" stroke="#7f7f7f" stroke-miterlimit="10"/><path d="M142.208,27.375c-2.582-1.206-5.676-1.4-8.029.344" transform="translate(-1.125 -0.514)" fill="none" stroke="#7f7f7f" stroke-miterlimit="10"/><path d="M122.641,41.161s-.254,1.593,1.069,1.756" transform="translate(-1.125 -0.514)" fill="none" stroke="#7f7f7f" stroke-miterlimit="10"/><path d="M126.7,41.161s.254,1.593-1.069,1.756" transform="translate(-1.125 -0.514)" fill="none" stroke="#7f7f7f" stroke-miterlimit="10"/><path d="M113.888,28.579c0,2.682-4.182,2.682-4.148,0C109.706,25.9,113.888,25.9,113.888,28.579Z" transform="translate(-1.125 -0.514)" fill="#7f7f7f"/><path d="M140.268,28.579c0,2.682-4.182,2.682-4.148,0C136.085,25.9,140.268,25.9,140.268,28.579Z" transform="translate(-1.125 -0.514)" fill="#7f7f7f"/><path d="M115.163,59.392c1.236,1.638,3.835,4.216,6.082,4.216" transform="translate(-1.125 -0.514)" fill="none" stroke="#7f7f7f" stroke-miterlimit="10"/><path d="M135.88,59.392c-1.236,1.638-3.835,4.216-6.082,4.216" transform="translate(-1.125 -0.514)" fill="none" stroke="#7f7f7f" stroke-miterlimit="10"/><path d="M122.748,30.75s2.736-1.015,4.324-.1" transform="translate(-1.125 -0.514)" fill="none" stroke="#7f7f7f" stroke-miterlimit="10"/><path d="M91.864,22.579c-4.385.619-2.318,2.623-1.163,6.177" transform="translate(-1.125 -0.514)" fill="none" stroke="#7f7f7f" stroke-miterlimit="10"/><path d="M155.7,22.674c4.43.69,2.234,2.732,1.055,6.357" transform="translate(-1.125 -0.514)" fill="none" stroke="#7f7f7f" stroke-miterlimit="10"/><path d="M137.93,397.239s4.043,9.37,7,12.768" transform="translate(-1.125 -0.514)" fill="none" stroke="#7f7f7f" stroke-miterlimit="10"/></svg>