<svg xmlns="http://www.w3.org/2000/svg" width="266.9" height="772.95" viewBox="0 0 266.9 772.95"><title>ardi-modern-woman</title><path d="M109.47,135.92c-7.6,4.6-12.3,6.7-17.3,11.4-2.4,2.3-6.3,9.3-7.8,11.5-13.6,19.8-5.6,60.4-12.8,94.7-6.3,24.6-6.6,58.6,4.1,90.1,3.3,11.2,1,23.4,7,32.1-4,12.5-7.3,29.1-3.4,41-.9.5-2.7,4.8-2.4,9,.3,3.8,2.7,8.2,1.6,5-4.5,5.8-2.8,45.3-3.1,62.6-.4,22.4-4.4,31.4-6.9,44.6-.5,2.6-.6,6.5-1.2,9.5-1.1,5.9,1.2,11.5-6.5,21.6-15.7,15.2-16.2,97.6-23.4,117.7-8.8,24.8-12.6,28-30.1,45.5-8.8,6.3-5.5,14.3-5.7,17.3-.5,7.6,3.5,8.8,3.5,8.8-.8.5-1.4,2.9-2.5,5.9-2.2,5.7,7.7,9.7,12.9,7,6.5-3.3,6.4-7.4,13.5-9.1,10.2-5.7,11.3-20.5,15.4-25.5,19.5-6.7,22.1-7.2,14.8-29.9,9.9-19.5,8.7-25.9,16.5-43,13.4-30.2,43.5-62.5,30.7-94.7,5-8.4,11-16.6,15.1-26,6.5-14.8,11-35.7,19.3-64.8,4.3-15.2,24.3-57.1,26-70-1.4,36.1,2.5,55.8,4.1,70-.6,9.2-5.3,24.5-2.8,42.7,3.6,7.4,4.4,13.7,2,18.4s0,7.6,0,5.4-7.2,17.5-6.1,30.5c.8,10.2,3,17.6,3.4,26.1.6,23.4,0,26.5,3.6,74-4.8,15-15.8,31.9-8.6,35.8,5.9,3.3,15.9,8.4,22.5,12.2,0,0,3.6,12.3,6,18.5s11.2,7.2,11.2,7.2,9.9,6.6,14.3,6.7,2.2-6.2,8.3-5.6a30.48,30.48,0,0,0,.7-9.2c2.2-4.1-1.3-10.7.6-14.2,0,0-6.1-9.1-16.3-13.6-5.6-7.7-8.1-16.9-14.4-21.2.9-15,.8-12,3.3-25.3,8-42.9,28.5-102.7,15.4-126.8,2-5.2,4-12.1,5-27.1,8.2-20.1,14.4-40.1,21.6-64.7,1,.6.4,2.9,2.7.9s15.3-20.9,19.1-29c1.3-3.7,6.1-8.9,4-13.5-16.3-28.4-6.2-41.3-8.8-93.6-.9-16.7.8-30.9-5.7-47-9-16.2-9.5-48.8-9.5-80.3-.6-20.9-5.7-32.9-30.7-41.5-6.8-2.8-3-6.1-6.2-12.5-9.7-29.1,10-56.9,4.7-67-3.2-14.5-.8-22.5-5.5-31-8.8-15.8-22-25.5-23.9-22.5-8.9-1-8.6-10.1-23.7-10.1-17.7-.6-24.1,17-27.6,21.7-6.6,10-13.9,19-16.6,31.6-2.7,12.9-1.8,28-1.2,42.5.7,15.5-3.8,27.9-5.7,39.8Zm101.7,103.5,4.4-1.5s.9,14.2,8.7,50.9C204.67,271.92,211.17,239.42,211.17,239.42Zm-103.5-3.1c-2.4-.4,5,14.8,8.4,35-2.5,12.9-14.6,26.2-16.6,43.1,0,0-3.2-48.3,2.8-60.5,2.1-15.9,5.4-17.6,5.4-17.6Z" transform="translate(0 0)" fill="#212230"/><path d="M182.37,95.82a7.53,7.53,0,0,1-7-.2m11.1,32.7c-1.3-7.3-.6-16.1-1.7-23.4m-40-42.8c-1.9,3.8.3,8,5.4,14.8-6.3-3.5-9-2.9-12-9.5m-2.7,6.8c-.2,6.1,6.2,10.4,10.1,9.2m34.6,31.5c-2.5,4-1.4,8.6-4.5,13.2m1.4,17.8c6.2,0,19.7.7,26.2.6,1.8,0,3.2-.9,2.3-5.3m-35,6.9c-6.1,2.2-8.2-4.6-11.9-3.4m-11.4-.8c-21.4,1.4-35.3-4.4-39.6-8.1m61,2c-5,7.3-10.1-17.6-13.9-22.8m-72.7,261.5c-5.1-11.3-3.6-21.5-6.7-32.7-10.3-31.5-10-65.6-4-90.2,7.7-34.5-.7-75,12.3-94.8,1.5-2.2,5.2-9.2,7.5-11.5,4.7-4.7,9.3-6.9,16.5-11.5,8.5-5.4,16.3-11.2,26.3-15.2,6.9-2.7,11-11.5,9.8-28.9-.2-2.6-.3-4.8-.4-8.3m-43.6,232.1c3.7-25.8,15-31.1,16.3-42.9,1.8-16.4-12.9-28.6-8-51m-7.7,35.4c-4.5,19.8-1.5,56.4.8,75.5.2,1.4-.1,4.8,0,6,.8,14-.2,4.4.9,26.2.5,9.3,7.1,12.2,8.9,22.4a65.5,65.5,0,0,1,.6,11.8c-.1,2.3,2.6,9.5,2.8,15.9.2,5.8.7,11.8-1.6,12.6-3.9,1.2-5-2.9-9.3-19-1-3.9-.1-7.6-1.7-11.5m1.7,11.4a33.47,33.47,0,0,0-4.3,14.5c-.4,4.5.8,8.6,2.3,12.8,1,2.8,2.1,5,2.5,7.2.7,4-3.3,4.3-4.7,2.2-4.8-7.3-7.7-16.6-7.8-23-.1-4.1-.5-8.4-2.3-12.1m8.6,32.8c3,5.8-1.8,12.1-5,5.8-1.3-2.7.2-2.8-1-5.8-1.9-4.7-6.2-12.3-5.3-16.5,1.3-6.1,1.7-10.1-2.3-12.9m8,32.3c.5,3.1-3.3.4-4.2-1s-1.4-2.8-2.1-3.9c-1-1.5-2.1-2.9-2.9-7.7-.4-2.4-.9-11.4-1.9-16.8m2.1,17.8c-4,0-6.4-4.4-6.6-8.2-.3-4.2,1.5-8.5,2.3-9-3.6-12.1-1.8-29.1,4.8-44.5m23.1-136.7c-3.8,4.7-.3,13.9-9.3,25.8-1.5,1.9-1.4,5.7-4.2,10.8m60.5-46.8c-28.2,33-61.9-4-39.2-31.8m6.7,21.8c1.5-.3,5.4,8,4.1,8.2-2.7.5-6.3-5.4-4-6.6m95.1,7.7c-5.7,2.7-7.8-3.8-3.9-5.4.1,0,.4-.1.5.1m-30.1,7.9c12.9,15,30.4,14,35.9,7.2.7-.9,2.6-4.9,3.2-5.9,4.9-7.9,5.2-18.9-2-33-1.5-3-.6-8-.1-11.2m-4.3,52.8c-.3,18.7,6.4,31.5,8.6,52.7m-3.7,35.2c-1.9,5.3-4.1,10.3-7.2,14.3m-81.7-61c.4-6.5-1.7-11.9-5.5-14.5m53.6,52.3c.8-1.3,2.3-2.1,3.3-.7,1.2,1.7-2.1,4.3-3.9,3.5a2.38,2.38,0,0,1-.9-3.6M134,344.62a38.08,38.08,0,0,1-3.8-11.2m18.3,43.1-1.8-1.9m6.4,6.4c9.6,7.7,13.6,17.5,13.7,26.2,11.9-9.2,20-22.2,26.8-33.3,5.2-8.4,10.7-12.8,17.7-21m45,53.6c-2.6,1.9-2.2,12.8-5.8,19.8-1.5,2.9-4.4,3.3-6.9,6-.3,3.3-4.9,15.2-1.5,17,3.1-2.6,6-8.6,9-11.5,7.1-7,8.7-15.9,13.7-23.8,2.5-3.3,1.8-7.4-.8-10.9-14.3-18.6-5-59.9-7-94.9-1-16.5-.6-31.4-7.5-47.2-8.2-16.3-7.5-46.6-7.3-76-.9-24.2-11.3-35.8-31.6-41.9-9.7-4.4-18.9-10.7-24.6-20.2m25.4,115.8c-5.7,34.4,6.6,41.9,18.3,58.3,7.8,10.8,9.9,25.6,9.9,42.5,0,28.3,10.3,48.3,8.5,64.9-4.9,45.9-25,104.3-35.3,121.3m-8.9,26.8c10.8-6.7,14.3-18.1,14.7-38m-3,28.7c-2.8,7.1-4.6,10.9-7.4,14.4m-32.5-.2c1-9.9-.6-15.3-4.4-20.8m29.4,22.7c-6.3.7-8.3-3.9-6.9-10.5a19.12,19.12,0,0,0,0-7.9m20.5-.7c12.5,24.2-7.5,83-15.2,125.9-2.4,13.3-4.8,19.6-2.9,33.9M173,673.42c-12.5,22.5-16.2,34.5-9.3,38.4,5.7,3.3,14.4,7.9,20.7,11.6m11.1-32.4c6.1,5,8.9,16.6,13.6,20.9,6,5.5,13.5,7.8,16,13.5,1,2.2,1.1,3.9-.4,5.2m-.3,9.4c3.8,1.6,2-8.2.4-9.5l-5.3-4.1m0,0-2.1,3.7c2.4,4.8,4.8,6.5,7,9.9,1.9,3,1.7,4.9.2,6.7m-206.8-23.1c-6.9,3.5-12.5,9.5-16.3,15.4-.3,1.3-1.6,4.4-.6,7.3m57.7-39.6c6.7,22.3,4.3,22.9-14.8,29.9M86.67,566c5.6-5.3,8.1-10.9,8.1-17.5m11.6,20.8c12.2,32.2-18.7,64.9-31.6,95.1-7.5,17.2-12.8,36.4-22.2,55.9m49.5-141.5a63.11,63.11,0,0,1,4.3-9.5c4.6-8.1,10.6-17.7,14.3-25.6,7.4-15.7,11.5-33.6,19.5-64.9,1.7-6.6,24.9-58.7,26.6-71.6-1.8,38.9,4.3,58.5,3.4,73-.5,9.2-5.9,33.1-1.1,44.1,2.4,5.6,3.1,11.5,1.9,12.7-2.1,2.1-1.1,8.5-2.1,10.3-3.2,5.7-5.7,22-4.6,35,.8,10.2,2.3,11,2.7,19.5.6,23.4.8,48.6,5.1,97.2.1.9,1.5,3.3.9,6.4M66.27,572.32a111.86,111.86,0,0,1,1.4-24.3c.5-3,.2-7.1.7-9.7,2.4-13.2,6.7-22,7.1-44.4.3-17.4-1.4-56.8,2.9-62.7m-12.9,130.1c-22,22.4-21.2,105.4-28.1,125.6-8.4,24.8-17,27.1-23.8,46.8M73.77,567c-1.4-.6-2.5-3.7-2.4-5.8m34.5-424.3c1.8-11.9,6.5-24.8,5.8-40.3-.6-14.5-1.7-29.2.9-42.1,2.6-12.6,9.4-21.1,15.7-31.1,7.3-11.6,13-23.5,30-22.9a24.85,24.85,0,0,1,23.2,21.6c1.2,8.3-7,17.2-16.2,17.2-10.6.1-10.5,10-13.4,15.5-4.1,8.4-14.1,8.5-16,17.1-3.5,15.9,4.6,33.9-3.9,49.6m75.7,616.2c3.2,7.2,13.7,9.2,13.4,12.1-1.2,10.3-11.8,4-18.7-1.3-7.4,1.4-12-6.6-15.8-18-2.6-7.7-4.4-15.7-9.3-18.1m35.2,21.6a62.84,62.84,0,0,0,12.1,12.8c1.3,1,1,4.3-3.5,3m-215-9.6.2,2.3-5.5,3.8c-.1,2.4.7,6.5.8,7.7m6.5-9.6,1.4,3.1c-2.6,2.1-5.1,4.7-7.9,6.4-1.8,3,3.1,3.1,3.8,5.3m6-10.3,1.1,3a51.6,51.6,0,0,1-9.6,7.4,6.42,6.42,0,0,1-.1,4.1c-3.6,7.2,7.2,11.2,13.1,7.8,4.9-2.8,6.5-7.6,13.3-9.4,7.6-1.9,15.4-30.7,19.4-35.7m-32.3,28.4c-.9,4-2.4,4.6-7.4,6.9-1.4.6-4.6.1-6.1,1.9M110,190.62l3.1-6.1m-3.4,17c-.1-5.7.7-10.9.1-17.8m74.6-110.6a31,31,0,0,1,.4-10.8m-11.1,12.6c-1.9,2.9,1.9,6.4,5.4,4,3,3.5,9,3,9.8-.7M190,59c.3-2.4,6-3,8.5-2.4M177,57.92c-2.2-1.8-13-3.8-14.4-1.4m25.9,33.3-2.8-2.1c-2,.7-4.6,1.9-6.7-.5-1.4,1.7-4.5,2.2-7.7,1.8-.4-.1-.8.3-1.3.5m17.7-.3c-3.4.8-6.9,1.5-10.4-.7m20.2-25.3c-8-.2-9.4.5-11.2,3.8m-12.9-.5c-.6-4.6-5.9-5.1-12.2-3.1m-16.4,10.8c.9,15.1,1.6,15.9,11.1,23.6,6.6,5.4,14.9,10.6,26.9,9.3,3.3-3.5,8.7-9.9,11.8-16.5,3.7-7.9,7.7-15.9,4.7-26.2.5-2.7,1.5-5.4.1-7.8.6-5.3-1.1-14.9-2.8-16.7-10.4-10.8-12.3-9.9-14-17.2-.5-2.2-1.8-8.4-4-12.3,1.8-2.9,19.6,7.4,27.6,25.1,3.6,8,1.5,17.7,4.6,29.6,3.9,14.9-16.4,35.7-4.6,67,1.1,3.1,1.3,7.9,1.5,9.6" transform="translate(0 0)" fill="none" stroke="#0d1419"/></svg>