<?xml version="1.0" encoding="UTF-8" standalone="no"?>
<svg width="272px" height="740px" viewBox="0 0 272 740" version="1.1" xmlns="http://www.w3.org/2000/svg" xmlns:xlink="http://www.w3.org/1999/xlink">
    <!-- Generator: Sketch 43.2 (39069) - http://www.bohemiancoding.com/sketch -->
    <title>modern-woman</title>
    <desc>Created with Sketch.</desc>
    <defs></defs>
    <g id="log-scale" stroke="none" stroke-width="1" fill="none" fill-rule="evenodd">
        <g id="scheme7" transform="translate(-2971.000000, 0.000000)">
            <g id="ardi-skeleton" transform="translate(2971.000000, -33.000000)">
                <g id="woman" transform="translate(136.000000, 386.500000) scale(-1, 1) translate(-136.000000, -386.500000) ">
                    <g id="modern-woman">
                        <path d="M86.0324181,95.8132106 C88.6338977,96.9347069 90.5117527,96.8620057 93.0173913,95.6388629 M81.8785232,128.279887 C83.1582978,121.02862 82.509765,112.200409 83.5495047,104.860837 M123.600571,62.0796615 C125.51733,65.8797013 123.265003,70.0764471 118.224393,76.8829522 C124.528907,73.3678839 127.238887,73.9431729 130.257757,67.3580192 M132.920249,74.2469238 C133.076856,80.3582401 126.749122,84.6317405 122.846996,83.4225572 M88.2242266,114.90997 C90.7246162,118.876549 89.6435018,123.490047 92.7700077,128.118473 M91.3038,145.86355 C85.0763541,145.841464 71.628161,146.549164 65.1498734,146.449135 C63.333957,146.421138 61.9443851,145.554479 62.8030024,141.17509 M97.8271058,148.125029 C103.967233,150.285122 106.009351,143.477325 109.774942,144.769297 M121.118398,143.886152 C142.475023,145.281174 156.442561,139.440902 160.719345,135.827299 M99.7448533,137.837423 C104.74767,145.110977 109.853553,120.263653 113.640016,115.000151 M186.342934,376.497762 C191.442889,365.161718 189.910235,354.977316 193.08744,343.77515 C203.402581,312.289667 203.116787,278.223396 197.05589,253.608733 C189.314131,219.13798 197.742586,178.636043 184.749206,158.817995 C183.278923,156.575411 179.547544,149.57259 177.26329,147.281801 C172.53966,142.544811 167.978132,140.413339 160.719345,135.827299 C152.185538,130.435582 144.377579,124.604502 134.448643,120.6431 C127.587979,117.90586 123.468604,109.186993 124.60579,91.7617828 C124.772956,89.2005277 124.886397,86.9560217 124.967294,83.4642149 M168.640806,315.463848 C164.94617,289.656033 153.661379,284.401957 152.378517,272.605878 C150.593601,256.193288 165.320333,243.956988 160.383222,221.585486 M167.956209,257.030274 C172.455243,276.831147 169.4817,313.391812 167.14823,332.567528 C166.9739,333.999466 167.218937,337.342928 167.154405,338.564921 C166.37971,352.568278 167.355597,342.99221 166.270407,364.763914 C165.807196,374.057803 159.121355,376.957731 157.38683,387.116604 C156.971663,389.548313 156.588916,394.542816 156.822528,398.889752 C156.948011,401.223374 154.267549,408.383713 153.992438,414.799696 C153.743449,420.607021 153.271469,426.639946 155.627047,427.357344 C159.541154,428.549456 160.592195,424.438124 164.940365,408.31856 C165.980784,404.461409 164.993473,400.694614 166.662602,396.774519 M164.940365,408.31856 C167.490281,412.346226 168.907148,418.136792 169.277235,422.784938 C169.634354,427.269585 168.468206,431.433728 167.014349,435.583321 C166.044946,438.350149 164.876821,440.599131 164.472399,442.783609 C163.723455,446.829399 167.813189,447.096117 169.215544,444.978676 C174.021862,437.721484 176.884311,428.346397 177.045425,421.931193 C177.149417,417.79063 177.513453,413.570492 179.364569,409.865278 M170.615552,442.713259 C167.665228,448.497135 172.442646,454.768261 175.58848,448.46472 C176.930255,445.776102 175.4328,445.655085 176.636309,442.66532 C178.525404,437.972353 182.801199,430.32158 181.890339,426.163283 C180.55443,420.06423 180.190642,416.062353 184.158413,413.280844 M176.154881,445.555049 C175.687532,448.630624 179.412613,445.917971 180.373555,444.588082 C181.306091,443.297493 181.782209,441.787281 182.474278,440.683771 C183.435899,439.150499 184.532823,437.74409 185.339938,432.934977 C185.743125,430.532759 186.203681,421.576457 187.253115,416.148877 M185.154307,433.995159 C189.149249,433.988663 191.5123,429.621136 191.783644,425.785616 C192.082406,421.561906 190.292735,417.280578 189.450358,416.803265 C193.041496,404.720332 191.288135,387.72773 184.697333,372.344012 M161.580062,235.634808 C165.362881,240.356227 161.848132,249.571323 170.843421,261.46958 C172.311358,263.41118 172.226386,267.193109 175.014916,272.307201 M114.603676,225.400551 C142.783233,258.419859 176.515582,221.39169 153.795322,193.639197 M147.121523,215.385268 C145.663961,215.077139 141.684334,223.359189 143.043461,223.605763 C145.775796,224.101466 149.390029,218.174117 147.054274,217.012178 M51.9396774,224.685108 C57.6378361,227.405134 59.7077437,220.904712 55.8318002,219.272982 C55.7369472,219.233033 55.4704201,219.196033 55.3011545,219.374343 M85.3527617,227.301324 C72.5024637,242.320822 54.9690454,241.261354 49.4376205,234.519846 C48.7036212,233.625249 46.8337325,229.669777 46.2034787,228.653409 C41.3280587,220.791737 41.0202187,209.740384 48.1603778,195.622629 C49.6622171,192.653086 48.7377708,187.620563 48.2255275,184.46396 M52.7361092,237.165222 C53.0634633,255.878631 46.3645312,268.708583 44.1246786,289.867992 M47.8205496,325.095715 C49.6884623,330.379282 51.9163964,335.429455 55.0450019,339.398269 M136.659348,278.407812 C136.299758,271.910436 138.392082,266.540799 142.170023,263.91571 M88.5609054,316.225937 C87.7284097,314.927748 86.2341042,314.095764 85.2155459,315.531989 C84.0301303,317.203622 87.3150333,319.807536 89.0943918,319.037002 C90.3471802,318.494471 91.029245,316.559627 89.9874057,315.425652 M134.390347,344.603107 C136.287902,340.651962 137.554955,337.358453 138.195954,333.403085 M119.892349,376.462165 L121.661086,374.54447 M115.254247,381.03535 C105.666374,388.693398 101.698109,398.551774 101.5428,407.1992 C89.7292771,397.95221 81.6071176,385.047686 74.7867169,373.937891 C69.6229091,365.526588 64.0847531,361.103976 57.1329415,352.904046 M12.0618912,406.513827 C14.6591716,408.450814 14.2712376,419.301427 17.8206916,426.34601 C19.289987,429.262177 22.2521674,429.659851 24.7566327,432.307221 C26.7446554,439.534856 30.0510486,443.852496 28.4174895,448.840698 C25.2846231,446.19125 20.214248,440.711119 17.2881932,437.811581 C10.1809486,430.768817 8.59771847,421.951915 3.59706285,414.018834 C1.09457368,410.711748 1.78009664,406.604963 4.42980558,403.165948 C18.7309347,384.604346 9.38951879,343.248665 11.4202748,308.264339 C12.3791794,291.743009 12.0049547,276.887661 18.9666469,261.08152 C27.19002,244.766107 26.4549709,214.50124 26.2606334,185.050434 C27.1194977,160.807033 37.5911218,149.252391 57.8852197,143.147116 C67.569922,138.698398 76.7423809,132.41426 82.509271,122.974221 M56.9560801,238.703496 C62.633428,273.114241 50.3601525,280.6084 38.611965,296.956097 C30.822038,307.795796 28.6794469,322.541495 28.6984669,339.450431 C28.7318136,367.738478 18.3985786,387.737993 20.1536681,404.310316 C25.0182195,450.24321 45.1536732,508.563627 55.4488065,525.624824 M64.5261654,552.478791 C53.7245937,545.792711 50.2397954,534.375599 49.8334589,514.460984 M52.8069402,543.247975 C55.5682373,550.29808 57.4144746,554.118854 60.1698434,557.629908 M92.6736726,557.3704 C91.6593135,547.472465 93.2841653,542.034167 97.0519171,536.611654 M67.6897233,559.260683 C73.970277,559.942419 75.9557679,555.3135 74.6344951,548.731354 C74.1002059,546.070083 74.0231378,543.452139 74.6598139,540.816006 M54.1255576,540.183119 C41.608295,564.365226 61.6211685,623.160162 69.2972224,666.123623 C71.674723,679.430824 74.1088513,685.707666 72.166773,700.055237 M95.4054516,673.354117 C107.898692,695.82555 111.650635,707.847618 104.726983,711.780835 C99.0621093,715.058819 90.323961,719.661105 84.0639711,723.430563 M72.8690928,691.025467 C66.7883109,696.049981 63.988665,707.576418 59.2630585,711.924458 C53.2498964,717.457205 45.7892996,719.728142 43.2249336,725.3758 C42.243489,727.537283 42.1615425,729.299143 43.6190429,730.557968 M44.0137698,740.01919 C40.2191554,741.62554 42.0365539,731.789055 43.6190429,730.557968 L48.9216103,726.432864 M48.9216103,726.432864 L51.0278287,730.118656 C48.5938857,734.884766 46.2555367,736.583617 44.0137698,740.01919 C42.077558,742.986609 42.3172842,744.951463 43.7696591,746.742945 M250.648705,723.620565 C257.549076,727.112652 263.161274,733.160387 266.992323,739.053262 C267.306092,740.371653 268.568452,743.422868 267.626715,746.304542 M209.799972,706.683958 C203.129509,729.025994 205.471933,729.586583 224.639405,736.56322 M181.677475,565.956506 C176.040267,560.659557 173.544077,555.090758 173.565196,548.494776 M161.985719,569.27379 C149.740973,601.448869 180.733947,634.163621 193.59147,664.353838 C201.075595,681.530466 206.350435,700.716641 215.789915,720.215004 M166.264973,578.779898 C164.280099,573.751226 163.905504,572.690719 161.985719,569.27379 C157.43475,561.174286 151.38398,551.586655 147.669769,543.680012 C140.292971,527.977025 136.184835,510.107812 128.128134,478.766796 C126.418928,472.117938 103.202665,420.088395 101.542738,407.1992 C103.302644,446.122914 97.2613842,465.745801 98.1000552,480.214194 C98.6342827,489.431758 103.965133,513.321683 99.1711038,524.271031 C96.7272184,529.852822 96.1010404,535.775837 97.3036851,536.986398 C99.3816206,539.078051 98.3760923,545.473442 99.3748278,547.261935 C102.580069,553.001704 105.035935,569.281779 104.012127,582.247949 C103.20915,592.417605 101.735099,593.269207 101.347165,601.715782 C100.749641,625.153533 100.527576,650.322614 96.2138636,698.897292 C96.131176,699.828857 94.7034406,702.229191 95.3512323,705.310937 M202.096994,572.270245 C202.74176,563.616258 201.71295,553.871818 200.656229,547.992715 C200.114097,544.976707 200.439351,540.897594 199.971385,538.270686 C197.618833,525.064625 193.260843,516.264288 192.910147,493.851966 C192.638679,476.501835 194.274461,437.024743 189.969888,431.177793 M202.900589,561.317453 C224.906611,583.694048 224.136301,666.737803 230.95806,686.880681 C239.368113,711.713214 247.92835,714.010589 254.716145,733.675375 M194.574829,566.96654 C195.969959,566.359182 197.045762,563.227938 196.972461,561.180392 M162.473384,136.933393 C160.626591,125.053707 156.011523,112.144668 156.663946,96.6032384 C157.273142,82.0917917 158.346661,67.4296031 155.72752,54.5077023 C153.164142,41.8608604 146.308603,33.3881263 139.978153,23.3673222 C132.639148,11.7500022 126.948771,-0.156485495 109.97249,0.472972135 C101.035991,0.804323745 88.912652,7.77297094 86.864852,22.0583632 C85.6796835,30.3259529 93.8343252,39.217037 103.03235,39.2681591 C113.584933,39.3268163 113.577769,49.2371006 116.404216,54.7446372 C120.507041,63.0961789 130.513972,63.231831 132.412205,71.8276933 C135.912442,87.6781811 127.806709,105.699759 136.272031,121.401084 M60.6505925,737.65075 C57.4184885,744.881568 46.9562509,746.897675 47.2763799,749.742128 C48.4356121,760.042071 59.0883585,753.740609 66.0160246,748.488176 C73.4354938,749.874318 77.9890558,741.932792 81.7913893,730.480862 C84.3492712,722.777279 86.1717952,714.735328 91.0694464,712.375008 M55.8879957,733.95554 C53.1804239,737.925848 48.32952,743.229098 43.7663862,746.742945 C42.5018647,747.716733 42.7433199,751.037245 47.2763799,749.742128 M262.312476,740.20536 L262.103318,742.538917 L267.623627,746.304542 C267.717554,748.708709 266.943106,752.819437 266.799653,753.996154 M260.281535,744.442321 L258.859419,747.54966 C261.433295,749.663139 263.935969,752.246311 266.79953,753.996154 C268.606801,756.95318 263.686671,757.074976 262.979535,759.292323 M256.972239,748.886954 L255.886864,751.854029 C259.171643,755.057895 262.161304,757.211259 265.449665,759.292323 C265.182212,760.130998 264.913523,762.037196 265.584596,763.38891 C269.174622,770.619988 258.376199,774.587308 252.503958,771.208185 C247.575801,768.372371 246.018199,763.566051 239.227625,761.831733 C231.607828,759.885651 223.815431,731.116738 219.843338,726.165756 M252.112504,754.528551 C252.999961,758.53725 254.464748,759.109856 259.501406,761.466733 C260.871772,762.10787 264.076643,761.570991 265.584287,763.38891 M158.376426,190.624073 L155.240286,184.524735 M158.684698,201.488014 C158.797336,195.776243 157.995964,190.594861 158.560389,183.678349 M84.0200028,73.0617491 C84.5051364,68.5398811 84.3337094,65.2206682 83.6497302,62.2576144 M94.6691057,74.9319726 C96.5561002,77.7893265 92.8012548,81.3255906 89.2808249,78.9622371 C86.2838156,82.5096221 80.2313167,81.9216858 79.5214629,78.2274758 M78.400703,58.9540174 C78.0911339,56.5957242 72.3953836,55.9405561 69.880235,56.591268 M91.3880314,57.9060278 C93.5726148,56.0763771 104.388205,54.1111522 105.775492,56.4733625 M79.9402736,89.7674956 L82.7068814,87.667502 C84.7220756,88.3462628 87.3535674,89.595954 89.3785186,87.2167443 C90.7843933,88.923637 93.8561858,89.4471349 97.0427159,88.9698093 C97.4750504,88.905046 97.8324166,89.2695977 98.3670763,89.4906114 M80.7114483,89.1821121 C84.1412862,89.99114 87.5771759,90.6665426 91.1486141,88.4807003 M70.8906418,63.2387555 C78.9010897,62.9939477 80.2483606,63.7678138 82.0973767,67.0701117 M94.9560732,66.5037674 C95.5991716,61.88873 100.875309,61.3992247 107.151478,63.4003585 M123.648862,74.2327304 C122.774497,89.3724785 122.004434,90.17757 112.573476,97.8459336 C105.938705,103.240683 97.6910016,108.450198 85.6551674,107.185489 C82.3580373,103.675695 76.9302961,97.2783746 73.810089,90.6711286 C70.0658653,82.7424127 66.1426188,74.7643741 69.1365404,64.4333038 C68.6609168,61.7174613 67.660514,58.9930508 69.0271137,56.6359657 C68.4158181,51.3568545 70.1062519,41.6890655 71.8187316,39.90953 C82.1896361,29.1322036 84.162097,30.0183889 85.7808353,22.7447696 C86.2793076,20.5047717 87.6173155,14.3251843 89.7952296,10.4517743 C87.9988889,7.53258675 70.1885073,17.8246367 62.2069599,35.5258411 C58.5877865,43.5522541 60.7040091,53.1806265 57.6009694,65.1523517 C53.7464543,80.0232444 73.9584204,100.852529 62.2055396,132.181054 C61.0568054,135.243188 60.9093387,140.121754 60.6575706,141.814019" id="Shape" stroke="#4B627C" stroke-dasharray="4,4"></path>
                        <path d="M158.943436,135.460966 C166.518757,140.043644 171.2792,142.173553 176.208814,146.90707 C178.592676,149.196179 182.48677,156.193866 184.021168,158.434805 C197.58115,178.238323 188.785155,218.710564 196.864509,253.156043 C203.189704,277.752658 203.487961,311.793952 192.723007,343.25635 C189.407254,354.450303 192.790466,364.63906 186,372 C190.016428,384.5 193.084902,404.5 189.176566,416.414832 C190.055676,416.891794 191.923389,421.169983 191.611599,425.390596 C191.328423,429.223304 188.862327,433.587629 190.016428,430.407662 C194.508711,436.250324 192.801597,475.698471 193.084902,493.035882 C193.450892,515.43177 197.99892,524.225656 200.45406,537.422033 C200.942433,540.047015 200.602995,544.123138 201.168768,547.136934 C202.27157,553.011727 207.672882,561.352358 207,570 C221,576.5 223.880764,666.371891 231,686.5 C239.776791,711.314326 244,715.5 261.5,733 C270.582136,738.466181 271.874816,742.941978 270.892012,745.821539 L268.640715,758.854992 C268.266541,759.690955 267.986136,761.595755 268.686472,762.946478 C272.433048,770.172254 261.163739,774.136666 255.035427,770.760019 C249.892367,767.926285 248.266842,763.123489 241.180152,761.390443 C233.228078,759.445788 229.929339,741.083654 225.78591,736.13481 C205.782603,729.163288 203.338032,728.60311 210.639192,705.952902 C200.788084,686.468835 201.518501,680.841481 193.708016,663.677446 C180.289815,633.509364 147.94533,600.818599 160.724032,568.667111 C155.735584,560.252952 150.010153,552.099688 146.544781,542.771505 C140.5,526.5 135.825589,507 127.5,477.905884 C123.160201,462.740278 104.232312,418.879744 102.5,406 C102.5,444.5 96.5310447,463.4481 97.4062877,477.905884 C97.9638113,487.11669 100.568766,502.5 99.5,520.5 C97.6648049,527.950478 95.6058951,533.674076 96.5,539 C96.6259493,539.750243 97.4062877,547.136934 97.4062877,545 C97.4062877,542.863066 104.568453,562.543337 103.5,575.5 C102.662007,585.662199 101.404851,592.559618 101,601 C100.376419,624.420566 101,627.5 97.4062877,675 C102.245806,690 113.207806,706.069667 105.982234,710 C100.070332,713.275581 90.0329694,719.233306 83.5,723 C83.5,723 80.3332286,735.836491 77.5,741.5 C74.6667714,747.163509 66,748.5 66,748.5 L55,756 C51.4607395,753.733649 40.4793558,740.965243 42.5,738 C44.8395237,734.566946 42.45992,727.762616 45,723 C45,723 53.2246219,717.52869 59.5,712 C64.4316762,707.655148 67.3534063,696.137162 73.5883364,691.765438 C73.5883364,676.511461 72.2534732,679.669488 69.7722969,666.372045 C61.7615132,623.440084 40.4173284,563.164376 53.4804315,539 C52.0668433,533.782813 49.5,524 47.5,509 C40.5,488 34.8856536,471.701534 27,447.5 C14.5,435.5 11.2187193,427.427265 6,419.5 C3.38838475,416.19534 -1.26525484,411.436494 1.5,408 C16.4247586,389.452008 11.5,349 11.5,312.5 C11.5,295.75778 10.2347292,281.294552 17.5,265.5 C26.0819698,249.19655 26,216.5 26,185 C29,165 30.5,155 52,145.5 C55.0475591,142.463999 61.4472421,134.450706 62.5,131 C71.5,101.5 55,78.5 58.224078,64 C61.448156,49.5 59,41.5 63.7527283,33 C72.5674667,17.2353128 83.0546894,7.36185472 84.9293631,10.2789019 C86.1396311,-2.54023628 96.6560399,0.40578769 105.982234,0.0746790282 C123.698799,-0.554317082 129.637317,11.3434408 137.296354,22.9522429 C143.902856,32.9656997 151.057344,41.4322216 153.732503,54.0697908 C156.465857,66.9822172 155.345526,81.6336555 154.709765,96.1344623 C154.028891,111.664497 158.845209,124.564071 160.772535,136.435047" id="Path" fill="#141E26"></path>
                    </g>
                </g>
            </g>
        </g>
    </g>
</svg>
