<svg xmlns="http://www.w3.org/2000/svg" width="1300.28" height="768.5" viewBox="0 0 1300.28 768.5"><title>journey-map</title><polygon points="100.28 50.5 1267.29 50.5 1267.29 724.5 100.28 724.5 100.28 50.5" fill="#14212c"/><path d="M536.1,353.8c-13.2-7.7-16.3-12-22.6-15.3-30.8-15.5-11.6-28.2-15.7-32.5-33.5-34.7-106.7,4.8-148,7.8-.2,0-15.1-8.4-19.3-9-11.8-1.5-15.8,11.2-20.4,10.6-11.8-1.5-31.9-8.9-38.3-12.7-11-6.5,7.2-16.5-11.5-23.7-12.7-4.9-29.1,2-41.7,3.3-33.3,3.7-48,5.6-71.8,28.1-24.1,22.9-59.8,60.2-50.7,96.4,16.8,66.6,70.3,66.8,116.6,69.3,56.8,3.1,20.4,40.7,62.1,58.8,11.3,4.9,52.4-11.6,58.1-18.7,25-30.1,30.4-79,37.1-100,4.3-13.3,18.8-41.4,15.9-55.9,15.4,25.7,15.1,47.6,47.4,59.9C456.1,444.4,578.5,380.4,536.1,353.8ZM937.5,250.9c-81.8-44.9-106.1,27.5-174.2,44.6-35.2,8.9-57.3,12.8-94.1,6.4-28.3-5-85.8-17.2-94.9,26.8-4,19.7,15.4,36.6,23.5,49,12,18.5,24.6,62.7,45,76.7,44.1,30.1,34.1-49.8,58.4-82.3,10.2,15.2,34.1,51.6,55.6,44.3a256.52,256.52,0,0,1-3.7,37.2c-.9,5.1-16-6.6-14.8,16.1.1,3.4,14.3,20.7,17.1,24.9,14.9,22.7,64.5,60.3,95.3,54.7,30.2-5.5,12.9-15.8,16.5-39.9,2.9-19.1,23.5-33.5,7.1-51.5-11.5-12.6-27.2-1.7-34.1-5-31.1-15-5.5,2.4-1.2-31.2,2.6-20.3-11-35.3-1.5-48.9,2.6-3.7,32.4-6.4,45-19.7,27.5-29.1-10.6-58,16.8-76.2,20.9,24.7,57.2,24.7,28.8-7.3C939.4,274.5,948.5,256.9,937.5,250.9Z" transform="translate(-0.72 0.5)" fill="#5a7391"/><path d="M494.7,221.1c-83.5,6.4-129-29.6-163.2-27.5-24.5,1.5-33.7-5.9-63.3,6.4-10.8,4.4-38.1-6.4-49-5.9-39.2,1.8-45.5,11.2-64.9,21.3-6.6,3.4-1.7,8.8-10.5,41.1-10,36.6,24,42.5,68.9,25.6,17.3-5,76.6-4.6,80.4-5.5-.7,29.5,98.9,35.3,98.3,35.9,10.2,12.5,12.2,16.7,54.6,1.1C635.7,243.7,792.7,198.1,494.7,221.1Z" transform="translate(-0.72 0.5)" fill="#705976"/><path d="M477.8,421c-10.2,14.9-24.5,4.5-27.9.7a3.74,3.74,0,0,0-1.1-.4l-.6-.7V419s-11.6,2.9-30-13.6c-11.6-10.5-17.8-80.1-47.1-82,3.5,8.2,3.8,72.2.7,80.3-7.1,18.5-41.5,57.3-66.6,26.9,49.4,59.9-1.9,85.5-41.5,116.7C226.1,577,281.2,680.8,321.5,697c38.6,15.5,62.8-28.6,80-52.1,7-9.5,29.9-51.1,36.2-67.1,12.1-30.8-5.8-51.5,15.7-84.6C457.9,486.2,532.6,412.2,477.8,421Z" transform="translate(-0.72 0.5)" fill="#eca3a1"/><path d="M1,0V768H1301V0ZM498.6,87.5h1.1v-.6h.6l-.6-.6h1.1l.6-.6v-.6l.6-.6v-.6h-1.7v-.6l.6-.6h.6l2.3-.6,1.1.6h.6V82h-1.1V80.8l.6-.6h6.4v-.6h-.6v-.1h-.6l1.7-.6h.6l.6-.6h-1.7l-.6.6h-1.7v-.6h-1.3l-.6-.6h1.1l1.1-.6h1.1l1.1-.6h.6l.6-.6,1.7-.6h2.9l1.7.6v-.6H518l-2.3-.6H518l-.6-.6h-1.1l.6-.6H518l.6-.6h-1.1v-.6h5.7v-.6h-4l.6-.6h4l.6-.6h-4.6v-.6h1.1l.6.6v-.6h1.1v.6h1.1l1.1-.6h.6v-.6h-1.1l.6-.6h3.4v.6H530v-.6h-1.1v-.6l2.9-.6h-.6v-.6h3.4V66h1.1l1.1-.6h.6v-.6h1.1v.6h3.4l.6-.6h.6v-.6h4l-1.7.6h1.7l.6-.6v-.6h.6V63h5.1l.6.6h.6l1.7-.6v.6H558l.6-.6v.6h2.3L562,63h5.8v-.6h1.7v-.6h1.7v.6h.6v-.6h1.1l.6-.6h.6l2.3.6v-.6h1.2l.6-.6h1.7V60h3.4l1.1-.6h3.4l1.1.6h2.9l.6.6h.6v.6l-.6.6h.6v.6h-1.1l.1.6h-1.1v.6h-.6l-2.3.6h-3l-1.1.6h-1.1l-1.1.6h-2.9l-.6.6-5.1.6h-2.3l-2.9.6H565l-.6.6v-.6h-.6l-.6.6H560l-1.7.6H558l-1.7.6h-3.4v.6h-1.1v.6h-.6v-.6h-.6l-1.1.6h-1.7v1.1h-1.1l.6.6h-2.9v.6h.6l-1.7.6h-.6v.6h-2.3v-.6h-1.1v.6l-.6-.6v-.6l-.6.6.6.6v.6h-2.3l-3.4-.6.6.6h1.1l1.1.6v.6h-.6l.6.6h-.6l-.6.6-.6-.6v.6h-.6v-.6h-.6v.6l.6.6h-1.7l-.6-.6H530l-.6-.6h-.5l.6.6.6.6h1.1l.6.6v.6l-1.1.6-.6-.6h-.6v.6h.6V80h-3.4l1.1.6h-.6v.6h-1.1v.6l-.6-.6h-.6l.6.6h-2.3v.6h.6l-4,.6h3.4v.6h-1.1v1.1h-2.3l.6.6h-1.8V86H518v1.2h-1v.6h1.1v.6H517v1.2h.6v1.1l.6.6h.6v.6h.6l.6.6h.6v.6l.6.6,2.9,1.1,1.1.6h.6l.6.6h2.3l1.1.6h-.6l-.6.6H528v.6l-2.1-.4.4.4h-.6v-.4l-1.1-.2H524v.6h-1.2v-.6h-2.9l-.6-.6v.6l-.6-.6H517l.6.6H517v-.6h-.6l-.6.6v.6h-.6v-.6h-1.7v-.6h-1.2l.6.6h-.6v-.6l-.6-.6v.6H509l-.6-.6h-1.1V93.6h-1.1l.6-.6h-1.1v.6l-.6-.6h.6l-.6-.6h.6v-.6h-1.1v.6H504v-.6h-.6v.6h-1.2l.6.6h.6v.4l.6.2h.6v1.1l-.6.6h-.6v-.6l-1.1-.6-.6-.6h-2.4v-.6h2.3V91.7H501v-.6l-.6.6h-1.7l.6.6h-2.9v-.6h-1.1v-.6h-.6V88l.6-.6h.6l.6-.6h1.7v.6l.5-.5v.6ZM172.9,167.8h.6v-.6h-.6l.6-.6h.6V166h.6v.6h.6V166h1.2v-.6h-1.1v-.6h.6v-.6h1.1v-1.8h.6v-.6h1.1v.6h.6v.6h.6v-.6h5.1v-.6h4v.6h-1v1.2h-.6l-.6.6h-1.1v.6l-1.1.6h-1.1l-.6.6v.6h1.1l-.6.6h-2.3v.6h4.5v-.6h1.7l.6.6h.6l.6-.6h2.3l.6.6v-.6h2.3v.6l.6-.6v.6h.6v1.1H195l-.6.6v.6H194v.6l-.6.6v1.1h-1.1v.6h-.6v.6l-.6.6H190l-1.1.6h1.2v.6h1.1v.6h-2.3l-.6.6H187v.6h1.1v.6l.6-.6h1.2v-.6H191v.6h1.1l.6.6h1.1l1.1,1.1h.6v.6h1.1v1.7l.6.6v.6l.6.6v.6l.6.6v.6h1.2v.6h1.7l1.1.6.6.6h.6v.6h.6v.6h1.1v.6h-1.1l.6.6v.6l.6.6,1.1.6H205v.6h1.1l.6.6h.6v.6l.6.6v1.1h-1.1l-.6.6v.6h1.7v.6l.6-.6v-.6H213l.6.6,1.7.6.6.6v1.1l-.6.6v1.1h-.6v.6h-.6l-.6.6-.6-.6v.6l-.6.6v.6h-.9v-.6h-1.2v.6h.6v.6l-.6.6h-1.7l.6.6h1.7v.6h.6l2.3-.6v.6h-.6v1.2h-1.7v.6h-.6v.6h-1.7v.6h-1.7l-.6.6h-.6v.1h-5.1v.6l-.6-.6h-2.3l.6.6h.6l-.6.6h-1.7v-.6l-.6.6v-.6h-1.7l-.6.6h-2.3v.6h-.6v-.6l-1.1-.6h-2.8l-.6.6h-1.4v1.7h-.6v.6h-1.1l-.6-.6H182v-.6h-.6v.6l-.6-.6-.6.6h-1.7v.6h-1.1l-.6.6v.6h-1.1v-.6H174v.6h-.6l-.6-.6h.6v-.6h1.7l.6-.6h.6v-.6h.6v-.6h.6v-.6h1.1v-.6h.6l.6-.6v-3.7h1.7v-1.1h6.9v-.6h.6l-.6-.6h1.1v-.6h-1.2v.6h-3.4v-.6h-.6v-.6h-1.1v.6H182v-.6h-.6V200h-2.3v.6h-2.3v-1.2h-1.2v-.6h1.7v-.6H179l1.7-.1v-.6h1.1l.6-.6v-.6h.6v-.6h-.6V195h.6v-.6h-.6v-.6l.6-.6h-1.7v.6h-2.2l.6-.6h1.1v-.6h.6V192h-1.1v-1.1l.6-.6h.6v.6h.6v1.2l.6-.6v-.6h.6v.6h1.1v-.6h.6v.6h1.1l.6-.6h1.1l.6-.6h.2l-.2-.6.6-.6h.6v-.6H189v-1.1h.6v-.6h.6v-.6h-2.1v.6h-.6v-.6H187v-.6h-.6V185h-.6l-.6-.6v.4l.6-.6v-.6h.6V183h.6v-.6h-1.1v.6h-1.7v.6H182V183h-1.1v.6h.6v.6h-1.1v-.6h-1.1V183h-1.1v.6h-.6l-.6-.6v-.6h.6v-1.1h1.1V180h.6l.6-.6v-.6h-1.1v-1.2l-.6-.6h-.6v.6H177v-.8h-.6v.6h-.6v-.6h-.6v.6l.6.6-.6.6v.6l-.6.6v1.1h-1.1v-1.7h.6v-.6h.6V178H174v-.6h-.6v-.6l-.6.6h-.5v.6h-.6v1.2h-1.1v-.6h-1.2v-1.2h.6v.6l.6-.6h.6l.6.6v-.6l.6-.6v-.6h1.1v-.6l.6.6.6-.6h.6v-1.2h1.1l.6-.6h-1.7l.6-.6h-1.1v.6h-.6v.6l-.6.6H172v-1.2h-1.8l.6-.6h2.3v-.6h-1.7l.6-.6h.6l.6.6V172h1.2v-.6h-.6v-.6h-.6l-.9.6h-.6l1.1-1.1.6-.6h-.5v-1.9Zm-26.6,31.9h.6v-.6H148l.6-.6h-2.3v-.6h2.3v-1h1.7v-.6H152v-.6h-2.3v.6h-.6l1.1-1.1h.6v-.6h.6v-1.2h.6v-.6h2.3v-.6h-4v-.6h-.6l-.6.6v-.6h-1.2V191h-.6v-.6h1.2l.6-.6h-.6v-.1h1.7v-.6h-2.3v-.6h-.6l.6-.6.6.6v-1.2h-.6v-.6l.6.6v-.6h.6v-.6h.6v.6h2.8v.6h.6v-.6h2.8v.6h.6v-1.8h1.1l.6-.6h.6V184h-.6l-.6.6H157V184l-.6.6h-1.2v-1.2h1.2v-1.2h1.2v-.6h.6v.6l.6-.6h1.1l.6-.6h1.1v.6l.6.6V181h.6v-.6h1.1v.6H165v.6h2.2V181h.6v.6h.6V181l.6.6h1.1v.6h.6v.6h.6v.6l.6.6v-.6l.6.6h-.6v.6H173v.6h.6v1.1H173v.6h-1.7V188h-1.7l.6.6h-1.7v.6h.6v1.1h.6v.6h.6v.6h-.6v1.2h.6V195h-.6v.6l-.6.6h.6v.6h-1.2v.6H168v1.2h-1.1v.6l-.6-.6h-.6v.6h-.6v-.6h-.6v.6h-3.2v1.2h-1.7v.6h-1.7v-.6h-1.1v.6h.6v.6h-1.1v.6h-1.1v.6l-.6-.6H154v.6h-2.2v.6h-.6v-.6H150v-.6l-1.1.6h.6v.6h-.6v-1.2h-1.1l.6-.6h.6V201h-.6l-.6.6h-1.1V201h-1.1v-1.6h.7Zm342.1,380v1.1l-.6.6v.6l-1.1,1.1v-.6l-.6-.6v-.6h-.6v-1.6h-1l-.6.6v1.1h.6v2.3h.6v2.9h-.6v1.1h-.6v.6l-.6.6v.6l-.6.6v1.1l.6,1.1v.6l-.6,1.1v1.7l-.6,1.1v.6l-.6.6v1.1l-.6.6v.6l-1.1,3.4-.6.6v1.1l-.6,1.1-.6.6v1.7l-.6,1.7-.6.6v1.7l-.6.6-.6,2.3-.6,1.1-.6,1.7-.6.6v2.3l-.6.6v1.7l-1.1,1.7v1.7l-.6.6v.6l-.6.6v.6h.4l.6.6-.6.6v1.1h-.6v1.1l-.6.6h-.6v.6h-1.1v.6h-2.8l-1.1.6-.6.6h-1.1l-1.1,1.1h-2.2v-.6h-1.1v-.6h-.5l-.6-.6h-2.2V635l-.6-.6h-.6l-.6-.6v-.6l-.6-.6v-1.1h-.6v-.6h-.2v-.6l-.6-1.1v-2.9l.6-.6v-1.1h-.6v-1.7h-.6v-.6h-.6v-.6H449v-2.3l-.6-.6V618h.6v-.6h-.6v-1.1h.6v-1.2h.6v-.6h.6v-1.7h.6l.6-.6v.6l.6-.6v-.6l.6-1.1v-.4l1.1-1.1v-.6l.6-.6v-.6l.6-.6V606h.6v-1.7H455l.6-.6V602l-.6-.6v-.6l-.6-.6v-2.8l-.6-.6h-.6V592l-.6-.6v-.6l.6-.6v-.6l.6-.6v-.6h.6v-.6h.6v-1.1h.6v-3.4h.6l1.1.6h.6l.6-.6h.6v-.6h.6V582h.6v1.1h.6v-1.2H462v.6h.6V582h1.1v-.6h.6v.6h.6v-.6H466l.6-.6v-.6h1.1v-.6h.6V579h.6l.6-.6h.6v.6h.6v-1.1h.6v-.6h.6V576l1.1-.6v1.1h-.6v1.1h.6V577h.6v-.6l.6-.6v-.6l.6-.6-.6-.6v-1.1h.6v-.6h1.1l.6-.6h-.6V571h-.6v-1.7h.6l.6-.6v.6h.6v1.1h.6v-1.1l.6-.6h.6V568h1.7v-1.7h.6v-2.9H481v-.6h-.6v-.4h.6l.6.6h.6v-1.1h1.1v-1.7h.6v1.7h.6v.6h.6l.6.6v.6h-.6l1.1,1.1h.6V566h.6v1.1l.6.6v1.1l.6.6v3.5l.6.6v2.9l.6.6v.6l.6.6v.6h.6l-2.1.6h-.5ZM740.6,461.5V461h.5Zm7.4,17.9h-.5l-.5-.6-1.1-.6h-.6v-.6h-1v-1.8h.5l.5.6v.6h1.1v.6l.5.6h1l.1.6Zm8.5,8.8v2.2h-.6v-.6l-.6.6v-1.7h-.6l-.6-.5h-.6v-1.1h-.6v-.6h-.6V486l-.6-.6h1.8v-.6h.6v.6h.6v1.1h.6v.6h1.2v.6h.6v.5Zm-4-7v.5h.5v.5h-.5v-.5H752v.5h-.5v-.5h.5l-.4-.5Zm7.3,14.1h-.5v.6l-.5-.6h.5v-1.2h.5l-.5-.6v-.6h-.5v-.6h.5l.5.6v1.2h.5v.6l-.5-.6Zm3.6,7.9-.5-.6h-.5V502h-.5v-.6l-.5-1.2h-.5V499h.5v-1.2l.5.6v-.6h.5V499h.5v.6h.5v1.8h.5v1.2h.5l.1.6h-1.1Zm4.3,3.6v-.5h-.5l-.9-.9V505h.9v.5l.5.5v.5h.5Zm.8,1.5H768V507l.5.5h.5v.5h-.5Zm2,.4v.7h.5l.5.7v.7H771v.7l.5.7H771v-.7h-.5V510H770v-1.5h.5Zm11.9,15.6h-.9l-.5-.5v-.5h.5v.5h.9Zm13.2.5H795v-.6h-.6v.6l.6,1.1V527h-.6v-.6l-1.1-1.1h-.6v-.6H792V524h-.6v-.6l-.6-.6h-.2v-1.1H790v-.6h-1.1v-.6h-1.1v-.6h-.6l-1.7-1.7h-.6l-1.7-1.7-1.1-.6v-.6h-.6l.6-.6h-.6v-1.1l-2.3-1.1-1.1-1.1v-.6h-.6l-1.1-2.3H776v-.6h-.6l-.6-1.1-1.1-1.1V505h.6v-.6l-.6-.6v-.6h-.6v-.6l-.6-.6v-1.7h-1.1v-1.7h-.6v-1.1l-1.1-.6v-.4l-1.7-1.7v-.6h-.5l.6-.6-1.1-1.1h-1.1v-.6H764v-2.3h-.6l.6-.6h-.6v-1.1l-.6-1.1V486l-.6-.6v-2.3h-.6l-1.1-1.1H760v-.6h-.6l-.6-.6h-.6l-.6-.6h-1.1l-.6-.6v-1.7l-.6-1.1h-.6v-.6H754v-.6h-.6v-1.1h-.6l-.1-1.2-1.1-1.1H751v-.6h-1.7l-1.1-1.1v-.6h-.6v-.6H747l-.6-1.1h-.6v-.6h-.4l-.6-.6H744v-1.1h-.6v-.6h-.6V464h-.6l.6-.6h-.6v-2.3H745l1.7,1.7h1.7v.6h1.7l.6-.6h1.7l.6.6h.6l1.1-.6,2.8,2.9v1.1h.6l.6.6h.6v2.3h1.1v.6h.6l.6.6v.6h.6l1.1.6h.6v.6h.6l1.1,1.1h.6v.6h.6l.6.6h.6v.6l.6.6h.6v1.1l.6.6h.6l.6.6.6,1.1v.6l.6.6h.6l1.1.6v.6h.6v-.6l-.6-.6v-.6H775l1.1.6.6.6v1.7h.6v-1.7h.6l.6-.6.6.6v1.7h-1.7l.6.6h1.1l1.7,1.1.6.6v.6h.6v-1h-.6l-.6-.6v-.6h.6v.6h1.7v1.1h.6v.6h-.6v.6h.6l.6.6v-.6H786l1.1,1.1V489h.6v1.2h1.1l.6.6v.6h1.1v1.7h-.6v.6h-1.2v1.2h.6v-.6h.6v.6h.6v.6H790v.6h-1.1l.6.6h-.6v.6l.6.6h.6v.6h.6v.6h.6l.6.6v-.6h1.7v.6h.6v-.6h.6v1.7h.6v2.3h.6v1.8h1.7V506h-.6v.6h1.7v.6l.6-.6h.6v.6h1.7v1.1h.6v.6h.6V510H804v1.1h.6v.6l-.6.6h-.6v.6l-.6,1.1v.6l.6.6v1.1l-.6.6V518h.6v5.3l-.6.6v2.9h-.6v-.6h-.6V526H801l-1.1-1.1v.6h-2.1v1.1h-.6l-1.1-1.2Zm-36.2-93.1v.5h.5v.5h-.5v-.5h-.5v-.5Zm29,57.4v-.5h1v1h-.5Zm6.8-1.6h.5V489h-.5v1.4h-.5V489h-.5l.5-.7h-.9v-.7h.5v-.7h.5v.7l.4-.7Zm.9,5.2h-.5v-.5Zm-1,1.6v-1.6l-.6-.5h.6v.5h.6l.6.5h.6v.5h.6v.5h-.6v-.5h-.6l-.6.5h-.6v.5h.6v.5l-.6.5h-.6l-.6-.5v-.5l.6.1Zm.6-7.1v-.5h.5v.5Zm-2.8,2.2v.5l-.5-.5V489h-.5v-.5h.5v.5h.5Zm-2.3-1.8v.5h-.5v-1h.5l.5-.5.5.5v.5Zm.9,1.5v.5l-.5-.5v.5l-.5-.5v.5H790v-.5h.5v-.5l.5.5Zm9.7,12.3H803v1.1h.6v.6l.6.6v1.7l.6.6v.6l.6.6v-.6l.6.6h1.8v.6h-.6v.6l-.6.6v.6h1.8v.6H808l-.6-.6v1.1h-1.2v-.6h-.6v-.6H805l-1.2-.6h-.6l-.6-.6v-1.7H802V505h-3.7l-.6-.6.6-.6h.6l.6-.6V502h.6v-.6h.6v.6l.6.1v-.7Zm4.1-26.6v.5h-.5v-1.4h.5v.5h-.5Zm9.4,32.6h.6l.6.5V510h-1.2v.5h-.6v-1.1h-.6v.5l-1.2.5v-3.7l1.8.2Zm-.3-40.4H814v-.5h.5v.5Zm-2.2,20.2v-.5h.5Zm9.7-4v-.6h.6V482h1.1v-.6h.6v1.1h.6l1.1,1.1.6-.6h.6v.6l.6-.6.6-.6v.6h.6v.6h.6l.6.6h1.7v-.6h1.1V483H832v-.6h.6v-1.1h.6v-.6h-.6v-1.4h.6v-1.7h.6v.6h.6v-.6l.6-.6h2.3l3.4-1.1h1.1l1.1-.6v-.6h.6V474h.6l.6-.6v-.6l.6-.6v-.6h.6l1.1-1.1,1.1-1.7v-.6h.6v-.6l-.6-.6h2.3l.6-.6h.6v-.6h.6l.6-.6,1.1-.6.6-.6h.6v.6H855v1.2l1.1-1.1v.6h1.1v-.6h.6v-1.1h-1.1l-.6-.6v-.6h.6v-.6h.6v-.6h.6l-.6.6H859v-1.1h.6V460h.6v-.6l.6-.6v-1.2h.6V457h.6v-.6h.6v-.6h.6v.4l.6-.6v-1.1l.6-.6.6.6h-1v.6h.6v.6H864v.6h.6l.6-.6V455h.6v-1.1h.6l.6.6v1.7h.6v-.6h.6v.6h.6v.6h.6v1.7h-.6v.6h.6v1.2h1.1v-.6h1.2v1.1h-1.1l.6.6h1.1v-.6h1.1l.6.6h.6v.6h.6v.6h1.1v.6h2.3v1.2H878v.6h-.6l-.6.6h-2.3l-.6.6v-.6h-1.7v1.7h2.4v.6h-1v.6h.6v.6h-1.8l-.6.6h-.6l-.6.6-.6-.6h-.6v.6h.6v.6h-.6v.6h-.6v.6l.6.6v-.6l.6.6h-.6v.6h-4v.6h2.3v1.2l.6-.6h.6v1.1h-.6V475h-.6v.6h-1.2l.6.6h.6v.6h.6v.6l.6.6h-.6l.6.6h.6v1.1h.6l.6.6v.6h.6v.6l-.6.6h-.6v.6h-.6l.6.6v.6h.6v.6h.6v.6h.6l.6.6h.6v.6h.6v.6h.6l.6.6h.6v.6l.6.6h.6v.6h-.6v.6h-4l-1.1-1.1v1.1h-1.1v.6h-.6v1.1h-.6v1.1h-.6v4.5l.6-.6h.6l-.6.6V499h-.6v.6h-1.2l-1.1,1.1v.6h-.7l-.6.6H864v.6h-1.1v1.1h-.6v.6h-1.1v.6h.6l.6.6v1.1l.6.6v1.7h-1.1v2.3l-.6.6-.6-.6-.6.6h.6l.6.6h-.6v.6h-.6V514l1.1-1.1V514h.6l.6.6-.6.6h-.6v2.2h-.6v.6H860v-3.4h-.6v1.1h-1.1v.6h-1.1l-1.1.6-1.7.6-1.1.6-.6.6H852V516l-.6-.6h-.6v-.6h-1.1v-.6h-.6v-.6l-1.1,1.1h-1.7V513h-.6l-.6.6h-1.2v-3.7h-.6l-.6-.6v.6H842v.6h.6l-1.7,1.7h-1.1l-.6-.6h-1.7l-.6,1.1h-1.1v-4h-.6v.6l-.6.6H834v-.6h-1.1l-1.1.6-.6.6-.7-.6v-.6l-.6.6v-.6h-.6v-.6h-.6l-1.1,1.1v-.6H827l.6-.6V508l-.6-.6V505h-.6v-.6h.6v-.6l-.6-.6h-.6l-.6-.6h.6l.6-.6v-1.7h-.6v-1.1H825l-.6-.6v1.2h-1.1v.6h-.6v-1.7h.6V498h-1.7v-1.1h.6v-.6h-1.1v-.6l-.6-.6h.6v-.6h-.6V494h.6v-1.1h.6l-1.1-1.1v-.6H820v-1.7l-.6-.6v-.6h.6V486h.6v-1.7l1.3-.4v-.7Zm-2.3-3.3v-.5h.5Zm.8-89.8h-1.6v-.6h-1.1v-.6l.5-.6h-.5v-4h1.1l1.1-1.1h.5v-1.1h.5v-.6h.5v.6h1.1v-1.2h1.1v.6l.5-.6h.5v.6h1.1v-.6h2.1v-.6h.5v.6h1.6v1.7l.5.6h-1.1v.6h-.5v.6h-.5v1.1h-.5v1.2h-.5v.6l.5.6h-.5v.6h-1.1v.6h-.5v.6h-.5v.6h-1.6v1.2h-1.5V391l-1.7-.2v-.7Zm8.7-14.7h-.5v-.5h.5Zm10.7-3.7v-.5h.5v.9h-.5Zm9.2,58.7v-.5h.5Zm5.5,33v-.5h.5v.5Zm9.2-11v-.5h.5v.5Zm9.5-13.3,1.2-1.1v-.6h.6v-.6h.6l.6-.6v-.6h1.2v-1.2h.6v-1.1h-.6v-.6h.6v-1h.6V430h.6v.6h.6l-.6.6v.6l.6.6h-.6v1.1h.6v1.1H881V434l.6.6h.6v.6H881v-.6l-.6.6h-.6v.6h-1.2l-1.2,1.1v.6h-.6v.6h-1.7v.6h-.6l.6.6h-.6v1.2l-.6.6v.6h-.6v.6h-.7v.6h-1.7V444l-.6.6h-.6l-.6.6v.6h-1.2v.6h-.6l-.6.6H866v.6h.6v.6l-.6.8v-.6h-.6v-1.7h.6V446h.6v-.6h.6v-.6l1.2-1.1h.6v-.6h.6v-.6h1.2v-1.1h.6v-.6l.6-.6v-.6l1.1.1v-.6Zm-.4-83.9v-.5h1l-.5.5Zm5.5,5.5.5-.5v.5Zm2.5,40.1v-.6H882v.6h-.6l.6.6h.6v.6h1.2v-.6h.6v-.6h-.9v-3.4l.6-.6V394h-.6v-1.1h.6v-2.3l.6-.6v-.6l.6-.6h-.6v-.6h1.2v-.6h2.9v.6H890l.6.6h.6v.6h2.3v-.5h.6v-.6h.6v.6h.6v.6l-.3.5v.6h-.6V394h.6v.6l.6.6.6.6.6.6h-.6v1.7l-.6.6v.6H895v.6h-.6v.6h.6l-.6.6v.6h-1.8v.6h-1.2v.6h-.6V404h.6l-.6.6v.6h-.6v1.1h-.6v.6h.6v.6l.6.6v1.1h.6v2.9h.6v1.1l.6.6h.6l.6.6H895v-.6h-1.2v-.6h-.6v-.6l.6.6.6.6v-.6l.6-.6v.6h.6V412H898v.6h1.2v.6h.6v2.3H901v-1.1h-.6v-.6h1.2v.6h1.2l.6.6v-.6h.6v.6h.6l.6.6h-2.3l-.6.6h.6v.6h.6v1.1h.6v1.7l.6-.6h.6v.6h.6V419l.6.6-.6.6.6.6-.6.6v1.1h.6v.6h-.6v-.6h-.6v-.6h-.6v-1.1h.6v-.6h-1.2v.6h-.6v-.6h-1.2V420h-1.2v-1.7h-.6v-.6H900V417h-.6l-1.1-1.3h-.6l.6-.6h-.6v-.6h-.6v-.6h-1.2v1.7h.6l.6.6h-.6l.6.6v1.1h-1.2l.6-.6h-.6l-.6-1.1v-.5H894v-.6h-.6v-.6h-1.2v-.6h-1.7v.6h-.6v1.1h-2.3V415H887v-1.1h-1.2v.6h-.6v-2.3h.6v-.6h.6V411h.6v-1.7h-1.7v-1.1l-.6.6v1.1l.6.6v.6H884l-.6-.6h.6l-.6-.6h-.6v-.6h-.6v-.6h-.6v-2.3l-.6-.6v-2.9l-.6-.6v.6l-.6-.6v-.6h.6v-.6l-.1.5Zm-.6-50.8v-.9h.5v1h-.5Zm2.4,12v-2.3l.6-.6v-.6h.6v-1.1h.6v-.6h.6v-1.1l1.1-1.1V354h.6v-.6h.6v-.6l1.1-1.1h1.7v-1.3h.6l.6.6v.6h1.1l.6.6v.6h-.6V355l-.6.6v1.1h-.6v1.1l-.6.6v1.1l-.6,1.7v1.1l-.6.6v.6l-.6.6h-.6v.6l-.6.6v.6h-.4v.6l-.6.6v2.2h-1.1v-.6h.6l-.6-1.1V367H885v-.6h-1.1v-.6l-.6-.6v-1h-.6V363l-.6-.6.6.1V362Zm4.9,23.9h.5v.5Zm6.4-63.4v.5h-.5v-.5l-.5.5v-.5l.5-.5v-.5h.5l.5.5h-1v.5Zm2.8,2H893V324h.7v-.5h.7l.7.5h.7Zm-2.8,84.7-.5.4v-.9h-.5v-.9h1v.5h-.5v.5l.5-.1Zm1.3-136.5-.5-.5h.5Zm10.2,140.7v.7h.5v2.2l-.5.7v-.7h-.5v.7h-.5v-.7h-.5l.5-.7v-2.2h1Zm-1.3-58.2v-.5h1v.5l-.5.5Zm5.8,67.3v.6h.6v-.6h.6v.6h.6v1.2h.6l.6.6v1.2h-.6v1.8l.6-.6v2.3h.6v.6H913v1.2h-1.7v-1.2h-1.1v1.2l.6.6h-.6v1.2l1.1,1.2v1.2h.6v.6h-1.7v1.2h-.9v-.6h-.6v-1.2h-.6V435h.6v-1.7l-.6-.6v-.6h-.6v.6h-1.1V430h-.6v-1.2l.6.6v-1.2h1.1v1.2h-1.1v.6h1.1v.6h.6l.6-.6h1.1v-.6h-.5v-.6h.6v-.6h.6l-.6-.6-.6.6v-.6h-.6v-.9h-.6v-.6h-.6l-1.1-1.2-.6-1.2v-1.2l.6.6,2.9.1Zm4.2,7.9-.5.5v-.5l-.5-.5h.5v.5Zm1.8-132.1v-.5h.5v.5h-.5v.5h-.5v-.5H915l.5-.5v.5Zm4.7,5.5v.5h-.5l-.9.5h-2.3v-.5h.5l.5-.5,1-.5h1.7Zm1.8,208.6v1h-.6l-.6.5H920v.5h-1.2l-1.2-.5H917v-.5h-.6l-.6-.5v-.5h-.6v-1.3H917l.6-.5H920v.5h1.2v1l1.2-.1v.4Zm0-23.3v-.5h.5v.5Zm.8,5.6h1.4v1.8h1.5v1.2h-1.5v-.6h-1.5v-1.2h-.7v-1.8Zm2-151.7v-.6h.5l.5.5h.5v-.5l.5-.5h.5v.5h-.5v.5h-.5v.5h-.5l-.5.5h-.5v.5l-.5.5h.5v.5h-1.1v-.5h.5v-1.1h.5v-.5h.5v-.5h-.4Zm4.4,135.2V480l-.5.6v.6h-1.3v-1.8l.5-.6v-.6h.9v-.6Zm-3.8,3.6.5-.6h1.1v.6h-.5v.6h-.5v.6h.5v.6h.5V486h-.5v1.2h-.5l-.4.8h-.7v1.2h1.6V488l.5-.6h.5V486l.5-.6h.5v-.6h1.6v.6h.5v1.2h-.5v1.2H930v.6h-1.6v1.2l.5.6H930v.6h.5V492h1.1v.6l-1.1-.6H930l-.5-.6h-2.6l-.5.6h.5v1.2h-.5v.6l.5.6v1.2h.5v1.2l1.1,1.2v.6h.5v1.2h-.5l.5-.6h-.5v-.6l-1.1-.6-.5-.6V497l-1.1-1.2h-.5V494h.5v-.6h-.5l.5-1.2h-.5v-.6h-.5v-1.8l.5-.6h-.5V488h-.5v-2l.5-.6v-1.8l.5-.6v-.6h.6v-.6ZM932,307.5V307h.5v1H932v.5h-.5V308h.5l.5-.5Zm6.1-2v-1.7h.6v.6h.6v-.6h.6v-.6h.6v.6h.6v-1.2h.6V302h1.1v-.6h1.1v-2.3l.6-.6h.6v.6h.6v-.6h.6v.6l.6-.6h.6l-.6-.6H948v-.6h1.1v-.6h.6l.6-.6h.6v-.6h.6v-.6h.6l.6-.6h.6v-.6h.6v-1.2h1.7l.6-.6h1.1v.6h4.5l1.1-.6H964l.6-.6h2.8v-.6h1.1v1.7h.6v-.6h.6v.6h.6l.6-.6h.6V291h.6v.6h.6v-1.1l.6.6v-.6l-.6-.6v-1.1h.6v-.6h.6v-.6h.6l2.3-2.3.6-1.1v-.6h-.6v-1.7h.6v-.6h1.7v-.6h1.7v.6h-1.1l.6.6h-1.1v.6h-.6l.6.6v.6l-.6.6v.6h2.3v-.6l.6-.6h1.7l.6-.6h1.1v-.6H986l1.1-.6v-.6h.6v-.6l1.1-1.1V279l.6-.6,1.7-.6h.6l.6-.6v-1.7h.6v-1.1h.6v-.6h.6V273l.6-1.1v-.6h.6v-1.1h.6v-2.8h.1v-.6l-.6.6h-.6v-.6h.6l.6-.6v-.6h.6v-1.1H996v-1.1h-.6v-.6h.6l.6-.6h1.1v-.6h.6v.1l-.6-.6h.6v-.6h.6v.6h.6v-.6l.6.6v1.7h1.1v-.6h1.1v.6h.6l.6-.6v-1.7h-.6v.6h-2.3v-.6h.6v-1.1h1.7v.6h1.7v1.1h-.6v1.7l.6.6v1.1h.6l1.1,1.1v1.2h.6v.6h.6v2.3h.6v.6l-.6.6v1.2l-.6.6h-.6l.6.6h-.6l-.6.6h-.6V275h-.6v1.2h.6l-.6.6h-1.7v.6h-1.7v.6h-.6v2.8h.6v3.4h-.6v1.1h-.6l-.6.6-.6,1.1v1.7h-.6v1.1h.6l.6,1.7h.6v.6h-1.1l-1.1,1.1v1.7h-1.1v.6h-1.1v.6h-.6v.6h-.6V294h.6v-.6h.6v-1.2h-.6v.6h-.6v.6h-1.1l.6.6h-.6v.6h.6v.6h-.6l-.6-.6h-2.3v2.8h-.6v.6H989l-.6.6V298h-.6v-.6l.6-.6v-.6h.6v-.6h-.6l-.6-.6v.6h-1.1v.6h-.6v.6h-.6v.6h-.6v1.1l-1.1-.6h-4l-1.1.6V298h1.1l.6-.6H978v.6h-.6v-.6h.6v-.6h-1.2v-.6h.6v-.6h-1.1v1.1h-.6v.6h-.6v.6h.6v.6h1.1v.6h.6v1.1l-.6-.6v.6h-2.3v.6h-.2V302h-.6v.6H973l-.6.6v1.1h-.6l-.6.6h-.6l-1.1-.6h-.6v-1.1h-.6l-.6-.6H967V302h.6v-1.7H967v-.6h1.1l1.1-1.1V298h-.6v-.6H968v.6h-2.3v-.6h-2.8v.6l-.6-.6v.6h-.6v.6h1.1v.6h-1.1v-.6h-1.3v.6h-1.1v-.6h-.6v.6h-1.3l-.6.6h.2v.6h-1.2v.6h-.6l.6.6v.6h2.8v-.6h.6v-1.1h.6l.6-.6h2.3v.6H965l1.1-1.1v-.6h.6v.6h-.6v.6h.6v.6h-.6v.6h-.6v-.6H965v1.1h-.6v.6h.6v.6h.6l-.6.6h-.6l-.6.6h-.6v.6l-.6.6v.6h-1.2v-.6h-1.1l-.6-.6H959l-.6.6h-.6v.6h-.7V307l-.6.6h-.6v1.7h-2.3v-.6h.6v-.6H953v-.6h-.6V307h.6v-1.1h-.6v-.6h-.6l.6-.6v-1.5h1.1l.6-.6v-1.1h.6v-.6h.6v-1.2h-1.2l-.6.6v.6h-1.2l.6-.6v-1.1h-1.1l-.6.6v1.7h1.2v.6h-1.1v-.6h-.6v1.2h-.6l.6-.6h-.6v-.6H949v-.6h-1.7v.6H945v-.6h-.6v1.7l.6.6h.6l.6.6h1.1v-.6h1.1v1.1h-.6v.6h-.5v.6h2.3v1.8h.6v.6h-.6v.6H949v.6h-.5v1.1h-.6v1.1l-.6.4v.6l-.6.6v.6h.6v.6l-.6.6v1.1h-1.1v-.6H945v.6h-.6v.6h.6v.6h-.6v.6h-1.1v.6h-.6v-.6h.6v-1.7l-.6-.6h-1.3v.6h.6v.6h.6v.6h-2.3l-.6-.6v-.6h.6v-1.5h-.6v-2.6h-.6v-.6h-.4v-1.7h1.1v1.1h.6v.6h-.6v.6h1.1v-.6l.6-.6V310h.6v-2.2h-.6v-.6h-.6V306h-1.7v.6h.6v1.1h1.1v1.1h.6v.6h-.6v.6h-.6v-.6h.6v-.6h-1.1v-1.2l-.6.6h-.5l-.6.6v-.6h-.6v-.6h-.6v-1.1h.6v-.6h-.6v-.6h-1.2l-.6.6v-.6h.6v-.6h.6l1.2.2Zm48.5-25.6h-.5v.7l-.5.7h-.4v-1.5h-.5v-.7h.5v-.7h.5l.5-.7v.7l-.5.7h.9Zm9.6-29.3h-.6V250h.6v-.6h.6v.6h.6v.6h2.9v.6l1.1-1.2h.6v-.6l-.6-.6v-1.7h1.1v-.6h.6v-2.3l.6-.6v-2.7l-1.1-1.2V239l.6-.6v-.6h1.1v-.6h.6v.6h.6v.6h.6l2.3,1.7v.6l1.7,1.7h.6l1.1,1.2h1.1v.6l1.1.6h.6v.6h1.1l-.6-.6h.6v.6h1.2v.6h.6v-.6l1.1,1.2h2.3l1.1-1.2h.6v-.6h.6v-.6h.6v1.2h-.6l-.6.6v1.7l.6.6v.6l.6.6v.6h.6l.6.6h-1.7v.6h-.6v.6H1021v.6h-.6l-.6-.6h-.6v.6l-.6-.6h-1.1l-1.1.6h-.6l-.6.6-1.1.6v.6l-.6.6-.6,1.2h-.6v1.7h-1.1l-.6-.6-2.3-1.2h-.6l-1.1-.6h-.6l-.6-.6h-.6v-.6h-2.9l-1.1.6h-.6v.6h-.6v.6H999v-.6h-.6l-.6-1.2h-1.6l-.6.6v.6H995v.6h.6l1.1,1.2h.6l.6-.6v.6l.6.6h.6v.6h1.1v.6h-.6v.6H999l-.6-.6h-.6l-.6-.6v.6l-.6.6h-.4v1.2h-1.1v.6h-1.2v-.6l-.6-.6.6-.6V259h.6v-1.2l-1.1-1.2h-.6V256h-.6v-.6h.6v-1.7h1.7v-.6h1.1v-.6l.6-.6h.6v-.6l-.6-.2Zm3.3-12.8v-.5h.5v.5Zm3.7-39.9.6-.6v-.6h.6l-.6-.6h.6v-1.7h.5v-.6h-.5v-1.1h-.6v-.6l.6-.6h1.1l1.1-.6V192h1.1v-.6h.6v-.6h-.6v-.6h.6v-.6h.6v-1.1l-1.1-1.1h-.6v-.2h1.2v-.6h.6V186l.5.6v.6h.6l.6.6v1.1h-.6v.6h.6v1.2l.6.6v1.1h.5l.6.6v1.7l.6.6h-.6V197h-.6v.6h.6v.6h-.6v1.1l-.5.6h.5v.6l.6.6v1.1h.6v.6h.6v1.7l.5,1.1.5,1.7v.6l.6,1.7.6,1.1.5.6v.6l.6.6v1.1h.6v1.1l.6.6.5,1.1v.6h.5l.1.2,1,.4v1.1h-.6v-.6l-.5-.9-.6-.2-.5-.6h-.6l-.6-.6v-.6h-2.2l-1.1-.6h-1.1v.6h-.6v.6h-1l-.6.6v1.1l-.6.6-1.1,2.3v.6l-.6.6v2.8l1.1,1.1,1.7,1.7-.6.6h.6v1.7h.5v-.6l.6.6v.6h.6v-1.2h.6v1.7h.5v1.7h-.5v1.1h-.6v-1.7l-.6-.6h.6v-.6h-2.2v-.6h-.6l-.6.6v-.6l-.5-.6h-.6l-1.1,1.1-.5,1.1v1.1h-.6v.6h-.6v.6h-.4v-1.1l-.5-.6V231l-.6-.6.6-.6v-.6l1.1-1.7v-1.1h-.6v-2.3l.6-.6V223h.6v-2.9h-.6l-1.1-1.1v-1.1h.5v-1.1l.6-.6v-2.3h.6v-5.1h-.6v-2.3h.6v-.6l.6-.6v-.6l-.6-.6v-.6h-.6V203l-.6-.6v-.6h-1.1l-.6-.6h.6v-.6l-.5.2v-2.9Zm27.6,45.4v.5l-.5-.5v.5h-1.5v.5h-.5l-.5.5v.5h-.5v.5h-1v.5l-.5.5h-.5v-1h.5l.5-.5h.5v-.5h.5v-.5h.5v-.5h.5v-.5l.5-.5h.5v.5h1.5Zm1.2,260.4.6-.5h1.8v.5h1.2v-.5l.6.5-.6.5h-.6v.5h-2.4v-.5h-.6v.5h-1.2v-.5h.6l-.6-.5h1.2Zm2.4-262.7h1l.5-.6h.5v-1.2h.5v.6h.5v-.6h.5v-.6h.5v-1.2h.5v1.2h1v.6h-.5l-.5.6h-.5v.6h-.5l-.5-.6v.6l-.5.6h-.5l-1,1.2v.6h-1v-.6h.5v-.6h-.5Zm7.1,302.2h.6v1.1h1.7v-.6h2.3v1.2l-.6.6v1.1h1.7v.6h3.4v.6h-1.8V549h.6v.6h1.1v.6h1.2l.6.6h2.3l-.6.6h-2.3l.6.6h1.7v.6l-1.1.6H1050V552h-.6v-.6h-3.5v-.6h-2.8v-.6h-1.6l-.6.6v-.6h-2.2l-.6-.6h-.6v.6l-.6-.6V549h-.6v-.6h-.6v-.7l-.6-.6v-.6h-.9v-.6h-.6v-.6h-.6l-.6-.6.6-.6h-.6v-.6h-1.7v-1.7l-.6-.6h-.6v-.6l-.6-.6v-1.1h-.6v-.6h-.6v-.6h-1.1V537h-.6v.6l-.2-.6h-2.3v-.6h-2.3v-.6h-.6v-.6h-1.8v.6h.6v.6h-.6v-.6l-.2.6h-1.2l-1.1-.6v-.6h-.6v.6l.6.6v.6l.6.6h-1.7v1.2h-2.3v.6h.6v.6l.6-.6h1.1v.6h-.6v.6h-.6l.6.6.6.6h-.6l-.6-.6h-.6l-1.1-1.1h.6v-.6h-2.8v.6h1.7v.6l1.1.6.6.6v1.7h-1.1l-.6.6h-.6v.6h-1.7v.6h.6v.6H1009l.6-.6h-.6l-.6-.6h-1.1v.6h-.6v-.6h-4v-.6h-.6l-.6.6h-.6l-.6-.6h-.6l-1.7-1.7-.6-1.1h-.6l-2.3-2.2-.1-.6h-1.7l-.6.6H991l-.6-.6h-.6l-.6.6H988v.6h.6v.6h-2.3v-.6l.2-.2-.6.7h-4.5l.6-1.7h.6V538l.6-1.1.6-.6v-.6h.6l.6-.6,1.1-.6h2.3l.6.6v-.6l-.6-.6h-.6v-.6h.6v-.2h-.6l-1.1-1.1h1.1v-1.2h.6l-.6-.6h-.6v-.6l-1.1-1.1v-1.1h-.6v-1.1h-.6v-.5h-.6v-.6H983v-.6h.6v-1.1l-.6.5-.6-.6h-.6v-.6h-.6l-.6-.6H980v-.6h-1.1V521h-1.6v-.6l-.6.6H976v-.6h-1.1v-.6h-1.1v-.6h-1.7v-.6h-.6l-.6-.6h-4l-1.1-.6v-.6h-1.1v-.6H964V515l-.6.6-.6-.6h-.6v.6h-.6V515H961v-.6h-1.1v-.6l-.6-.6h-.6l-.6-.6V512h-.6v1.2l-.6.6v1.1l-1.1.6h-1.1v.6H954v-.6h-.6v-1.1l-.6-1.1h1.1v-1.1h-.6v-1.1l.1.6h-.6v-.6h-.6v-.6h-1.1v-.6h-1.7v-1.2h3.5l.6.6h.6v-.6l1.7-1.7h1.1v.6h1.2V507h.6v1.2h1.2V507l-.6.6V507h1.2v-1.2l-.6.6v-.6h.6v-.6h-1.1v.6h-4v.6h-.6l-.6-.6h-.9v.6h-.6v-.6h-1.1l-.6.6v-.6h-.6v-.6h-1.1v-.8h-.6v-.6h.6v-.6h-.6V502l-.6.6h-.6V502h-1.7v-.6h-.6v.6h-.6l-.6-.6-.6.6v-1.1h-1.1v-.6h-.6v-1.1l.6-.6h-1.7V498h2.3v.6H944v1.2l-.6.6v.6l.6-.6h.6v-.6h.6v-1.1h-.6V498h2.3l1.1-.6h.6v-.6h.6v-.6h.6v-.6h3.4l1.1.6h1.1l1.1.6v.6h1.7v.6h.6v-.4h1.7v.6h.6v.6h-.5v1.1h.6v.6h.6v2.2h-.6v1.2l.6-.6v1.1h-.6v2.8h.6v.6h.6v1.1h.6v-1.1h1.2V510l.6.6V510h.6v1.7h.6v.6h1.7l.6.6v-.7h1.1v-.6l.6-.6h.6v-.6h.6l.6-.6v-1.1h.6v-.6h1.1V507h.6v-1.1H977l.6-.6h1.1v-1.1h-.6v-.6l1.7-.6.6-.6,1.7-.6h1.1v.6h1.1l.6.6H986l.6.6h.6l.6.6h.6l2.3,1.1h.6v.6h.6l.6.6h1.1v.6l1.1-.6h.6l.6.6h2.3l.6.6-.6.6h3.4l.6.6,2.3,1.1h1.1l.6.6h.6v.6h1.1l.6.6h.6l1.1.6h2.8l1.1.6.6.6h.6v.6h1.1v.6l.6.6h2.9v.6h.6v.6h1.1l.6.6.6.6v.6h1.7l2.3,2.2v.6h.6v2.2h-.6v1.1h1.7l.6.6h1.7v.6h.6l.6.6h.6l.6.6h1.1v.6h2.8v.6h.6v1.1h.6l.6.6v1.7h-1.7v.6h-.6v-.6l-.6.6-1.1-.6h-.6v.6l-.6-.6v1.7h.6v1.1h.6V536h1.1v.6h.6v.6h.6v.6h.6v.6h1.1l.6.6h1.2v1.7l.6.6v1.1l-.9-1.3v2.1Zm6.9-18.6V524h.6v.6h1.2V524h.5v-.6h-.5v-.6h.5v-1.2h.6V521l.6.6-.6.6v2.4h1.1V524h1.7v.6h.6V524h1.7v-1.8h.6v-.6h.5V521h-.5v-.6h.5v.6h.5l.6-.6v.6h1.1l.6-.6v-.6h-.6V518h-.5v-1.8h.5l.6.6h.6l.6.6h.5v-.6h.5v-.6h.6v.6h-.6l.6.6h1.1l-.5.6v.6h.5v1.2l-.5.6v.6h-2.2v1.2h.5v.6h.5V524h-.5l-.5.6h-2.2v.6h-.6v.6l-.6.6h-.5v.6h-.5l-.6.6V527l-.6.6-.6-.6v1.2h-1.7v.6h-5v-.6l-.5-.6h-1.7v.6h-.5v-.6l-.6-.6h-.6v-.6h-1.2v-.6h-.6v.6l-.6-.6h-.6V524h2.2v.6h.6V524h1.1l.6.6ZM933.8,492.7v-.2l-.5-.2h.5v.2l.5.2h.5v.5h-.5v-.5Zm-1.1,16.5h1.1l.5-.5h2.2v.5h1.1l.5.5h.5l.6-.5h.6v.5l.6.6h.5v1.1h.6v.5h.6v.6h.6v.6h-.6v1.1h-.6l-.6-.5h-.5v-.6h-1.1l-1.1-.6-.5-.6v-.5h-2.8l.6.5h-2.2l-.6-.5h-.6v-.5H931l-.6.5v.5h-1.6l-.6-1.1h-.5v-.6h-.5v1.1h-.6l-.6-.5v-.6h.6l.6-.6h.5v-1h5v.6Zm3.9,28.9v.5l-.5.5h-.5l-.5-.5.1-.5Zm-7.8-25.2h-1.4v.5H926v-.5l.5-.5h3.3v.5h-.5l-.5-.5Zm-4.5,25.7v-.5h3v.5h.6v.5h-1.2v-.5h-2.4Zm0-27.5.5-.5.5.5Zm6.3-201.3h-.9v-.5h.5v-.5h.5l-.6.5h.5ZM922.9,501h.5l.5-.7-.5-.7v.7l-.5-.7h1v.7h.5v.7h1l.5.7v.7h.5v.7h-3.2l-.5-.7h.2ZM912,545.4h-1.1v.5h-.6v.6h-.5v.6l-.5.5h-.6v.5h-.6v.6h-.5v.6H907v.5h-2.2v.5h-.6l-.6.6h-2.2v-.6h-.5v.6h-.5v-.6h.5v-.5h.5v.5l.6-.5h1.1v-.5H902v-.6h.6V547l.6-.6h.5v-.6h.6v-.5h1.1v-.5h1.7l.6-.6h.5v-.6h1.1V543h.5v-.5h.5v-1.1h2.2v-.6h3.9l.6-.5h1.1v.5h.6v-.4h1.1l.6-.6H922v.6h.6l-.6.5h-.5v.6H921v.6h-2.2v.6h-.6v.5h-.6l-1.7.6-1.1.6h-1.1v.6l-1.1-.1ZM896.7,555h1.8v-.7h.6v-.7h.6l.6-.7v1.4l-1.2,1.5h-1.2v.7h-.6v-.7h-.6V555Zm-5.5-13.2v-.5h-2.3v.5h-2.3l-.6-.5h-3.6l-.6-.5v.5h-1.7V540h.6l-.6-.5h1.7V539H887v.5h1.2v.5h.6v.5H890V540h2.3v-.5h.6v.5h.6l.6.5h1.2l.6-.5h-.6l.6-.5h1.2V539h.6l.6-.5h-1.2V538h1.2v1h.6l.6-.5h1.2v1h.6v-1h.6v.5h.6v-.5h1.8v.5h1.2v-.5h.6v.9h-.6v.5h-.6l-.6-.5h-.6l.6-.5h-1.2l-.6.5h-.6v.5h-.6v.5H901v-.5h-.6v-.5h-.6v.5h-1.2v.5h-2.3v.5h-2.9v.5h-1.5Zm.9,11v.5h-.5v.5l-.5-.5.5-.5Zm-8.6-3h-.6v-.5l-.6-.6h-.6l-.6-.6h-.6v-.5h-2.8l-.6-.5h-.6v-.6h.6v-.6h1.1v-.5h2.9l.6.5v-.5h1.1v.5h1.1V547h1.7v.5h.6v.5l.6.6h.6v1.1h-.6v.5h-1.1v.6h-.6v-.6l-1.6.1v-.5ZM871.7,542h-1.6v.5h-1.6l-.5.6h-2v.6h-1.1v-.6h-1.1v-2.2h.5v-.6h1.1v-.5h2.1v-1.1l.5-.6h3.2v1.1h1v-.6h.5v.6h2.7v1.7h1.1v.6h-2.6v.6h-1.6v-.6l-.5-.1v.6Zm-13.6.6h1.2V541h.6v-.6l.6-.5h1.8v.5h1.2v.5H863V542h-.6v1.6h-3.6v-.5h-.6v-.5Zm16.6-35.9h1.1v-.6h.6v-1.7l.6-.6v-.6l.6-.6.6-.6h-.7v-3.3h.6V498l.6-.6v-.6l1.1-1.1.6.6v-1.7h-.6l.6-1.1v-1.1l.6-.6v-.2h-.6v-1.1l.6-.6v-.6h.6v-1.1h.6l.6-.6v-1.1h.6l.6-.6v.6h-.6v1.1h1.7v-1.1h1.2v-1.7H888v.6h1.7v.6l.6.6h.6l1.7-.6v.6h2.8l.6.6h1.1v.6h.6l.6-.6h2.8l.6.6v-.6h.6v.6H904v-.6h1.1v-.6h.6l.6-.6v-.6h1.1l-.6-.6h.6v-.5h1.1v-.6l.6-.6h1.7v1.1l.6-.6v.6h-1.2v.6l-.6,1.1v.6H909v.6h-1.1v1.1h-.6v.6H907v1.1h-1.7v.6l-.6-.6v.6h-2.3v.6h-.6v-.6h-2.3v-.6l-.6-.6h-5.1v.6l-.6-.6-.6.6h-1.1v-.6h-1.7l-.6.6v-.6h-.6v.6h-2.3v-.6h-2.8v.6h-.6v.6l-.9.5v1.1h-.6v3.4l.6.6.6,1.1h1.1v.6h.6V499l.6.6v.6h.6l.6-.6v.6h1.7v-1.1h.6v-.6h.6v-1l.6-.6h.6v-.6h.6v.6h1.1v.6h.6V497h1.1v-.6h4.7v-.6H897v-.6h3.4v.6h.6v1.1h-.6v.6l-.6.6v-.5h-.6V497l-.6-.6v.6H897v1.1h-.6v.6h-.6v.6h-.6v.6h-.6v.6H894v.6h-1.7v.6h-1.1v1.1h-1.7v.6h.6v.6l.6.6h.6l.6.6v.6h.6v.6l.6.6v.6h.6v.6h.6v1.2h.6v.6h.6v.6H895l-.6.6v1.1h-.6v.6h1.1v.6h.6l.6.6h.6v1.7h1.1l-.6-.6h.6v2.3h.6v-.6h.6v.6l.6.6v1.1H899v.6h-.6v1.7h.6l.6.6v.6H899v.6l-.6-.6-.6.6v1.1h-1.1l-.6-1.1h.6V523h-.9v-.6h-1.2v.6H894v-.6h.6v-4h1.1v-.6h1.1v1.7h.6v-2.8l-.6-.6v.6h-.6l-.6-.6v.6h-2.3v.6h-.6v1.1h.6v.6h-2.8v-.6h-.6v-.6h-.6v-.6l.6-.6v-1.1l.6-.6v-.6h-1.1l-.6-.6V513h-1.2v-.6l-1.1-1.1h-.6v-.2h.6V510h.6v-3.3h-2.3v.6h-.6l-1.1,1.1h-.6v1.1h.6v.6h.6v3.3H883v1.7h.6v1.2H883v.6h.6v2.2H883v1.1l-.6.6h.6v.6l.6.6v1.1H883v-.6l-.6.6h-2.3v.6h-1.3v-.6h-.6v-.6l-.6-.6v-.6h.6v-1.1h.6V518l.6-.6V514h-.6v-1.1h-.6l.6-.6v-1.2h-2.4v.6h-1.1v-.6h-.6v-2.2l.6-.6v-.6l-.6.1v-1.1Zm3.6-41.1v-.9h.5v.9Zm4.6-40.2h1v1h-.5v-.5H882v-1.4h.5v.5l.4-.1Zm0-9.7-.5.5v-.5h-.5v-.5h.5v.5Zm4.6,1.3v.6h1.8l.6.6v.6h.6v.6h.6v.6h-.6v1.7h.6v.6l-.6.6v.6H890v.6h-.6v.6h-1.2v-1.2h-.6v-1.1H887v-.6l-.6-.6v-1.7h-.6V419h-.6l-.6-.6v-.6H884v-.6h2.4v.6l.6-.7h.5Zm-1.8,43.1v-.4h1.2v-.5h.6l.6.5h1.2v.5h-.6l-.6.5v-.5h-2.4v-.1Zm-3.3-33.9v.5h-.5v-.5Zm1.5,37.2h-1.5v.5h-1.5v.5h-.7v-.5h.7l.7-.5h.7v-.5h1.5v.5Zm7.3-3.7v-.5l.5.5Zm1.8-3.3V456l.5-.5h.9l.5.5v.5h-.5v.5h-1Zm23.4,46.3h-8.3v.5h-2.3v-1h.6v-.9h1.7v.5h3.4v.5l5.4-.1Zm-4.1-29.3h-.5v-.5l-.5-.5v-.5h.5v.5l.5.1Zm3.1,32.4H915v-.7h.9V508h.5l-.5.7V508h-.4v-2.2Zm3.3,30.4h1.8v.5l-.6.5h-.6v.5h-3.7l-.6.5v-.9h.6v-.6H918ZM908,538.1l.5.5v-.5h1v1l-.5.5h-3.2v-1l.5-.5h.5v.5h.7Zm-3.6-11v.5h-.5v-.5ZM899,501v1.5h-1v-.7h-.5l-.5.7-.5-1.5.5-.7v-.7h1.3v.7h1v-.7l.5.7h.5v.7h-.5v.7h.5v1.4h-.5v-1.5h-.5V501Zm1.8,2.2-.5.5v-.5Zm-1.4,12.9.5.5v.5h-.5v.5h-.5l-.5-.5v-.9h.5v.5l.5-.1Zm-8.2-20.7v-.5h.6v-.5h1.8v-.5l.6.5v-.5h.6v.5h-1.2v.5h-1.8l.6.5Zm4,17v.5h-.5Zm-2.2,9.2h.5v.5h.5v1.4h-.6V523H893Zm-8.8,4.7v2.6h-.5v-3.7h.5Zm-6,14.5v-.9l.5.5h.5v.5h.5v.9h-.5v-1h-1Zm40.9-74.2h.5v.6h.5l-.5.6h.5v.6l-.5.6v1.2h-1v-.6l.5.6v-.6l.5-.6v-.6h-.5Zm-2.7-167.8h-1v.5H915v-.5h.5v-.5h.5v-.5h.5l.5.5h-.5v.5Zm.6,139.5v-1.2h.6v1.2l.6.6H917v1.2h-.6v1.2h.6v.6h1.2v1.2l.6.6v1.2h-.6v.6h-.6v.6h1.7v1.8h-.6v.6h.6v2.3h.6v.6l.6.6v1.2H920l.6.6H920V455h-1.2v1.2l-.6-.6h-.6l.6.6v2.9l-.6-.6v-2.3H917V455l-1.2-1.2v-.6h-.6v.6h-.6V455H914v.6l-.6.6v1.2h.6v.6h.6v1.2l.6,1.2v1.2h-.6l-.6,1.2-.6.6H913v-.6h-.6V462h.6v-1.2h-1.2V462h-.6v.6l-.6-.6h-1.2l-.6-.6-1.2-.6-.6-.6h-.6v-.6h-.6v-1.8l-.6-.6.6-.6H905v-1.7h.6l.6-.6v-.6l.6-.6h-.6l-.6-.6v-.6H905l-.6-.6h-.6l-.6-.6H902v1.2h-.6v1.2h.6v.6h-.6v-1.2h-.6v-.6h-.6v-1.2h-.6v1.2H899v.6h.6v.6h-1.2v-2.4h-1.7v1.2H896v1.2h-.6v1.2l-.6.6v.6h-1.2v-.6H893v-.6l1.2-1.2v-1.2h.6v-1.2h-.6l1.2-1.2v-.6h1.7l.6-.6h1.7v-1.7h.6V446h1.7v-1.2h.6v.6h1.2l.6.6v.6h.6v1.7h1.7v-.6h.6V446h.6v-.6h.6v.6h1.2v.6h.6v-2.9h1.2l.6.6h.6v-1.2h.6v.6h1.2v-2.9h-.6v-2.3l.6.6h.6v1.2h1.7v-1.2l.2.1v-.9Zm-23.1-19.9H893V417h.9l.5.5v.5l-.5-.1Zm0,4.9-.5.7v2.2h-.5v-3.7h1Zm.2,3.5h1.1l.6.6h.6v.6h.6v.6h.6V428h1.1v1.2l.6-.6h.6l.6-.6v1.8H900V431h-.6v.6h-1.1v1.2h-1.1v.6h1.2v.6l-.6.6h-.6v-1.2h-1.7v.6h-1.1v.6l-.6.6v-3.1l.6-.6v-4.3h-.6v-.6h-.6V426h1v.8Zm.8-3.8v-.5l.5.5Zm0-.5h.9v1h-.5l-.4-.5Zm4.5-3.1v.5h.5v.5h-.5l-.5-.5v-.5h-.5v-.5h.5v.5Zm4,2.9-.6-1.1v-.5l1.2,1.1v.6h-.6v.6l.6.5h.6l.6.6v1.2h.6v1.1l-1.2-1.1h-1.2v-1.2h-.6v-.6h-1.2v.6H901v.6l-.6.6v-1.1h.6v-.6h-.6v-.5h.6v-.6h.6v-.7H901v-.6l.6.6h.6v.6l.6-.1Zm1.5,13.7h1v1.8h-1v.6l-.5.6h-1.3l-.5-.6v.6h-.5v-.6h.5v-.6h-.5v-.6h.5v-.6h1V436h.5v-.6h.9v.6Zm2.8,4.9h.9v1h-.5v-.5h-.4Zm-5.5.5.5-.5h.5v1h-.5v-.5Zm-1.3-2.1v1.2h-.5v.6l-.5-.6v.6l.5.6h-.5v1.2h-1.6v-.6l-.5-.6v-.6h-1.1v-.6h-.5v-.6h-.5v-.6h-.5v-1.2h.5v-.6h1.6v-.6h.5V434l.5-.6v-1.2h.5l.5-.6h1.1v.6h1v1.2h-.6v1.2h-.5v1.2l-.5.6v1.2h-.5v2.9h.5l.5-1.7v-1.7h.5v-.6h.5v-1.2l.5-.6V434h.5v-.6l.5-.6v-1.7h.5v-1.2h.5v2.9h-.5v.6l.5.6v.6h-.5v1.2h-1.1v.6h-.5v1.2l-.2.4Zm1.3-8.9v-.5h.5v.5Zm10.1,5.8h-.5v-.5h-.5v-.5h.5v.5Zm1.8,1h-.5V436h-.5v-1.2l.5-.6v-.6h.5v1.2h-.5v.6h.5Zm-.9-5v-.5h.5v.5Zm-5.5-3.7V428h.5v.5Zm-3.3-9.6v.5h-.5v-.5Zm-23.8,9.6V428h.5l-.5.5h-.5V428Zm213,113.7-.5-.5h.5Zm2.7-.4v-.5h-1.1v-.5l-.6-.5h-1.1v-.5h-.5v-.5h.5l-.5-.5h-.6v.5h-1.1v-.5h.6v-.5l.6-.5h1.1v.9h1.1v1h.6v.5h1.1v1h.6l-.1.6Zm-25.1,112.4v.6l-1.1,1.1v.6l-.6.6v2.3l-.6.6v2.3l-.6,1.1-.6,4-.6.6v1.7l-.6.6v1.1l-.4.6-1.2.6v2.3l-.6.6-.6.6-.6.6v.6h-1.7v.6l-1.7,1.1v1.1h-1.2v1.2l-.6.6v1.2l-.2.6.6.6h-1.2v1.2l-1.2.6v1.7l-.6.6v.6l-.6.6.6.6-.6.6-.6.6-.6,1.1-.6.6-.6.6v.6l-.6,1.7-.6,2.8-.6.6v1.1l-.6,1.7.6.6v1.7h-1.1l-.1.6-.6.6h-7.5l-.5-.9h-1.2l-3.4,1.7-2.3,2.3-.6.6h-3.4l-.6.6.6.6h1.1v1.1l-.6-.6-.6-.6-.6-.6-.6.6-.6-.6-.6-.6-.6-.6v.6h-1.1v-.6l-1.2-.6.6-.6h-1.1l-.7.6-1.7-.6h1.7V707l.6-1.1-.6-.5h-1.1v.6l-1.7.6-.6.6h1.1v-.6l.6.6v.6h-1.7l-.6.6-1.2.6-.6.6-.6.6h-1.1v.6l-.4.6-.6-.6H1013v-.6l-.6-.6h-1.7V709h-1.1v-.6h-2.8l-.6-.6h-1.7v.6h-1.7v-.6l-1.1-1.1h-3.4v-.6l-.6-.7-.6-.6-.6-.6-.6-.6V703h-1.1l-.6-1.1-.6-.6v-1.8l.6-1.1-.6-1.7-.6-.6-.6-1.1-.6-.6-1.1-.6v-.6l-.6-.6h-1.2v-1.2l-.2.6h-1.1v.6h-2.8V692l.6-.6.6-.6.6-.6v-.6l.6-1.1v-.6l-.6-.6-1.1-1.1v-1.1l-.6-.6-.6.6v.6l-.6.6v2.3l-.6,1.1-.6.6h-2.8v.6h-1.1l-.6.6v-1.2l.6-1.1h2.8v-4.5l.6-.6V683l.6-.6,1.2-.6V680l-.6-.6.6-.6.6-.6-.6-1.1v-.6l-.6,1.1v.6l-.6-.6-1.7,1.7v1.1l-.7.9v.6l-.6.6h-1.7v.6h-1.1v.6l-.6.6H974v.6l-.6,1.1-1.2.6v.6l-1.2.6v.6l.9-.5v1.2l-1.2-.6-.6.6-.6-.6-.6-.6-.6-.6-.6-.6.6-1.7-.6-1.7-1.7-1.1-.6-2.2H964v-1.2l-.6.6h-1.2l-.2-1.1-.6-.6v-.6l-.6-.6h1.1v-1.1h-1.7l-.6.6v-1.1l.6-.6H959v-.6l-.6-.6-.6.6-.6-.6v.6h-1.7l-.6-.6-1.2-.6h-1.1v-.6l-.4.6H951v.6l-.6-.6-.6-.6-1.1-.6-.6-.6-1.7-.6h-1.1l-.6-.6-1.2.6h-8l-.6.6H932l-1.1.6-.6.6-2.3.6-1.1.6h-1.7l-1.1.6-1.7.6h-5.8v-.6l-.6.6h-1.7v.6l-1.7.6v.6h-1.7l-.6.6-1.2.6-1.2.6h-1.1l-.6.6h-1.1v.6l-.6,1.1-.6,1.7h-1.1v.6l-.8.5-.6.6h-1.7v.6l-.1-.6-.6-.6-.6.6h-4v.6h-1.1v-1.1l-1.2.6-.6-.6h-2.7l-.6.6v-.6h-1.1l-.6.6h-1.7l-.6.6v-.6h-2.8l-.6.6-1.7,1.1v1.1l-.6.6h-1.7v-.6h-1.7l.6.6h-1.1v.6l-.5.6h-1.2v1.1h-1.1v.6h-1.7l.6.6-1.2-.6h-1.1v.6l-.6-.6H862v-.6l-.6-.6v.6l-.6-1.1H859v-.6l-1.7-1.7h-1.1l-.6-.6h-1l-.6-.6v-.6l-.6-2.8.6-.4v.6h2.3l.6-.6v-.6l.6-.6.6-.6-.6-2.3.6-.6h-1.2l.6-.6.6-1.7v-2.7l-1.1-1.1v-.6l-.6-1.1-.6-.6v-1.1l-.6-.6-.6-1.1-.6-.6v-1.7l-.6-5.7-1.7-1.7v-.6l-.6-.6.6-.6-1.7-1.7v-.6l-1.2-.6v-2.3l-.6-1.7v-.6l-.6-.6-1.1-1.7-1.1-1.1v-.6l-1.1-.6v-.6l-.6-.6v-.6l.6-.6h-1.2v-.6l-.6-.6v-.6l-.6-1.7.6,1.7.6,1.1.6.6.6-.6v.6l.6.6v.6l.6.6v1.1l.6.6.6-.6.6-2.3h-1.2V639l-.6-.4-.6-.6v-1.1l.6-.6v.6l.6.6v.6l.6,2.3.6-.6v-.6l.6,1.7.6.6v.6l.6-.6.6-1.1v-2.3l-.6-.6-.6-.6-.6-.6-.6-1.1v-.6l-.6-.6-.6-1.7-1.1-1.1v-3.4l.6-.6v-.6l.6-.6v-.6l.6-1.1v-1.2l.6-1.5-.6-.6h-.7v-1.1l.6-1.1,1.2-1.1v-1.1l.6-.6.6,1.7V620l.6-.6,1.2-.6v-1.1l.6-.6.6-.6v-.6l1.7-.6.6-.6h1.1l1.1-.6v-.6l.6-.4,1.2-.6.6-.6.6-.6h1.1v-1.1h1.7l.6-.6,1.2-.6v.6h1.1l.6-.6.6.6h2.3l1.2-.6.6-.6,1.1-.6h1.2l.6-.6h2.3v-.6l1.2-.6,1.2-.1h1.7v.6l.6-.6h1.1l.6-.6h2.3l1.7-.6,1.1-.6.6-.6,1.1-.6,1.2-.6.6-1.1.6-.6v-1.1l.6-1.1.6-1h1.1l.6-.6v-.6l1.2-.6.6-1.1H895v-4l.6-1.1,1.1-.6.6-1.1.6.6v-.6l.6-1.1.6-.6.6,1.1h1.2v1.7l.6.6v.6l.6,1.1.6.6.6-1.7v-1.1l.6.6.6-.6.6.6v-1.1H904V587l-.6-.6v-.6l.6-.6v-.6l-.6-1.1h1.1v1.2h1.2v-.6h1.1v1.1l1.2-.6v-1.7l.6.6.6-1.7-.6.6v-.6l-.6-1.7h1.2v-.5l.6-.6H911v-1.2l.6-.6.6.6h1.7v-.6l-.6-.6V576l-1.2-.6h1.1v-.6l1.2-.6.6-.6.6.6.6.6.6-.6.6-1.1V571l.6.6v.6l.6.6.6-1.1h1.1l-.6.6.6.6.6-.7.6-.6.6-.6-.6-.6.6-.6.6.6.6.6H925l.6.6v.6h1.1v.6l.6,1.1.6.6.6.6.6-.6v.6l.6.6v1.7l.6-.6h1.2v-.6l.6-.6v.6h2.3v.6h1.1v1.1l.6-1.1v-.6l.6.6.6.6.6.6.6-.6-.6-.6v-.6l.6-.6-.6-.6v-.6l-1.2-.6v-1.1l.6-.5.6-.6H939v-2.4l.6-.6h1.1l1.1-1.1-.6-.6-.6-1.1.6-.6v.6l.6-.6.6-1.5,1.2.6v-1.8h2.2v-1.1h1.1l1.2.6H952l.6-.6h1.2l-.6-.6.6.6.6-.6.6-1.7-.6-.6.6-.6-.6-.6h-2.3l-.6-.6h-4v-.6l.6-.6.6.6v.6l.6-.6.6-.6.6.6.6-.6v-.9l.6,2.3v.6h1.2v-.6l.6.6v-.6l.6,1.1.6.6.6.6.6-.6V558l.6.6-.6.6h2.3l.6-.6v1.2h1.1v.6l.6-.6v1.1l.6-.6.6.6h1.7v-.6l.6.6.6.6,1.2.6,1.2-.6v.6l.6-.6v-.6h1.1v-.6h1.1v.6l-.6,1.1.6-.6h1.1v1.7h1.7v-.6l.6-.6v-.6l-.6-.6.6-.6h1.2v1.1l.6.6.6-.6.6,1.1-.6.6v.6l-.6.6-.6.6h-1.6v.6l1.2.6h-1.2l.6.6-.6.6-.6.6v-1.1l-.6.6-.6-.6-.6.6-.6.6-.6.6.6.6-.6-.6v1.7l.6.6v-.6h1.7v.6l-.6.6v-.6h.1v.6l-.6.6V573l-.6.6-.6.6-.6,1.1-.6.7-.6.6,1.1,1.1.6.6,1.2.6.6.6H972v.6l.6,1.1h1.1v-.6l.6.6-.1.6,1.2.6v.6h2.8v.6l1.2.6,1.7.6.6.6v.6l.6.6,1.7,1.1h2.3l.6.6h1.7v.6l.6.6v1.1l.6.6h1.1l1.1,1.1h1.1l.6.6,1.2.6.6-.6h1.7v-.6h1.1v-.6l.6-1.1.6-1.1.6-1.1V588l.6-.6.6-1.7.6-1.1.6-.6-.6-.6v-.6l.6-1.1V581l.6-1.1v-1.1l.6-1.1-.6-5.1-.6-.6v-.6l.6-1.1v-1.1l.6-1.7-.6-.6.6-.6.6-1.1.6-1.5-.6-.6-.6.6-.6-.6.6-1.1.6-1.1.6-.6v.6l.6-2.3,1.1-1.7v-2.3l.6-.6.6-.6.6-.6.6,1.1.6.6.6,1.7.6,1.1v2.3l.6.6.6-.6.6.6-.6,1.1v1.1h1.1v1.1l.6,1.7.6,2.8.6,1.7-.6.6.6,1.1.6,1.1.6.6v1.1h1.1l.6-.6.6-.6,1.2-.6,1.2.6v1.2l1.2.6.6.6.6.6h1.1v.6l.6.6-.6.6v.6l.6,1.1v2.9l.6,3.4.6.6.6.6.6,1.1,1.2-.6v2.2l.6,1.7.6,1.1v1.1l-.6,1.7.6.6v-.6l.6.6.6.6v1.1l-.6.6v.6l.6.6.6.6.6.6h1.1V600l.6.6v.6h1.1v.6h2.3v.6l.6,1.1.6.6.6-.6.6,1.1h1.7l.6.6v.6l.6.6.6-.6.6.6.6.6.6-.6v.6l.6,1.1-.6-.6h-3.2v1.8l.6.6.6.6h1.2l-.6.6h1.1v1.7l.6.6v.6l.6.6.6.6-.6.6.6,1.7.6,1.1h1.2v.6l1.2.6v-.6l-.6-.6V618l.6-.6.6.6.6,1.1h1.1v.6l1.2.6v-.6l-.6-.6v-1.2l.6.6v.6l.6,1.1.6-.6v5.7h1.1v-.6l.6.6.6.6.6.6.6.6v.6l.6.6.6-.6.6.6.6.6.6.6.6.6v.6l1.7,1.7,1.2.6v1.1l.6.6v.6h1.7l.6-.6.6-.6.6-1.1-.6-.6.6.6.6.6v.6l-1.7,3.4.6.6-.6.6.6.6.6-.6v.6l-.6,1.1-.6.6v.6l.6,2.3v.6l.6.6v.6h-1.1V647l.6.6.6.6.6.6.6-.6V646l.6.6-.6,1.1v2.4l.6.6V653l.6.6Zm183-527.4-2.8,1.2-2.3,1.8,4,.6h-3.9l-3.1,1.1-2.8-1.2-2.9-1.2-4-.6-2.9-1.3-.6-2.4-3.3-.6-3.4-.6-7.2,1.2v2.3l-2.9,1.2-4.2,1.2-3.7-.6-3.6.6,1.2,1.8h3.6l1.7,1.7,1.2,1.8,1.2,1.8,2.4,1.8,1.2,1.8-1.2,1.8-3.6.6-3.6-.6-4.8-.6-3.4.6-6.5,1.8-4.4,1.2-2.9,1.2-3.7.6-2.6,1.8-3.1,1.2-3.7.6-1.8,1.8-3.1,1.2-3.1,1.2-1.2,1.8-3.1-1.2-.6-2.8-3.6-.6h-4.3l-3.4.6-3.4.6-2.9,2.3-1.7-1.7h-3.9l-1.8,1.8-3.7-.6-3.1,1.2h-3.7l-1.2,1.8-.6,2.4L1121,162l-2.9,2.3-1.2,2.3,2.4,1.8,3.1-1.2,1.8,1.8-2.9,1.8.6,2.4,2.4,1.8.6,2.4-3.7.6h-3.8l-1.2,2.4v2.4l1.2,1.8-.6,2.4-3.7.6h-3.6l-2.4,1.8-1.8,2.3v2.4l-2.7,1.2-2.9,1.2-1.2,1.8-.6,2.4-1.2,1.8-2.4,1.8-2.4,1.8-3.1,1.2L1087,204l-.1-2.4v-2.3l-1.2-2.8-1.2-1.8V192l-.6-2.2-.6-2.4-1.2-2.3V184l-.6-2.3.6-3.5.6-2.4,1.2-2.3,3.1-1.8,2.4-1.8v-2.4l3.4-.6,3.1-1.2,3.1-1.2,3.1-1.2,3.7-1,1.2-1.8,2.9-1.2,3.1-1.8,3.1-1.8,3.1-1.8,1.8-1.8,3.6-.6,3.7-.6,1.2-1.8,2.3-1.8-1.2-1.8,1.8-1.8,2.4-1.8,3.7.6-3.1-1.2-5.5-.6-3.7.6-1.1,1.8-1.2,1.8,1.2,1.8h-3.7l-3.2,1.2-3.1,1.2-2.4,1.8-3.1,1.2-1.2-1.8-3.1-1.8,2.4-1.8H1104l-3.1-1.2-3.7.6h-5.3l-3.1,1.2-1.8,1.8-3.6,1.8-1.8,1.8-3.6,1.2-1.7,1.8-1.2,1.8-1.2,1.8,3.7.6,1.8,1.8h-3.6l-3.7.6-3.1-1.2-2.8,1.2h-4.9l-2.8,1.2-1.2-1.8,3.9-1.2-2.3-1.8-3.9-.6-5.3-.6-3.4-.6-1.1,1.8-4.7,1.2-3.9.1-5.1-.6-2.9,1.1-2.9-1.2h-5.1l-4-.6-6.7.6-3.4,1.2-3.3,2.9-4,1.2-1.7,1.8-1.7,2.3-2.9,1.2-3.4,1.2-1.6,1.8-2.9,1.2-1.7,1.8-1.7,1.8-2.9,1.2-2.2,1.8-2.8,1.2-2.9,1.8L967,185l2.3,1.8,5.1.6,1.2,2.9,1.7,1.7,1.2-1.8-1.1-2,3.6-.6-1.1,1.8-1.1,1.8,3.4.6,2.3-1.8,3.1-1.2,3.9-1.1,3.3,1.2,1.7,1.8,2.9,1.8,2.3,1.8-2.9,1.2,1.7,1.8.6,2.4-.6,2.4-1.7,1.7-1.1,1.8-1.2,1.8-.4,2.4.6,2.3v3.4l-1.2,2.3-.6,2.3-1.2,1.8-2.8,2.3-1.7,1.8-1.6,1.7-1.7,1.7-1.2,2.3-1.8,2.3-1.8,1.8-1.8,1.8-1.3,1.8-3.4,2.3-1.8,1.8-2.1,1.8-1.8,1.7-1.7,1.7-1.7,1.8-3.1,1.2-2.7,1.8-4,.6-3.3-.6-1.7-1.7-3.1,1.2,1.2-1.8-2.3,1.8-1.8,1.8L942,256l-2.9,1.8-1.8,1.8-1.8,2.3.6,2.3-1.8,1.8-2.3,1.7-1.7,1.7-3.9.6-2.3,3.5,1.1,1.8,1.2,1.8,2.9,1.8,1.2,2.3,1.7,1.8,1.2,1.8,1.2,2.3.6,4-.6,2.3.6,2.8L934,298l-2.9,1.7h-3.6l-2,1.7-3.7.2-2.9,1.2-1.3-1.8-.6-2.3.6-7,1.7-1.7-1.2-2.4-.5-2.4-.6-2,3.1-1.2-1.2-2.3-3.1-1.2h-3.7l-1.2-1.8-1.8-1.7,2.3-1.5v-2.9l-1.1-2.3-2.9-1.2h-5.1l-2.9,1.2-3.6,1.2-2.3,1.8-2.7,1.2-2.8,1.2,2.8-1.7-1.1-2.4v-2.4l2.8-1.6,1.2-1.8L892,262l-2.9-1.1-1.7,1.8-2.8,1.2-2.2,1.8-2.8,1.2-1.8,1.8-1.2,1.8-2.8,1.2-4.2-.5-1.2,1.8v2.8l1.7,1.7h4.5l1.7,2.3-1.2,2.3,5.1,1.2.6-2.1,2.2-1.8,3.4-1.2,2.8,1.8h3.6l2.9,1.7-1.3,1.8-3.6.7-3.4,1.2-1.8,1.7-3.6.7-.4,2.8-2.9,1.7L877,294l1.7,1.7,1.8,1.8,2.9,1.8.6,2.3,1.2,2.3,1.8,1.7-.6,2.2,2.9,1.2,1.2,1.8,1.8,2.3-3.4-.6,2.9,1.8v2.9l-2.9,1.8-2.3,1.7H883l2.1,1.8,2.8-1.2,2.8,1.7,2.9,1.2-1.1,2.3-3.2,1.2,1.2,1.8-.6,2.9-1.8,1.8-2.9,1.1-1.2,1.8-.6,2.3-2,1.7-1.2,2.3-1.2,1.8v2.4l-1.1,1.8-1.7,1.8-1.8,1.8-2.8,1.2-1.8,2-1.1,2.3-2.4,1.8-3.1,1.2-1.2,2.3-3.6.6-3.1,1.2-3.4.6-2.8,1.3-2.4-2-2.4-1.8.6,3.5-.6,2.4-1.2-3.4-3.1,1.1-3.7.1-3.6,1.2-3.7,1.2-2.4,1.7-.1,2.3,1.2,1.8h-3.6v-2.4l-1.2-2.3,1.8-1.7-4.8-.1-2.4-1.7-3.1,1.2-2.7,1.7-2.4,2-2.9,1.2-.6,2.4-1.3,1.8-2.4,1.8-.6,2.9-1.2,1.8,1.2,1.8,1.2,1.8,3.1,2.3.6,2.4,2.9,2.3,1.7,1.8,1.7,1.7,2.4,1.8,1.2,1.8,1.7,1.7,1.2,1.8,1.2,2.3.6,2.3.6,2.8v2.4l.6,2.3-.1,2.4-1.2,1.8V424l-.6,2.4-2.3,1.7-1.7,1.8-2.4,1.7-2.9,1.2h-4l-1.2,1.8-1.2,1.8-3.4-.6,1.7,1.7-1.6,2.8-2.9,1.8L796,448l-.5-4.6V439l1.8-2.3-1.8-1.8-2.9-1.1h-4l1.2-2.4-4,.2v-4.7l-1.8-1.8-3.1-1.2-1.7-1.7-4-.1-2.3-1.7.6-2.3-3.6-1.2-1.2,2.3v5.7l-1.2,2.3-1.2,2.9-1.2,2.8-1.2,1.8v3.5l.6,2.3,3.4.6v2.3l1.2,2.3,1.8,3.4-1,2.1,1.2,1.8,2.9,1.1,3.4.6,1.7,2.2,2.9,1.2,1.1,2.3,2.3,1.8,1.8,1.7,1.1,5.7-.6,3.5.6,4,1.7,1.7,1.2,2.2,1.2,2.3.6,2.3-1.7-1.7-.6,2.3-3.1-1.8-2.1-1.7-2.9-1.8-2.9-1.8-1.5-1.8-2.4-1.8-2.3-3.5-1.2-1.8-1.2-1.8.6-3.4-1.1-3.4-.6-2.9-1.2-2.6-1.5-1.8-1.2-2.3-1.8-2.3-1.7-2.1-2-1.7-1.2,1.8-.6-2.2V443l.6-3.5,1.2-1.8-.6-5.3,1.2-2.9v-2.3l-1.2-2.3,1.2-1.8-.6-2.3v-2.3l-1.2-2.2-1.8-2.8-.6-2.3-1.2-6.8-1.2-2.3.6-2.3-1.1,1.8-.6-2.2-1.2-2.3-1.7-1.7.6,2.3-1.2,1.8-2.4,1.8-2.9,1.2-1,2.3-2.3-1.7-1.7,1.7-1.8-1.7-1.8-2.3,1.2-1.8v-2.3l.6-2.1V392l-1.2-1.8-.6-2.4-2.7-2-1.2-2.3,1.7-1.8-2.4-1.8-3.7-.1v-2.4l-2.3-2.3-1.8-2.3-.6-2.1v-2.3l-1.2-2.3h-4.3v2.3l-2.3,1.7-3.1-1.2-1.7,1.7-3.3.7-1.8-1.8-1.2,1.8-2.4-1.8-1.8,1.7-3.4.6-1.1,1.8v2.3l-.6,2.4-1.6,1.8-2.3,1.8-2.9,1.2-2.9,1.7-2.1,1.7-1.1,2.3-1.8,1.8-2.9,1.7-1.6,1.8-2.4,1.8-2.8,1.7-.6,2.9-2.8,1.2h-3.6l-.6,2.3-3.6.6-1.7,1.7-.6,5.3v2.3l.6,2.3v2.4l.6,4-.9,2.3-1.2,2.2-.6,2.3.6,2.9v3.9l-3.4,1.7-1.8,1.8.6,2.4-3.4.6-1.7,1.7v2.2l-2.3,1.8-3.6-.6-2.2-2.3-1.2-1.8-1.2-2.3.6-2.3-1.8-1.8-.6-2.3-.6-2.3-1.1-2.3-.6-2.3-1.8-1.7-1.2-2.4-1.2-2.3-.6-4.5-1.2-4.2-1.2-2.3-1.2-2.3-.6-2.3-1.2-2.2-1.7-2.3-.6-2.3V397l-.6-2.7-.6-2.3v-2.4l-1.2-2.9-.6-2.3-.6-2.8v-2.3l1.2-3.2-1.8-2.3,1.1-1.8-.6-2.3,1.1-2.2-2.9,1.7v2.9l-1.8,1.7-2.8,1.2-4,1.2-2.8-1.2-1.7-1.7-1.8-2.3-3.2-2.8,1.2-1.8h3.9l2.3-1.8-3.4-.6-4-.6-2.2-2-1.1-1.8-3.1-1.2-2.9-1.2-.6-2.3-3.4-1.3.6-2.3-1.8-1.7-4.2.6-3.6.6-3.4.6-2.9-1.2-3.6.6-5.1.6-4,.6-5.4-.6-2.9-1.2h-4.4l-3.9-.6h-3.9l-3.6-1.2-1.7-1.7v-2.3l-.6-2.3-1.2-1.8h-4.4l-2.3,1.8-4,1.7-3.6-1.2-3.4.6-1.2-1.8-3.4-1.2-1.7-1.8-2.8-1.8-3.3-1.1-1.7-1.7-.6-2.2-1.2-1.8-1.2-2.3-1.8-1.7-.7-2.3-3.4,1.1-2.3-1.7-2.2,1.7-3.7-.6v2.3l-1.7,1.8,2.3,2.2,1.2,2.3,1.2,2.8,1.7,1.8,2.3,1.8,1.2,1.8,1.8,1.8,1.1,2.3-.2,2.3,1.2,2.3,1.8,2.9,1.2,2.3.6-2.3-.6-2.3,1.2-2.8,3.4.5-.6,2.3,1.2,2.9-1.2,1.8-.6,2.4,2.3,1.7,4-.6h7.7l2.8-1.2,1.1-1.8,1.8-1.8,2.3-2.2,1.2-1.8,2.3-1.8,1.2-2.2,1.5,2.6L524,351l.6,2.8,2.3,2.8,1.7,1.7,3.9,1.2,3.4,1.2,2.9,1.2,1.1,2.2,1.8,1.7,1.7,2.3-1.7,2.9-1.7,2.3-2.3,2.3-1.2,1.8-1.7,1.7-2.3,2.4-.6,3.9-3.4,1.7-2.9,1.8-.6,2.3-1,1.8h-4.7l-1.2,1.8v2.4l-3.9,1.2h-3.6l-3.4,1.2-3.3,1.2-2.2,1.7-1.2,2.2-1.7,2.3-3.4,1.2-3.4,1.2-4.4,1.2-2.8,1.2-2.4,1.8-1.7,1.7H476l-2.1,2.3-3.4.6-5.8.6-2.4,2.3-2.9,1.2-3.4.6h-7l-.6-2.4-.6-2.3-.6-2.3-.6-2.3V409l-.5-2.3v-5.1l-1.8-2.3-1.2-1.8-.6-2.3-2.4-1.8-1.2-1.8-.7-2.3-1.2-2.9-1.2-2.3-1.8-1.8-2.4-1.8-1.7-2.1-2-1.8-1.2-1.8-1.8-2.3V367l-.6-2.3-1.2-1.8-.6-2.7-1.2-1.8-2.4-1.8-2.9-1.2-1.1-2V351l-2.4-1.8-.5-2.9-2.1-2.6-1.7-1.7-1.2-2.3-1.8-1.8-1.2-2.3-3.3-1.1.6-3.4.6-2.9-1.1,2.4-1.2,2.9v2.4l-3.7-.2-2-2.3-1.8-1.7v-2.3l-2.4-1.6-.6-2.9-1.8,2.3,1.7,3.4,1.8,1.7,1.2,2.3,2.4,1.8.6,2.9,1.8,2.3.6,2.4,1.2,2.3,1.2,1.8,1.2,2.3,1.2,1.8,1.2,2.8,2.3,2.3,1.1,1.8-1.2,2.8,1.2,2.8,2.9,1.2,1.8,1.8,1.8,1.8.6,2.9,1.8,1.7-.6,2.8.6,6.8.6,2.8,2.3,1.7,1.8,1.8,2.3,1.8,1.8,1.7,1.2,2.3.6,2.8.6,2.9.6,2.3,1.2,2.3,1.2,2.3.6-3.2,1.8,2.3,2.9,1.2,3.6,1.2,1.2,2.3,1.8,1.8,2.3,1.8,1.8,1.7,1.7,1.7,2.3,2.3,1.8,1.7-1.1,2.3-4.3.6,1.7,1.8,1.7,1.7,2.3,2.9,2.3,1.7,3.4-.6,3.6-1.2,1.1-1.8,2.9,1.2,2.8-1.2,2.9-1.2h4.7l7.5-1.2,4-1.2,2.3-1.8,3.3-.6v7.3l-1.2,2.3-.6,4.2-1.2,2.3L488,443l-1.2,2.8-1.7,2.2-1.2,2.3-2.3,2.8-.6,2.3-1.7,3.4-1.2,2.3-1.7,1.7-1.2,2.8-3.4,3.4-1.7,1.7-1.7,2.2-2.3,2.3-1.8,1.8-2.3,3-2.8,1.7-3.4,1.7-2.3,2.3-2.9,2.3-2.3,2.2-3.4,3.4-1.2,1.8-1.8,1.8-1.2,1.8-1.8,1.8-1.2,2.3-1.2,1.8-2.3,1.7-2.3,1.8-.6,2.8-1.8,1.8-.6,2.3-.9,2.9-1.8,1.8-.6,2.4-1.2,2.2-.6,2.3v2.3l2.4,1.8,1.8,1.8-1.2,2.3-.6,2.3.6,2.3v2.9l.6,2.3,1.1,2.3.6,2.3,2.2,1.8,2.4,1.8-.6,2.4-.6,2.4.6,3.4v2.2l1.2,2.3-.6,6.4,1.2,2.3.5,2.9-1.2,1.8-.6,2.2-2.3,2.3-1.2,1.8-2,1.8-1.7,1.8-3.6,1.2-2.8,1.2-2.9,1.2-2.4,1.8-1.8,1.8-1.2,2.3-1.8,1.7-3.6,1.8-1.2,1.8-2.9,2.3-1.2,2.3v2.3l1.8,1.8v2.3l1.1,1.8v4.5l1.8-1.7-.6,4.5v2.3l-.6,2.3.6,2.3-1.7,1.7-2.1,1.7-3.4,1.2-3.3,1.2-4.2,2.3-1.2,2.3,1.8,3.4-.6,3.4-1.2,3.4-.6,2.3-1.8,2.3-1.7,1.8-2.2,1.7-2.9,2.9-1.1,2.2-1.1,2.3-1.6,1.7-1.1,2.3-2.4,1.8-2.4,1.8-2.3,2.3-1.5,1.8-2.9,1.2-1.2,1.8-3.1,1.2-2,1.8-2.8,1.2-1.2-6-3.3.6-3.6,1.1-2.9,1.2-6.1-1.2h-3.6l-3.3.6-2.3,1.8-4-.6-3.4.6-1.7,1.8h-3.6l-2.2-1.7-1.7-1.8-2.9-1.1v-2.8l-1.2-1.8-1.5-1.8,2.9-5.1-2.3-2.8-1.2-2.3-1.8-1.7-.6-2.2-1.2-2.3-.6-2.2-1.2-2.3-1.2-1.8-2.3-2.3-2.3-1.5L293,646l-1.2-1.8V644l-.6-2.1-1.1-2.8-.6-3.4v-2.3l-1-2.3-1.2-2.3v-6.2l.6-2.3-1.7-2.8-1.8-1.7-.6-2.3-2.2-2.8-1.2-2.3-.4-2.3-1.7-2.2-1.2-2.3-1.1-2.3-1.7-1.7-1.7-2.3-.6-6.4-.6-2.9,1.2,1.8v-5.1l1.2-3.9,1.2-3.4.5-3.4,1.2-3.4,2.3-2.3,1.2-2.2,2.3-1.8,1.2-5.1.6-2.2-.6-2.2-1.8-1.7-.6-2.3-1.3-2.3-.6-2.9,2.4-1.8-1.2-2.3-1.7-5.1-.6-2.3-2.3-2.3-1.2-2.1-.6-2.4V523l-1.2-1.8-2.2-3.4-2.3-1.6-1.8-2.3-1.7-1.7-1.7-1.8-2.8-2.2-1.7-2.8-.6-2.4-1.7-1.7-.6-2.4,1.2-1.8,1.2-2.3v-2.2l1.1-1.8.6-2.3-.5-2.3,1.2-1.8.6-4.6.6-2.3v-2.3l-1.7-1.7.6-2.1-3.6.6-1.2-2.8-2.8-1.8-3.4,1.8-3.3.6-3.7-.5-3.6.5-2.4-1.8-.6-2.1-.7-2.8-1.8-2.2-2.4-1.8-4.9-.6-5.3.1-4.7.6-3.3,1.2-1.8,1.8h-4l-2.8,1.8-2.9,1.2-3.8,1.2-2.4,1.8L192,467l-3.4-.6-5.3-.6-3.4-1.2-3.4,1.2-3.4.6-2.8,1.2-3.4,1.2-4.4,1.2-2.8-1.2-2.8-1.7-2.9-1.2-1.1-1.8-1.8-1.7-3.4-2.9-2.2-1.8-2.9-1.2-4.2-2.7-2.3-1.8-1.8-1.8-1.1-2.3-1.2-2.1-.6-2.3-.6-2.4-1.2-2.4-3.6-1.3-1.8-1.7-1.2-1.8-1.3-1.8-1.8-2-.6-2.3-2.9,1.1-1.8-1.8-2.2-1.7.2-2.4v-6l-.6-2.8-1.7-2.8-1.2-1.8,2.8-2.3,1.8-2.8v-4l.6-2.3,1.2-2.3,1.2-2.3v-2.3l-.6-2.3-.6-2.8-1.2-1.8-.1-2.6,1.2-2.8-1.2-1.8-2.2-1.6-1.2-2.9.6-2.9,2.3-1.7,1.2-3.3,1.2-1.8,1.2-2.3.6-2.1,3.4-2.3,1.7-1.7.6-2.8.6-2.9,1.2-2.9,2.9-1.2,2.2-1.7,1.2-2.1,1.2-2.4,1.2-2.3,3.4-.6L142,334l1.7-1.7,2.3-1.6,2.3-1.7,1.8-1.7,2.3-2.8v-2.3l-1.1-5.7,1.8-2.2,1.2-2.9,1.8-2.3,2.3-1.7,2.4-1.6,2.8-1.2,3.3-1.2,1.7-1.8,1.8-1.7,1.1-2.3,1.1-3.4,1.7-1.7,2.9,1.1,1.8,1.8,4.5.6,3.4-.6,3.4-1.1,1.2,1.8,5.1.6,2.9-1.8,1.2-1.8,3.4-.6,2.8-1.2,2.4-1.8,4.5-.6,8.1-.6,2.8-1.2,9.1-.6,2.9,1.8,2.9-1.2,2.8-1.2,4.5.6,3.4-.6,5.1.6,2.3-1.8,4.5-.6,1.8,1.8,1.2,1.8,2.2-1.7.6,2.3-2.3,3.5,1.8,1.8,1.1,2.2-.6,2.4-1.7,1.8-3.9,1.2,1.7,4,3.4-1.2.6,2.8,3.4,1.2,2.9,1.8h9l2.9,1.2,4.5,1.2L292,315l1.7,2.8,4,1.1,4.5.6,3.4,1.2,2.9,1.2,1.7,1.7,4,.6,3.6-2.3,1.2-1.8-.6-2.3-.6-4.2,1.7-1.8,4.2-2.3,3.6-1.2,4,.6,3.4.6,1.1,2.3,3.6.6,6.2,1.2,1.7,1.8,3.9.5,5.3.6,3.4.6,2.8,1.7,3.4.6,2.9,1.2,2.8-1.2,2.9-1.2,1.6-1.7,3.4-.5,3.6,1.2,2.9,1.2,4.2.6h3.7l4-.6,1.8-1.8,1.8-2.3,1.2-2.3.6-2.3.6-2.3,1.8-2.3.6-2.3,1.2-1.8,1.8-1.8L409,295l-.6-2.3,1.2-2.3-1.2-1.8,2.3-2.3-3.6.6h-3.9l-4.5,1.7-4.8,1.2-4.2.6-3.7-1.2-2.4-1.8-4.7-1.8-2.3,1.8-2.9,1.7-3.4.6-1.8-2.3-2.9-1.2-3.1,1.2.6-2.4h-4.7l1.7-1.8-2.3-1.8-3.4-.6h4l-1.7-1.7-4.2-.7,1.2-1.8,2.9-1.2-1.1-1.8.6-2.4h-4.5l.6-3.5,1.2-2.3-1.8-2.3-4-.6-4,.6-5,.5,1.2,1.8.6,2.9-1.8-1.8-3.4-.6-2.9,1.7,1.8,1.8,1.7,2.3-1.1,2.3,3.4.5,2.9,1.2.6,2.3-1.6,2.2h-3.6l-1.1,1.8,1.8,1.8-2.9-1.2-.5,2.2.6,2.3,1.2,1.8-1.8-2-2.9,1.1-1.1-2.2-3.6-.5.6-2.3-1.7-1.8.1-2.3-1.6-1.8-2-1.7-.6-2.3-2.4-2.3-3.7-.4,1.7-1.7-2.9-1.8-.6-3.4,1.2-2.1,1.2-2.3-3.1-1.8-1.2-1.8-2.8-1.2-2.7-1.3-2.9-1.2-1.8-1.8h-3.6l-2.7-1.2-1.2-1.8-3.1-1.2-1.2-1.8-1.3-1.8.7-2-2.4,1.7-1.2-2.3-1.8,1.8-1.8-1.8-.6-2.3h-4l-3.1,1.2,1.8,1.7-1.8,1.7.6,2.9,2.9,1.2,2.3,1.7,2.9,2.3,1.2,2.8,1.7,1.8,1.7,1.7,4,1.2h4l-.5,2.9,3.4,1.2,3.4,1.2,2.3,1.7,2.8,1.2,2.9,2.3-2.3,1.7-.6-2.2-2.9-1.2-2.8-1.2-1.8,1.7-1.2,2.3,1.7,1.7,1.6,2.9-2.9,1.2v2.3l-2.3,1.7-2.9,1.2-2.9,1.2-.6,2.3.5,2.3-3.6.4-1.2-1.8-3.4-.6-2.3-1.8-4-.6v-2.8l4.7-.5,6.2,1.2,2.9-1.2,3.9-.4,1.2-2.2,1.1-3.4-1.2-1.8-1.2-2.3-4-.6-.6-2.3-2.9-1.2-2.4-1.8-5.1-1.2-3.6-2.3-2.4-1.8-1.7-1.7-2.7-1.2-1.7-1.7-1.7-2.2-1.2-2.9-2.2-1.7-2.8-1.2-4-.6-2.3,1.8-1.8,1.8-4.5.6-1.7,1.8-2.9,1.2h-5.5l-2.9-1.2-4-.6-3.4,1.2-2.4,1.8v2.3l1.8,1.8-.5,2.3-3.1,1.2-2.8,1.2-3.4,1.8-4,.6-1.2,1.8-1.5,2.3-1.8,1.8-1.8,1.8-1.2,1.8,1.2,2.3,2.3,1.8-2.8,1.2-1.7,1.8-1.2,2.3L199,284l-3.1,1.2-1.2,2.3-4.2-1.5h-4l-3.6.6-3.7.6-2.9,1.2-1.8,1.8-3.6-.6-1.2-1.8-1.2-1.8-1.7-1.8-4-.6-2.9,1.2-5.1-.6,1.2-3.4v-2.3l.6-2.3-3.4-.5-.5-3.5,1.2-1.8,1.8-3.4.6-2.3,1.2-1.8-.6-2.3-1.6-1.7v-4.6l-1.2-1.8-.6-2.2,4-.6,1.1-1.8,3.7-1.2,3.4,1.2h10l3.6,1.2,3.4-.6,3.4.6,3.4-.6,2.8,1.2,4.7-.6,1.2-2.3.6-2.8,1.2-2.3-1.2-4.5,2.4,1.8-1.1-2.2-2-1.8v-2.3l-2.8-1.2-1.7-2.3-1.7-1.8-1.2-1.8-3.6-.1-3.6-.6-3.6-1.2.5-2.4,2.9-1.7,2.9-1.2,2.9,1.2,3.4.6,3.7-.6.6-2.3-1.8-2.1,2.8-1.2,4.7,1.8,5.1-.6,1.2-2.4,3.6-.6,1.8-2.3V207l5-.6,3.4-1.7,2.9-1.8,2.3-2.3,3.4-2.3.6-2.8,3.3-.6,1.7-1.7,3.6-.6,4.5,1.1.6-2.3,4.5-.6,1.2,1.8,1.8-1.7,2.3-1.8-1.7-1.8.6-2.3-.6-2.3-1.5,1.8,1.8-1.7-2.4-1.5.7-2.4-1.2-3.5,2.3-2.9h4.5l2.3-1.8,3.4-1.2.6,2.3-1.2,2.8,3.4,1.2-1.2,1.8-2.4,1.8-3.2,1.2,4.7.6,1.8,2.9-4.2-.1-1.8-1.7-1.7,1.8,3.6,1.2-.7,2.3,3.4.6,2.9-1.2v2.3l5.6-.1,2.4-1.8,3.4-.6L282,188l1.2,1.8,2.3,1.7,2.8-1.7,5.1-.6,3.4-1.2,3.6-1.2,5.8-1.2,3.7.2.4,2.1h5.1l1.7-1.8,3.4-1.7,3.9.6.6-2.9-1.2-3.7-.6-2.3,1.2-2.3,1.2-2.3,2.4-1.8,3.9-.6,2.9,1.8,1.8,1.7,4,.6,2.3-2.7-.6-2.3,1.2-1.8h-3.7l-2.8-1.5-.6-2.4,4-1.7,4-1.2H348l2.9-1.2,4.7.6,6.9.6,1.1-1.8,3.9.1,4.7-1.2-3.9-.9-2.7-1.2-4.5-1.1-4-.1-2.9,1.2-3.8-.1-4.2.6-2.8,1.2-3.4.6-3.6-.6H333l-3.1-1.8-3.6-.6-1.2-1.8-1.2-1.8,1.7-1.8-.6-2.9-1.1-2.3-1.2-1.8,1.1-1.8,1.8-1.7,3.7.4,1.8-1.8,3.1-1.2,3.4-1.2,1.7-1.8,2.8-1.2,1.2-1.8h4V127l-3.9-1.7-2.9-1.2h-4l-2.9,1.2-1.7-1.7-1,1.8-3.1,1.2-1.7,2.3-1.6,1.8,1.1,2.3-2.9,1.2-1.2,1.8-2.9,1.2-2.9,1.2-3.7.6-3.1,1.2-3.1,1.2-1.2,1.8-1.1,1.8-1.2,1.8,1.2,1.8-1.2,1.8-.6,2.3,1.2,1.8,3.9.5,1.7,1.8,3.6,1.2-1.2,1.8-1.8,1.8-1.8,1.8-3.8.6-2.2,1.8-1.1,1.8-1.2,1.8-.7,2.3-.7,2.9-.1,2.9,1.8-1.7,1.1-3.8-.6,2.3-1.2,2.9-1.7-1.7-1.2,1.8-4.2.6-3.6.6-2.6,1.8v2.4h-7.5l.6-2.3-1.7-2.2-.1-2.4-1.1-2.3-2.3-1.6-1.2-2.3-1.2-1.8-.9-2.4-1.8-3.1-2.3-1.8-1.2-2.4-.6,2.4-2.6,1.8-3.6.6-2.9,1.2-1.1,1.8-3.3,1.2L245,167l-3.6-.6-2.8-1.2-2.9-1.8v-2l2.9-1.2-1.2-1.8-2.7,1.2-1.2-1.8,1.2-2.3,1.1,1.8,1.1-1.8,3.4-1.2-3.4,1.1-3.4-1.2,1.2-1.8-1.2-1.8-1.2-1.8,1.3-1.8-1.7-1.8,2.9-1.2,1-1.8,3.6.6,3.4-1.8,1.2-1.8,3.6-.6,3.6-1.2,4.8-.6,2.8-1.2,1.7-1.8,2.4-1.7,2.9-1.2,3.1-1.2,3.7-.6-3.8-.4-3.8.1,3.6-.1,3.9-1,.6-2.4,1.8-1.8,1.3-1.8,2.9-1.2.5-2.4,3.6.6-1.7-1.8h3.6l3.1-1.2,1.6-1.8-1.2-1.8,2.3-1.8,1.1,1.8,1.2-1.8,1.2,1.8.6-2.4,1.2,2.3,1.2-2.3-2.7-1.2-3.4,1.2h-3.9l3.1-1.2,1.7-1.8-3.4,1.2.5-2.4,3.6-.6,3.4-1.2-1.7,1.8,1.2,2.3L297,106l1.2,1.8,3.1-1.2,1.8-1.8-3.4.6,1.7-1.8,3.6-.5,3.6-.6,2.3-1.8,2.4-1.8,2.9,1.2.9,2,2.9-1.6.6,2.3,1.2-2.1,1.7-1.8.5,2.4,3.6-1.2.7-2.3,2.9,1.1,3.1-1.2-1.6-1.8,3.4.6,3.3.6,3.6-.6,2.3-1.8,3.7-.6,3.3.6-2.4,1.8L347,97.7l-1,1.8,4.7-1.7,2.4-1.8,1.7,1.8,3.6-1.2,1.2-1.8,3.9-.1-2.3,1.8,2.9,1.2,2.4-1.8h4l2.9,1.2,3.4.6,2.8,1.2-4.2.6-6.2.6-3.4-.6,3.1,1.2,3.4.6,2.9,1.2,5.3-1.2,3.6.6,1.1-1.8,2.9,1.2,3.4.6-3.4.6,3.4.6,1.7,1.8,4-.6,3.4.6,3.4-.6,3.9.6,2.8,1.2,3.4.6,4,1.2,2.9,1.2,4.2,1.2,2.8,1.2,3.4.6,3.6,1.2,1.2,1.8,1.8,1.8-3.3,1.8-2.3,1.8-4,.6-4,1.2H418l-3.4-.6-5.1-.6-4.7-.6-3.9-1.2-3.9-.6-3.6-1.2-4-.6-2.9-1.2,1.7,1.8,2.3,1.8,2.9,1.2,3.4.6,2.9,1.2,1.1,1.8-1.2,1.8.7,2.4,1.1,1.8,1.2,2.4h4l2.3,1.8,5.3.6h4.7v-2.4l-3.4-.6-3.4-1.1-2.3-1.8,2.9-1.3,3.6-.6,2.8,1.8,3.4.6,4,.6,3.9-.6,1.2-1.8-2.8-1.7,1.7-1.8,3.4-1.7,4-.6,2.9-1.2,1.7-1.7,2.8,1.2,3.4-.6,1.1,1.8,3.4,1.1v-2.3L455,118l-1.1-1.8-3.4-.6,1.2-2.2,1.2-2.3-4.5-3.3h12l2.8,1.2,2.9,1.2,1.2,1.8-6.9.6-2.9,1.8,2.8,1.8L462,118h4.5l4.7-.6,2.4-1.8,1.2-2.4h4.7l-1.1-1.8,4,.6,3.4-1.2,4-1.2,2.9-1.2h5.1l3.4.6-1.1-1.8,4-.6,4-1.2-1.1,1.8,1.2,1.8,3.4.5,3.4-.5,4-1.2h9.3l2.8-1.2,5.1-1.2,2.8,1.2-1.7,1.8,3.4,1.2,1.1-1.8,3.9-.6,1.7-2.7-2.9-1.1-2.3-1.7-3.7-.7-3.6-.6-1.7-1.8,2.8-1.8,2.3,1.8,3.4.6,2.2,1.8h5.3l11.5.6,4,1.2,3.3.6,4,1.2,3.6,1.2,3.4.6,2.9,1.2,3.4,1.1,2.9,1.2,3.6-1.8,1.2-1.8-2-1.3-2.3-1.8-2.8-1.8-2.9,1.1-1.8-2.2,2.9-1.1-.6-2.4.6-2.3-3.4.6.5-2.4,4-1.5,3.9-1.2,1.8-1.8,1.8-1.7.6-2,2.3-1.8,12,.6h4l4,1.2v2.4l-1.8,1.8-1.7,1.8-2.9,1.2,4.5,1.7,1.8,1.8-.7,2.3-1.1,1.8.6,2.3-.6,2.4v2.3l2.9,1.1,2.9,1.2-3.1,1.8v2.4l-2.8,1.2-1.2,1.8-3.1,1.8-1.8,1.8-6.6.6-1.1-3.1-1.2,1.8,9.7.6,4,.6.5-2.4,3.9-.6,4-1.2,1.1-2.8,3.4-1.1v-2.3l-1.7-1.8,1.2-2.4,3.4-.6,4.5-.6,3.4.6,2.2,1.8,1.7,1.7-.6,2.3,2.3,1.8h4.5l-3.4-.6-1.7-1.8,2.8-1.8-1.2-2.9-2.9-1.2-4.7-.6-3.4-.6h-4l-7.5.6.6-2.2-1.2-2.3,1.7-1.8,1.8-2.3-2.3-1.7-2.3-1.6V88.6l5.1-.6,2.8-1.2.6-2.3L624.1,83h4.7l1.8,1.8-.6,2.4L628.8,89l1.1,1.8,1.2,1.8h6.2l5.8.6,3.4,1.2-1.2-2.3-3.6-.1-5.4-1.2-3.4-2.3,4.5-1.2,3.4,1.2h4l-2.2-1.7-4.4-.6,1.7-1.8h4.5l5.1,1.2,4.5.6,3.9.6,3.9,1.7,11.5.6-1.8,1.8-3.4,1.2.1,2.3,3.6-.6.5,2.8L670,98.4l5.1-1.1.6-2.4-1.2-1.8-.5-2.3,1.2-1.8-3.4-.6L669,87.2,665.9,86l-4.7-.6-2.8-1.2,1.1-2.3-2.8-1.2,1.1-1.8h4.5l17.1-.6,3.4-.6h5.1l6.9-.6-2.2-1.8.6-2-1.7-1.8,3.4-.6,5.6-.6,2.9-1.2,2.9-1.2,3.4.6,6.2-1.2h4.5l4-.6,6.4-.6h-3.6l6.5-.6,3.3-.6h3.6l2.8-1.2,3.9.2-2.9,1.6h4l3.6-.6,3.4.6,4.7-1.2,4.7.6-2.9-1.2,4.5-1.2h5.3l1.7-1.8,2.1-1.8,3.4-1.2,4.5-.6,5.1-.6,5.3-.6,6.4,1.2,2.9,1.2h-4.8l-3.6,1.2h5.1l4.5.6h4l-1.5,1.8L813,63l16.6-1.2h3.6l3.4,1.1,3.7,1.3,1.1,1.8H845l1.7,1.8h-3.6L846,69l-3.9,2.3-3.6,1.2-3.4.6-4.5,1.2-4,.6-2.3,1.8-4.5.6L817,78.5l-3.6,1.2h-4l-2.8,1.8-4,.6-1.8,1.8,11.8-1.1,3.4-.6,4.7-.6,4.7-.6,4.5-1.2H823l1.1-1.8h5.1l4.7-.6,2.8,2.3,3.4-.6,4,.6-1.3,1.8,3.4.6,5.6-1.8,9.7-.6,13.1.6-2.8,1.2,2.9,1.2,3.4.6h4.2l9.8.6,4.7.6,2.8-1.2.1-2.3,3.4-.6,4.7-1.2,3.1,1.2,3.4.6H918l4.2-.6,4.5.6,4.7,1.2,1.8,1.7-4.5.6,4.5-1.7-1.5,1.8-4.5-.6,2.9,1.2,4,.6-1.7,1.8,1.7,1.7-2-1.8-3.4-.6-3.4-1.8,2.2,1.8,2.3,1.8,1.8,1.8,3.1,1.2,1.1,1.8,4.5.6,4,1.2,3.4-2.3,1.2-1.8,1.2-1.8,2.3-1.7,2.3,1.7,5.1,1.2h4l4-.6,3.6-.6,3.4.6,4,.6,3.6-.6h3.9l4.5.6,1.6-2.3,2.9-1.8-4-.6,5.5-1.1.5-2.1h4.5l4.5,1.2h11.5l6.2.6,5.8.6-6.9.6h-3.7l5.8.6,1.1,1.8h-4.5l1.7,1.8,3.9-.6,2.9-1.8-3.4,1.1-.6-2.4,6.4-.6-2.4,1.8,3.4-1.1,6.9-.6,3.4.6,4,.6,2.3,1.8h-3.8l3.9,1.2,3.4,1.2,5.1.6,2.9,1.8,3.9,1.2h3.6l3.9-.6,3.4-.6h18.5l6.9,1.2,3.4,1.1,1.7,2.3-2.4,1.8,2.9,1.2,3.6.6.6,2.4,2.3-1.8,3.6-1,3.6-1.2h7.8l3.7.6h6.2l5.8.6,4.5-1.1L1152,99l3.9-.6,4,.6-2.9,1.7-4-.6-.9,2.4,4,.6,3.1,1.2,5.3,1.2,3.6-1.2-.6-2.4-3.6-1.2,1.8-1.8,2.9-1.2,5.1.6h4l2.9,1.2h3.6l3.6-.6,4,.6,3.3-.6,3.7.6,4,1.2,4,.6,5.8.6,2.9,1.2,4,1.2v2.8l4.3.5,3.1,1.2,4.5,1.2,2.9,1.2,2.8,1.2,2.9,1.2-.6,2.3.1,2.4,2.3,1.8,2.9-1.2-.7-2-1.1-2.3,3.4-.6,2.9,1.2,3.4.6,5.1-.6,2.2,1.7,3.3,1.2,2.8,1.2,2.3,1.7h-4l-3.4,1.7-4,.5h-4Z" transform="translate(-0.72 0.5)" fill="#121212"/><path d="M439.5,254.4l-.6-1.1-.6-1.7h-.6V251h-1.1l-.6-.6v-.6h-1v-.6h-2.3l-.6-.6h-.6v-.4h-.6l-.6-.6h-1.1V247h-.6v-.6H428l-1.1-1.1h-.4v-.6l-1.1-.6h-.6v-.6h-.6v-.6H423v-.6h-.6l-1.7-.6h-1.1V241H419l-1.1-1.1v.6h-1.7v-.6H415v-1.1l-.6-.6h-1.7l-.6-.6H411V237h1.7v-.6h-.6v-.6h.6l.6.6h.6v.6H415v-.6h2.3v-1.1h-.7v-.6l.6-.6h.6v-.6l.6-.6v-.6h.6v1.1l.6-.6v-1.1h1.1v.6h1.1v-.6l-1.1-.6h-.6v-.6h-.6l-.6-.6h-1.2v-.6h-.6v-.6h2.8v-.6h.6v.6h1.1v-.6H421v-.6h2.3v-.6h.6l.6-.6h1.1V225h-1.7v.6h-4v.6h-4l-1.1,1.1v-.6h-1.1l-.6.6h-.6v.6h-2.9l-.6.6h-2.8l-1.1,1.1h-.6l-1.1,1.1v-1.2h-.6v.6H402v.6h-1.1l-.6.6v.6h.6V233h.6l.6,1.1,1.1,1.7H406v-.6h.6v.6h.6v-.6h3.4v.6h-1.1v1.7h-3.4l-.6-.6h-1.1l-.6.6v.6h-1.1l-.6.6h-2.3l-.6.6h-1v1.1h-1.1v.6h-2.8l-.6-.6h-1.1v-.6h1.1v-1.1l.6-.6h-.6V237h-.6v-.6h-.6v.6h-.6v-.6h-1.1v-.6H388l-.6-.6h.6l.6-.6h1.1V234h.6l1.1-.6h1.1v-.6h1.7v-1.7h-.6v.6h-1.8v-1.2l-.6.6h-3.4v.6l-1.1-.6H386l-.6-.6h-1.1l.4.4.7.2h-.6l-.2-.2-1.5-.4h.6l-.6-.6h1.7v-.6h-2.4l-.6-.6h3.4V228h-3.4v-.6l-.6.6h-2.3v.6h-1.7l.6.6v.6h-.6l-.6.6v.6H376v.6h-.6l-1.1,1.1h-.6l-1.1,1.1h-1.1v-1.1l-.1,2v1.7h.6l.6.6H372v.6h-.6v.6h.6v.6h-.6v1.1h-2.3l-.6.6V240l-.6-.6h.6v-.6h-1.1v1.1l.6.6h-1.2v.6l-.6.6h.6l-.6.6v.6h-.6v.6h.6l-.6.6h.6v1.1h-.6V248h-2.7v.6l-.6.6v.6h-.6V252h-1.2v.6h-1.1v1.2l.6-.6h.6v.6h.6v1.1h.6v.6h.6v.6l.6.6h-.6v.6h.6v1.1h.6l.6.6h.6l1.1.6,1.7.6h1.1v.6l.6-.6,1.1.6h7.5v.6h2.8l.6-.6h.6v-1.1H383l2.3-1.1h.6V258h.6l.6-.6h1.1V257H391l.6-.6h9.8v-.6h1.1V257h.6v.6h.6v.6h3.4v-.6h.6v.6h.6v1.1h.6v.6h.6v.6h1.7v-.6h1.1l1.1.6v.6h1.7v.6h1.7v-.6H418v1.1h5.8v-.6h4l.6.6.6-.6v.6h2.8l1.1-.6H434l.6-.6h1.1v-.6h1.1l.6-.6h.6v-.6h.6l.6-.6V258h.6v-.6h.6v-1.8l-.6-.6-.3-.6Zm-37.6-22.1h-.5v-.5h.5Zm1.5,0v-.5h.5Z" transform="translate(-0.72 0.5)" fill="#121212"/><path d="M513,261.4h-.6l-1.1-.6-.6-.6H510v-.6h-.6v-.4h-.6v-1.7h-.4v-1.1h-.6v-.6l-.6.6v-.6l-1.7.6h-1.7l-.6.6-.6,1.1H502v.6h.6V261H502v-1.1h-1.1v-1.1h-.6V256l.6-.6v-.6h.6v-1.1h.6v-.6h-.6v-.6h-2.3l-.5-.6H497v-.6h-.6v-.6h-.6V250h-2.3l.6-.6v-1.1h-.6v-.6h-.6v-.6l-.6-.6v-.6h-.6v-.6h-.6v-.7h-.6l-2.3-.6h-.6v-1.7h4v.6H495l-.6-.6h-1.1v-.6l-.6-.6h-1.1v-1.2h1.7v-1.1h.6l.6-.6h1.1v-.6h1.1l.6.6v-.6h.6v.6l1.7-.6h1.1v-.2h.6v.6h-.6l1.1.6h2.8l-.6-.6h-1.7v-.6h-.6v-.6l.6-.6v-.6h.6V235h.6v-1.1h.6v-1.1l-.6-.6h-.6v-.6h.6V231h.6v-.6h-.6v-.2h-.6v-.6H500l-.6.6h-2.3v-.6h-1.7V229h-1.7v-1h-.6v.6h-1.7l-.6.6h-.5v.6h-1.7v.6h-1.1v.6h-1.1v.6h-2.9v1.2l-.6-.6H482v.6l.6.6H482l-.6-.6v.6h-.6v.6h-.5v.6h-.6V234H479v1.2h.6v.6H479v-.6h-1.7v.6h-.6v.6h-2.3v.6h.6v.6h-.6V237h-.6v-.6h-1.1v.6h.6v.6h-.6l-.6.6v.6h-.4v.6h-.6v1.1h-.6v.6h-.6v.6h-.6v.6h-1.1v.6h-.6v1.2h1.7l.6.6v.6H471v1.1h.6v.6h.6v1.1l.6-.6v-1.2h1.7l-.6.6h-.6v.6h-.6v1.1l-.6.6v1.1h.6l-.6.6V252l.6.6h.6v1.1l.6.6h.6v.6l.6.6h.6l.6,1.1h.6v.6l.6.6v.6h1.1v.6h.6v.6h.6l.6.6v.6h.6v.6l.6.6v.6h.6v1.1l1.1.6h.6v1.1H485v.6h2.3l.6.6h1.2v.6h-.6v.6l-.6-.6h-2.3v.6h-1.7v1.7h-.6v1.7h-.6v1.1h.6v.6h-1.1v1.7l-.6.6H481v-.6h.6V274h-1.5v1.7h-.6l.6.6v4.5l.6.6v.6h.6v.6h.6l1.1.6,2.3.6v-.6h.6v.6h1.7v1.1h.6v.6h.6v.6h1.1l.6.6h.6l1.1.6v.6H495l1.1.6h1.7l1.1-.6h2.8l1.1-.6h.6l2.3-.6h1.2v.6h1.7V285H508v-4.5l-.6-.6v-2.2h.6V276l-.6-.6.6-.6v-1.1h.6v-.5H508v-.6h-.6l-.6-.6-.6-.6v-.6h-2.9v-.6h.6v-1.1h.6v.6h1.1v.6h.6v-.6h.6v-.6h-1.7l.6-.6h-.6l1.1-1.1H506v-.6h-.6v.6h-.6l-.6-.6v.6h-1.1v.6l.6.6h-.6V268h-.6l-.6-.6v-.9h-.6v-.6l.6-.6v-.6l.6-.6V263l.6-.6-.6-.6h.6v.6h.6v1.2h.6l.6-.6v.6h1.7V263h.6v1.1h2.3v-.6h.6v.6h1.1v-.6h-.6v-1.1h.6v.6l.6.6.6-.6h.6v-.6h.6l-.6-.6v-.4Zm-25.1-22.2h.5v.5h-.5Zm-3.3-6.9h-.5v-.5h.5Zm1.4,9.2V241l.5.5Zm.4-1.9h-.5l.5-.5Zm3.7,27.6-.5-.5h.5Z" transform="translate(-0.72 0.5)" fill="#121212"/><path d="M5,0Q-16.45,56.7,84,133.9c45.3,34.8,36,60.7,45.3,70,15.8,15.9,53-3.8,120-16.4,44.8-8.4,43.2-2.4,80.8-9.4,78.6-14.4,82-52.2,146.9-55.2,45.9-2.1,84.9,7.6,176.3,8.2,67.1.5,88,42.1,91.2,59.9,4.4,24.9,51.3,37.2,97.8,36.9,52.1-.2,108.9-18.5,145.2-48.7,16.5-13.7,20-16.9,41.6-23.5,17.7-5.4,24.5-.1,45.3-1.2,6.2-.4,46.1-2.9,72.2-27,26.4-24.5,20.1-51.1,66.8-65.8C1303,33.7,1298,0,1300,0" transform="translate(-0.72 0.5)" fill="#fff" fill-opacity="0.1" stroke="#fff" stroke-opacity="0.2"/><path d="M450.1,421.8c24.8.5-28.7-68.1,24.1-103.1,14.9-9.9,30.1,15,70.8,24.2,26.8,6,32.8-1.6,48,5.1,46.5,20.3,46.3,70.3,46.3,70.3" transform="translate(-0.72 0.5)" fill="none" stroke="#fff" opacity="0.5" style="isolation:isolate"/><path d="M453.5,343.7c4.2-30.2-30.9-3.9-34.2-33.1-3.9-34.6-13.6-36-35.1-37.8-11.5-.9-23.8-5.3-32.3-13.3-5.5-5.3-9.9-11.6-15.3-17-14.2-14.1-36-21.8-55.1-26-20.3-4.5-39.9-1.6-59.4,5.1" transform="translate(-0.72 0.5)" fill="none" stroke="#fff" opacity="0.5" style="isolation:isolate"/><path d="M267.1,325.4s23.1,5.7,46.8.2c9.1-2.1,20.2-5.7,29.4-6.6s18.2-.9,28.7,5" transform="translate(-0.72 0.5)" fill="none" stroke="#fff" opacity="0.5" style="isolation:isolate"/><path d="M338.7,245.5c-1.5-11.2,8.2-27.7,19.1-32.5,11.3-4.9,24.4-8.7,50.4-9.4" transform="translate(-0.72 0.5)" fill="none" stroke="#fff" opacity="0.5" style="isolation:isolate"/><path d="M782,436.1c2.1,11.4,8,84.2,18,91.5,14.1,10.1,32.6,8.2,48.8,10.5,5.4.7,16,8.3,41.3,3.3s40.5-6.1,50.6,9.2c28.5,34.7-16.2,39,72.7,129" transform="translate(-0.72 0.5)" fill="none" stroke="#fff" opacity="0.5" style="isolation:isolate"/><path d="M602.3,352.8c29.4,5.4,71.3-56.2,135.5-21.1,27.5,15,13.8,89.9,72.6,136.6" transform="translate(-0.72 0.5)" fill="none" stroke="#fff" opacity="0.5" style="isolation:isolate"/><path d="M706.4,165.2c216.7-31.6,89.6-75.6,556.9-46.5" transform="translate(-0.72 0.5)" fill="none" stroke="#fff" opacity="0.5" style="isolation:isolate"/><polyline points="887.59 103.9 892.68 97.8 885.99 93.7" fill="none" stroke="#fff" opacity="0.5" style="isolation:isolate"/><polyline points="271.79 321.9 265.79 326.3 271.08 331.4" fill="none" stroke="#fff" opacity="0.5" style="isolation:isolate"/><polyline points="258.58 409.8 251.78 414 257.58 419" fill="none" stroke="#fff" opacity="0.5" style="isolation:isolate"/><path d="M252.8,413.9s39.7.8,57.7,22.6" transform="translate(-0.72 0.5)" fill="none" stroke="#fff" opacity="0.5" style="isolation:isolate"/><path d="M372.3,324.6c1.6-5.1,8.8-6.5,21.5-4.2,11.4,2.1,10-11.2,10-11.2" transform="translate(-0.72 0.5)" fill="none" stroke="#fff" opacity="0.5" style="isolation:isolate"/><polyline points="225.19 215.9 221.38 222.3 228.19 225.1" fill="none" stroke="#fff" opacity="0.5" style="isolation:isolate"/><path d="M476.8,317.4c15.9-4.5,78.6-18.5,99.5-37.3,29.7-26.8,3.3-81.4,66.1-93.6,117.8-22.9,72.7-72.5,250.2-89.6" transform="translate(-0.72 0.5)" fill="none" stroke="#fff" opacity="0.5" style="isolation:isolate"/><polyline points="402.29 209.1 408.08 204.3 402.38 199.4" fill="none" stroke="#fff" opacity="0.5" style="isolation:isolate"/><polyline points="1256.29 124 1262.79 119.3 1257.18 113.8" fill="none" stroke="#fff" opacity="0.5" style="isolation:isolate"/><polyline points="632.28 413.8 638.59 419 642.59 412.2" fill="none" stroke="#fff" opacity="0.5" style="isolation:isolate"/><polyline points="801.59 469.9 809.68 468.8 807.49 461.2" fill="none" stroke="#fff" opacity="0.5" style="isolation:isolate"/><circle cx="403.28" cy="311.3" r="2" fill="#fff"/><circle cx="1013.28" cy="680.5" r="2" fill="#fff"/></svg>