<svg width="142" height="144" viewBox="0 0 142 144" fill="none" xmlns="http://www.w3.org/2000/svg">
<path opacity="0.9" d="M90.3025 54.6972L82.0833 68.0311L97.5809 70.3057L82.7138 75.2368L93.1235 86.9409L78.5649 81.162L79.016 96.819L71.5781 83.0341L61.8595 95.318L65.0226 79.9772L49.6817 83.1402L61.9657 73.4216L48.1807 65.9837L63.8378 66.4348L58.0589 51.8763L69.7629 62.286L74.6941 47.4189L76.9686 62.9164L90.3025 54.6972Z" fill="url(#paint0_radial_9_83)"/>
<path d="M3.8999 73H71.4999C71.6325 73 71.7597 72.9473 71.8535 72.8536C71.9472 72.7598 71.9999 72.6326 71.9999 72.5C71.9999 72.3674 71.9472 72.2402 71.8535 72.1464C71.7597 72.0527 71.6325 72 71.4999 72H5.1099L3.8999 73Z" fill="white"/>
<path d="M72.5 74C73.3284 74 74 73.3284 74 72.5C74 71.6716 73.3284 71 72.5 71C71.6716 71 71 71.6716 71 72.5C71 73.3284 71.6716 74 72.5 74Z" fill="white"/>
<path d="M85.0201 80L85.8401 74.08L81.9001 66H84.1001L87.0801 72.38L91.7801 66H93.9201L87.7601 74.06L86.9201 80H85.0201ZM101.806 65.8C105.146 65.8 107.266 67.96 107.266 71.82C107.266 76.6 104.186 80.2 99.8459 80.2C96.4859 80.2 94.3859 78.02 94.3859 74.16C94.3859 69.42 97.4659 65.8 101.806 65.8ZM100.046 78.6C102.986 78.6 105.166 75.66 105.166 71.94C105.166 68.96 103.726 67.4 101.586 67.4C98.6459 67.4 96.4859 70.34 96.4859 74.06C96.4859 77.04 97.9059 78.6 100.046 78.6ZM121.312 66H123.192L121.972 74.7C121.532 77.86 119.212 80.2 115.752 80.2C112.272 80.2 110.592 77.84 111.052 74.68L112.252 66H114.172L112.972 74.5C112.632 76.88 113.592 78.6 115.952 78.6C118.312 78.6 119.772 76.86 120.112 74.48L121.312 66ZM90.5001 98L89.6201 94.2H83.9201L82.0001 98H79.9401L87.1201 84H89.2601L92.6001 98H90.5001ZM84.7201 92.6H89.2601L87.8401 86.42L84.7201 92.6ZM103.282 91.74C103.762 92.06 104.142 92.56 104.442 93.2L106.702 98H104.502L102.522 93.8C101.902 92.5 101.382 92.2 99.6618 92.2H98.8018L97.9818 98H96.0818L98.0418 84H99.9418H102.662C104.982 84 106.982 85.06 106.982 87.44C106.982 89.76 105.442 91.18 103.282 91.74ZM101.342 90.6C103.582 90.6 104.982 89.62 104.982 87.64C104.982 86.14 103.822 85.6 102.042 85.6H99.7218L99.0218 90.6H101.342ZM112.199 96.4H119.459L119.239 98H110.079L112.039 84H120.999L120.779 85.6H113.719L113.119 89.9H119.579L119.359 91.5H112.899L112.199 96.4ZM92.8801 102H94.7801L92.8201 116H90.9201L91.8401 109.5H84.1401L83.2201 116H81.3201L83.2801 102H85.1801L84.3601 107.9H92.0601L92.8801 102ZM99.8034 114.4H107.063L106.843 116H97.6834L99.6434 102H108.603L108.383 103.6H101.323L100.723 107.9H107.183L106.963 109.5H100.503L99.8034 114.4ZM118.295 109.74C118.775 110.06 119.155 110.56 119.455 111.2L121.715 116H119.515L117.535 111.8C116.915 110.5 116.395 110.2 114.675 110.2H113.815L112.995 116H111.095L113.055 102H114.955H117.675C119.995 102 121.995 103.06 121.995 105.44C121.995 107.76 120.455 109.18 118.295 109.74ZM116.355 108.6C118.595 108.6 119.995 107.62 119.995 105.64C119.995 104.14 118.835 103.6 117.055 103.6H114.735L114.035 108.6H116.355ZM127.213 114.4H134.473L134.253 116H125.093L127.053 102H136.013L135.793 103.6H128.733L128.133 107.9H134.593L134.373 109.5H127.913L127.213 114.4Z" fill="white"/>
<defs>
<radialGradient id="paint0_radial_9_83" cx="0" cy="0" r="1" gradientUnits="userSpaceOnUse" gradientTransform="translate(72.4998 72.5) rotate(135) scale(25.1769)">
<stop stop-color="#FA4700"/>
<stop offset="1" stop-color="#FF2600"/>
</radialGradient>
</defs>
</svg>
