<svg xmlns="http://www.w3.org/2000/svg" xmlns:xlink="http://www.w3.org/1999/xlink" width="142" height="144" viewBox="0 0 142 144"><defs><filter id="a" x="-1.1" y="-1.1" width="102.2" height="102.1" name="filter-3"><feOffset result="shadowOffsetOuter1" in="SourceAlpha"/><feGaussianBlur result="shadowBlurOuter1" stdDeviation="0.5" in="shadowOffsetOuter1"/><feColorMatrix values="0 0 0 0 0 0 0 0 0 0 0 0 0 0 0 0 0 0 1 0" in="shadowBlurOuter1"/></filter><radialGradient id="b" cx="62.69" cy="81.07" r="0.52" gradientTransform="matrix(65.18, -122.91, -122.91, -65.18, 5948.65, 13066.9)" gradientUnits="userSpaceOnUse"><stop offset="0" stop-color="#e5601f"/><stop offset="1" stop-color="red"/></radialGradient></defs><title>scheme-star</title><g filter="url(#a)"><polygon points="83.93 120.68 64.14 143.01 50.11 116.36 20.71 120.46 26.8 91.02 1.54 74.99 24.9 56.53 15.61 27.86 45.31 29.02 56.33 1.13 78.47 21.36 104.65 7.3 108.87 37.14 137.96 43.49 122.29 68.98 140.67 92.77 112.44 101.97 111.51 132.07 83.93 120.68"/></g><polygon points="83.93 120.68 64.14 143.01 50.11 116.36 20.71 120.46 26.8 91.02 1.54 74.99 24.9 56.53 15.61 27.86 45.31 29.02 56.33 1.13 78.47 21.36 104.65 7.3 108.87 37.14 137.96 43.49 122.29 68.98 140.67 92.77 112.44 101.97 111.51 132.07 83.93 120.68" fill="url(#b)"/><path d="M62.65,56c2.83.27,4.53,1.6,5.07,4a5,5,0,0,1-1.19,4.71,9,9,0,0,1-4.79,2.74L51.9,69.73,47.17,49.27l9-2.07a8.57,8.57,0,0,1,5.33.28,5,5,0,0,1,3,3.69A4.89,4.89,0,0,1,62.65,56Zm-6.63-5-3.33.77,1.06,4.59,3.54-.82c2-.47,2.85-1.52,2.53-2.92Q59.27,50.32,56,51.07ZM55.72,65l4-.93q3.42-.79,2.87-3.16c-.38-1.67-1.75-2.24-4.12-1.7l-3.92.9Zm18-10.28,2.51-.58c4.27-1,6.76.07,7.48,3.2s-1,5.32-5.29,6.3l-6.84,1.58-3.46-15,4.33-1Zm13.48,6.9,4.53-1-3.46-15-4.53,1Zm-12-.44,1.9-.44c1.75-.4,2.54-1,2.22-2.39s-1.25-1.41-3-1l-1.9.44ZM45,90a3.68,3.68,0,0,0,1.43-3.81c-.67-2.89-3.5-3.81-7.47-2.89a14,14,0,0,0-4.91,2.06l.82,3.54a10.5,10.5,0,0,1,4.26-2.22c1.64-.38,2.57-.07,2.81,1s-.53,1.82-3.14,2.42l.64,2.78c2.6-.6,4-.34,4.28.8s-.5,1.69-2.2,2.08a9.88,9.88,0,0,1-5.45-.28L36.91,99a12.33,12.33,0,0,0,5.45-.12c4.24-1,6.67-3.23,6-6.19C48,91.19,46.89,90.27,45,90Zm21.07-.37,3.22-.74,1.9,8.21-2.86.66L66.76,93,54,95.93l.69,5-2.86.66-1.9-8.21,2.13-.49q1.51-2.24-.76-12.11L63.39,78ZM55.88,92l6.05-1.4L60,82.26l-4,.93Q57.3,90.13,55.88,92Zm22.31-4.84a2.39,2.39,0,0,0,2-2.52l4.3-1c.18,3.44-1.73,6-5.5,6.84a7.53,7.53,0,0,1-5.89-.83,7.94,7.94,0,0,1-3.4-5.25,7.82,7.82,0,0,1,.85-6.2,7.54,7.54,0,0,1,4.81-3.3C80,73.83,82.91,76,84.14,81.3l-9.68,2.23C75.12,86.22,76.56,87.52,78.19,87.14Zm-2.11-9.27c-1.34.31-2,1.35-2,3.17l4.76-1.1C78.38,78.23,77.46,77.55,76.08,77.87Zm18.19,5.56c-1.72.4-3.13-1-3.78-3.84s0-4.68,1.72-5.08c1.17-.27,2.27.37,3,1.9l4.3-1c-1.43-3.52-4.29-5.11-8.06-4.24a7.51,7.51,0,0,0-4.94,3.29,7.94,7.94,0,0,0-.75,6.21A8,8,0,0,0,89.16,86a7.51,7.51,0,0,0,5.88.8c3.77-.87,5.65-3.55,5.39-7.34l-4.3,1C96.15,82.1,95.44,83.16,94.27,83.43ZM106,73.9l3.42-.79c4.3-1,6.79.06,7.51,3.19s-1,5.32-5.32,6.31l-7.75,1.79-3.46-15,4.33-1Zm1.49,6.46,2.84-.65c1.67-.38,2.51-1,2.19-2.38-.28-1.2-1.31-1.39-3-1l-2.84.65Z" fill="#fff"/><path d="M3.9,73H71.5a.5.5,0,0,0,.5-.5h0a.5.5,0,0,0-.5-.5H5.11Z" fill="#f19775"/><circle cx="72.5" cy="72.5" r="1.5" fill="#f19775"/></svg>