<svg xmlns="http://www.w3.org/2000/svg" width="15.85" height="14.82" viewBox="0 0 15.85 14.82"><path d="M6.37.41s.37-.48.81-.41,7.32,2,7.9,2.19a.76.76,0,0,1,.51.95l0,.11c-.16.24-5.93,7.28-6.3,7.7s-.61.41-1.17.25S3.1,9.2,2.51,9a.89.89,0,0,0-1.21.35h0l0,.08c-.19.48,0,.91,1,1.38S7.65,13,8.08,13.13a1.07,1.07,0,0,0,1.4-.41c.55-.65,5-6,5-6a3.38,3.38,0,0,1,.21-1.52c.28-.41,1.34-.09,1.13.41a3.36,3.36,0,0,0,0,1.47L9.74,14.25a2,2,0,0,1-1.82.52C7.5,14.62,3,12.85,1.26,12.19S-.08,8.28.56,7.41,6.37.41,6.37.41Zm.69,2.34s-.47-.1-.66.12-.34.35-.53.58-.43.42,0,.59,4.11,1.2,4.77,1.4.81-.28.68-.1A4,4,0,0,0,12,4.59c.14-.24,0-.38-.23-.48S7.06,2.75,7.06,2.75Z" fill="#757eda"/></svg>
