<?xml version="1.0" encoding="UTF-8" standalone="no"?>
<svg width="16px" height="16px" viewBox="0 0 16 16" version="1.1" xmlns="http://www.w3.org/2000/svg" xmlns:xlink="http://www.w3.org/1999/xlink">
    <!-- Generator: Sketch 43.2 (39069) - http://www.bohemiancoding.com/sketch -->
    <title>source-link-icon</title>
    <desc>Created with Sketch.</desc>
    <defs></defs>
    <g id="Symbols" stroke="none" stroke-width="1" fill="none" fill-rule="evenodd">
        <g id="source-link-icon" fill="#799FCA">
            <path d="M6.37108799,0.414771911 C6.37108799,0.414771911 6.74267509,-0.0675591451 7.17800695,0.00804177623 C7.61333881,0.0836426976 14.4946453,1.99953587 15.0757958,2.19695359 C15.6569464,2.39437131 15.7071696,3.01384407 15.5477113,3.25610452 C15.3882531,3.49836496 9.61719575,10.5328435 9.25120557,10.9579149 C8.8852154,11.3829863 8.63832559,11.3726406 8.0778955,11.2090288 C7.51746542,11.0454171 3.09178719,9.2033796 2.51082095,8.99048013 C1.92985471,8.77758067 1.45225482,8.94562197 1.26079888,9.42042297 C1.06934293,9.89522397 1.22724253,10.3342247 2.30246408,10.7958954 C3.37768563,11.2575661 7.64419729,12.9684241 8.0778955,13.1289649 C8.51159372,13.2895058 8.92865289,13.3712395 9.48284337,12.7183248 C10.0370338,12.0654101 14.4799838,6.67139393 14.4799838,6.67139393 C14.4799838,6.67139393 14.4067562,5.56096392 14.6873997,5.15571421 C14.9680432,4.7504645 16.0239925,5.06145064 15.8201943,5.56096392 C15.6163962,6.06047719 15.8201943,7.03431478 15.8201943,7.03431478 C15.8201943,7.03431478 10.1516533,13.7658276 9.74359112,14.2555302 C9.33552893,14.7452328 8.3436936,14.9303139 7.92306033,14.778353 C7.50242706,14.626392 3.03814528,12.8540524 1.26079888,12.1919477 C-0.516547524,11.529843 -0.0835735947,8.27580591 0.561812626,7.41474997 C1.20719885,6.55369403 6.37108799,0.414771911 6.37108799,0.414771911 Z M7.05604404,2.75328063 C7.05604404,2.75328063 6.58448254,2.64998351 6.3982383,2.87202941 C6.21199407,3.09407531 6.05439274,3.22505664 5.87252996,3.44867632 C5.69066717,3.672296 5.44113549,3.87276227 5.88024654,4.03827916 C6.31935758,4.20379605 9.99318357,5.23391393 10.65027,5.43814751 C11.3073563,5.6423811 11.4598569,5.15915943 11.3289366,5.33742566 C11.1980163,5.51569189 11.8325415,4.83102652 11.9692819,4.58759153 C12.1060224,4.34415654 11.9539142,4.20459096 11.7437355,4.10515675 C11.5335568,4.00572253 7.05604404,2.75328063 7.05604404,2.75328063 Z" id="Combined-Shape"></path>
        </g>
    </g>
</svg>