<svg id="source-link-icon" xmlns="http://www.w3.org/2000/svg" width="15.845" height="14.818" viewBox="0 0 15.845 14.818"><title>source-link-icon</title><path id="source-link-icon-2" d="M7.448,2s.372-.482.807-.407,7.317,1.992,7.9,2.192a.763.763,0,0,1,.472,1.059c-.159.242-5.931,7.277-6.3,7.7s-.613.415-1.173.251-4.983-2.01-5.564-2.22a.892.892,0,0,0-1.212.351q-.021.038-.038.079c-.191.475-.034.914,1.042,1.375s5.342,2.173,5.775,2.333a1.074,1.074,0,0,0,1.4-.411c.554-.653,5-6.047,5-6.047a3.38,3.38,0,0,1,.207-1.516c.281-.405,1.337-.094,1.133.405a3.364,3.364,0,0,0,0,1.473s-5.669,6.732-6.077,7.221A2.037,2.037,0,0,1,9,16.361c-.421-.152-4.885-1.924-6.662-2.586S.993,9.861,1.639,9,7.448,2,7.448,2Zm.685,2.339s-.472-.1-.658.119-.344.353-.526.577-.431.424.008.59,4.113,1.2,4.77,1.4.81-.279.679-.1a3.975,3.975,0,0,0,.64-.75c.137-.243-.015-.383-.226-.482S8.133,4.338,8.133,4.338Z" transform="translate(-1.076 -1.585)" fill="#5a748e"/></svg>